STARTFONT 2.1
FONT -FontForge-Roboto Mono-Bold-R-Normal--78-750-75-75-P-467-ISO10646-1
SIZE 75 75 75
FONTBOUNDINGBOX 137 103 -61 -20
COMMENT "Generated by fontforge, http://fontforge.sourceforge.net"
COMMENT "Copyright 2015 Google Inc. All Rights Reserved."
STARTPROPERTIES 41
FOUNDRY "FontForge"
FAMILY_NAME "Roboto Mono"
WEIGHT_NAME "Bold"
SLANT "R"
SETWIDTH_NAME "Normal"
ADD_STYLE_NAME ""
PIXEL_SIZE 78
POINT_SIZE 750
RESOLUTION_X 75
RESOLUTION_Y 75
SPACING "P"
AVERAGE_WIDTH 467
CHARSET_REGISTRY "ISO10646"
CHARSET_ENCODING "1"
FONTNAME_REGISTRY ""
CHARSET_COLLECTIONS "ISO8859-2 ISO8859-5 ISO8859-7 ISO8859-9 ISO8859-4 ISO10646-1"
FONT_NAME "RobotoMono-Bold"
FACE_NAME "Roboto Mono Bold"
COPYRIGHT "Copyright 2015 Google Inc. All Rights Reserved."
FONT_VERSION "2.000985; 2015; ttfautohint (v1.3)"
FONT_ASCENT 62
FONT_DESCENT 16
UNDERLINE_POSITION -8
UNDERLINE_THICKNESS 4
X_HEIGHT 40
CAP_HEIGHT 54
DEFAULT_CHAR 1
RAW_ASCENT 799
RAW_DESCENT 200
NORM_SPACE 47
RELATIVE_WEIGHT 70
RELATIVE_SETWIDTH 50
SUPERSCRIPT_X 0
SUPERSCRIPT_Y 37
SUPERSCRIPT_SIZE 50
SUBSCRIPT_X 0
SUBSCRIPT_Y 10
SUBSCRIPT_SIZE 50
FIGURE_WIDTH 47
AVG_LOWERCASE_WIDTH 470
AVG_UPPERCASE_WIDTH 470
ENDPROPERTIES
CHARS 1012
STARTCHAR NULL.dup1
ENCODING 0
SWIDTH 0 0
DWIDTH 0 0
BBX 1 1 0 0
BITMAP
00
ENDCHAR
STARTCHAR uni0002
ENCODING 2
SWIDTH 600 0
DWIDTH 47 0
BBX 1 1 0 0
BITMAP
00
ENDCHAR
STARTCHAR uni0009
ENCODING 9
SWIDTH 600 0
DWIDTH 47 0
BBX 1 1 0 0
BITMAP
00
ENDCHAR
STARTCHAR nonmarkingreturn
ENCODING 13
SWIDTH 600 0
DWIDTH 47 0
BBX 1 1 0 0
BITMAP
00
ENDCHAR
STARTCHAR space
ENCODING 32
SWIDTH 600 0
DWIDTH 47 0
BBX 1 1 0 0
BITMAP
00
ENDCHAR
STARTCHAR exclam
ENCODING 33
SWIDTH 600 0
DWIDTH 47 0
BBX 12 56 17 -1
BITMAP
7FF0
7FF0
7FF0
7FF0
7FF0
7FF0
7FF0
7FE0
7FE0
7FE0
7FE0
7FE0
7FE0
7FE0
7FE0
7FE0
7FE0
7FE0
7FE0
7FE0
7FE0
7FE0
7FE0
7FE0
7FE0
7FE0
7FE0
7FE0
7FE0
7FE0
7FE0
7FE0
7FE0
7FE0
7FE0
7FE0
0000
0000
0000
0000
0000
0000
0000
0000
1F80
3FC0
7FE0
FFF0
FFF0
FFF0
FFF0
FFF0
FFF0
7FE0
3FC0
1F80
ENDCHAR
STARTCHAR quotedbl
ENCODING 34
SWIDTH 600 0
DWIDTH 47 0
BBX 23 20 11 38
BITMAP
FF01FE
FF01FE
FF01FE
FF01FE
FF01FE
FE01FE
FE01FE
FE01FE
FE01FE
FE01FE
FE01FE
FE01FE
FE01FE
FE01FE
FE01FE
FE01FC
FE01FC
FE01FC
FE01FC
FC01FC
ENDCHAR
STARTCHAR numbersign
ENCODING 35
SWIDTH 600 0
DWIDTH 47 0
BBX 42 55 2 0
BITMAP
0001FC03F800
0001FC03F000
0001FC07F000
0001F807F000
0001F807F000
0003F807F000
0003F807E000
0003F80FE000
0003F80FE000
0003F00FE000
0007F00FE000
0007F00FC000
0007F01FC000
0007F01FC000
0007E01FC000
3FFFFFFFFFC0
3FFFFFFFFFC0
3FFFFFFFFFC0
3FFFFFFFFFC0
3FFFFFFFFFC0
3FFFFFFFFFC0
3FFFFFFFFFC0
001FC03F8000
001FC03F0000
001FC07F0000
001FC07F0000
001F807F0000
003F807F0000
003F807E0000
003F80FE0000
003F80FE0000
003F00FE0000
007F00FE0000
FFFFFFFFFE00
FFFFFFFFFE00
FFFFFFFFFE00
FFFFFFFFFE00
FFFFFFFFFE00
FFFFFFFFFE00
00FE01F80000
00FE03F80000
00FE03F80000
00FC03F80000
01FC03F80000
01FC03F80000
01FC03F00000
01FC07F00000
01FC07F00000
01F807F00000
03F807F00000
03F807F00000
03F807E00000
03F80FE00000
03F80FE00000
07F00FE00000
ENDCHAR
STARTCHAR dollar
ENCODING 36
SWIDTH 600 0
DWIDTH 47 0
BBX 38 73 5 -8
BITMAP
00007F0000
00007F0000
00007F0000
00007F0000
00007F0000
00007F0000
00007F0000
00007F0000
00007F0000
000FFFF000
003FFFFC00
00FFFFFF00
01FFFFFF80
03FFFFFFC0
07FFFFFFE0
0FFFFFFFE0
0FFFFFFFF0
1FFF81FFF8
1FFE007FF8
3FFC003FF8
3FF8003FFC
3FF8001FFC
3FF8001FFC
3FF8000FFC
3FF8000FFC
3FF8000FFC
3FF8000000
3FF8000000
1FFC000000
1FFE000000
1FFF800000
0FFFE00000
0FFFFC0000
07FFFF0000
03FFFFC000
01FFFFF000
007FFFFC00
003FFFFF00
000FFFFF80
0003FFFFC0
0000FFFFE0
00001FFFF0
000003FFF8
000000FFF8
0000007FF8
0000003FFC
0000001FFC
FFC0001FFC
FFC0000FFC
FFE0000FFC
FFE0000FFC
FFE0000FFC
FFE0001FFC
7FF0001FFC
7FF8003FFC
7FFC007FFC
3FFF01FFF8
3FFFFFFFF8
1FFFFFFFF0
0FFFFFFFE0
07FFFFFFE0
03FFFFFF80
01FFFFFF00
007FFFFC00
000FFFF000
0000FE0000
00007E0000
00007E0000
00007E0000
00007E0000
00007E0000
00007E0000
00007E0000
ENDCHAR
STARTCHAR percent
ENCODING 37
SWIDTH 600 0
DWIDTH 47 0
BBX 44 57 1 -1
BITMAP
01FE00000000
07FF80000000
0FFFE0000000
1FFFF0000000
3FFFF0000000
7FFFF8000000
7F87F8000000
7F03FC010000
FF01FC03C000
FF01FC03F000
FF01FC07F000
FF01FC07E000
FF01FC0FE000
FF01FC1FC000
FF01FC1F8000
FF01FC3F8000
7F03FC3F0000
7F87F87F0000
7FFFF87E0000
3FFFF0FE0000
1FFFF0FC0000
0FFFE1FC0000
07FF81F80000
01FE03F80000
000007F00000
000007E00000
00000FE00000
00000FC00000
00001FC00000
00001F800000
00003F800000
00003F000000
00007F000000
00007E03F800
0000FE1FFF00
0000FC3FFF80
0001FC7FFFC0
0003F8FFFFE0
0003F0FFFFE0
0007F1FF1FF0
0007E1FE07F0
000FE1FC07F0
000FC1FC07F0
001FC1FC07F0
001F81FC07F0
003F81FC07F0
003F01FC07F0
000F01FC07F0
000201FC07F0
000001FE07F0
000001FF0FF0
000000FFFFE0
000000FFFFE0
0000007FFFC0
0000003FFF80
0000001FFF00
00000003F800
ENDCHAR
STARTCHAR ampersand
ENCODING 38
SWIDTH 600 0
DWIDTH 47 0
BBX 44 57 3 -1
BITMAP
0001FF000000
0007FFC00000
001FFFF00000
007FFFF80000
00FFFFFC0000
00FFFFFC0000
01FFFFFE0000
03FFFFFE0000
03FFFFFF0000
03FF83FF0000
07FF01FF0000
07FE01FF0000
07FE00FF8000
07FE00FF8000
07FE00FF0000
07FE01FF0000
07FE01FF0000
07FE03FE0000
03FF07FE0000
03FF0FFC0000
03FFBFF80000
01FFFFF80000
01FFFFF00000
00FFFFC00000
00FFFF800000
007FFF000000
003FFE000000
007FFC000000
01FFFE000000
03FFFE003FE0
07FFFF003FE0
0FFFFF807FE0
1FFFFFC07FE0
3FFDFFC07FC0
3FF9FFE07FC0
7FF0FFF07FC0
7FF07FF8FFC0
FFE03FFCFFC0
FFE03FFCFF80
FFE01FFFFF80
FFE00FFFFF80
FFC007FFFF00
FFE007FFFF00
FFE003FFFE00
FFE001FFFE00
FFF000FFFC00
FFF000FFF800
7FF803FFF800
7FFFFFFFFC00
3FFFFFFFFE00
3FFFFFFFFF00
1FFFFFFFFF00
0FFFFFFFFF80
07FFFFFBFFC0
01FFFFE1FFE0
007FFF80FFF0
000FF8000000
ENDCHAR
STARTCHAR quotesingle
ENCODING 39
SWIDTH 600 0
DWIDTH 47 0
BBX 9 21 17 37
BITMAP
FF80
FF80
FF80
FF80
FF80
FF80
FF80
FF00
FF00
FF00
FF00
FF00
FF00
FF00
FF00
FF00
FF00
FF00
FF00
FF00
FF00
ENDCHAR
STARTCHAR parenleft
ENCODING 40
SWIDTH 600 0
DWIDTH 47 0
BBX 21 79 13 -17
BITMAP
000020
000070
0000F0
0003F0
0007F8
000FF8
001FF8
003FF0
003FE0
007FC0
00FF80
00FF00
01FF00
03FE00
03FC00
07FC00
07F800
0FF800
0FF800
0FF000
1FF000
1FF000
1FE000
3FE000
3FE000
3FE000
7FC000
7FC000
7FC000
7FC000
7FC000
7FC000
FFC000
FF8000
FF8000
FF8000
FF8000
FF8000
FF8000
FF8000
FF8000
FF8000
FF8000
FF8000
FF8000
FF8000
FF8000
7FC000
7FC000
7FC000
7FC000
7FC000
7FC000
3FC000
3FE000
3FE000
3FE000
1FE000
1FF000
1FF000
0FF000
0FF800
0FF800
07FC00
07FC00
03FC00
03FE00
01FF00
00FF00
00FF80
007FC0
003FE0
001FF0
001FF8
000FF8
0007F8
0001F0
0000F0
000060
ENDCHAR
STARTCHAR parenright
ENCODING 41
SWIDTH 600 0
DWIDTH 47 0
BBX 22 79 12 -17
BITMAP
200000
300000
7C0000
7E0000
7F0000
FF8000
7FC000
3FE000
1FF000
1FF000
0FF800
07FC00
03FC00
03FE00
01FF00
01FF00
00FF80
00FF80
00FFC0
007FC0
007FC0
003FE0
003FE0
003FE0
003FF0
001FF0
001FF0
001FF0
001FF0
001FF8
001FF8
000FF8
000FF8
000FF8
000FF8
000FF8
000FF8
000FFC
000FFC
000FFC
000FFC
000FFC
000FFC
000FF8
000FF8
000FF8
000FF8
000FF8
000FF8
001FF8
001FF8
001FF0
001FF0
001FF0
001FF0
003FE0
003FE0
003FE0
003FE0
007FC0
007FC0
00FF80
00FF80
00FF80
01FF00
01FE00
03FE00
07FC00
07FC00
0FF800
1FF000
3FF000
7FE000
FFC000
FF8000
7F0000
7E0000
780000
300000
ENDCHAR
STARTCHAR asterisk
ENCODING 42
SWIDTH 600 0
DWIDTH 47 0
BBX 39 39 6 7
BITMAP
0001FF0000
0001FF0000
0000FE0000
0000FE0000
0000FE0000
0000FE0000
0000FE0000
0000FE0000
0000FE0000
0000FE0000
2000FE0008
3C00FE0038
3F00FE00F8
7FC0FC07F8
7FF0FC1FFC
7FFE7C7FFC
FFFFFDFFFC
FFFFFFFFFE
3FFFFFFFFE
03FFFFFFC0
003FFFFC00
0001FF8000
0003FF0000
0007FF8000
000FFFC000
001FFFE000
001FCFE000
003FC7F000
007F87F800
00FF03FC00
01FF03FE00
03FE01FF00
07FE01FF00
0FFC00FF80
07FC00FFC0
03F8007F00
00F0003E00
0070003800
0020001000
ENDCHAR
STARTCHAR plus
ENCODING 43
SWIDTH 600 0
DWIDTH 47 0
BBX 38 40 4 6
BITMAP
0003FF0000
0003FF0000
0003FF0000
0003FF0000
0003FF0000
0003FF0000
0003FF0000
0003FF0000
0003FF0000
0003FF0000
0003FF0000
0003FF0000
0003FF0000
0003FF0000
FFFFFFFFFC
FFFFFFFFFC
FFFFFFFFFC
FFFFFFFFFC
FFFFFFFFFC
FFFFFFFFFC
FFFFFFFFFC
FFFFFFFFFC
FFFFFFFFFC
FFFFFFFFFC
0003FF0000
0003FF0000
0003FF0000
0003FF0000
0003FF0000
0003FF0000
0003FF0000
0003FF0000
0003FF0000
0003FF0000
0003FF0000
0003FF0000
0003FF0000
0003FF0000
0003FF0000
0003FF0000
ENDCHAR
STARTCHAR comma
ENCODING 44
SWIDTH 600 0
DWIDTH 47 0
BBX 13 25 14 -16
BITMAP
1FF8
1FF8
1FF8
1FF8
1FF8
1FF8
1FF8
1FF8
1FF8
1FF8
1FF8
1FF8
1FF8
1FF0
1FF0
3FF0
3FE0
3FE0
7FC0
7FC0
FF80
FF00
7E00
1E00
0400
ENDCHAR
STARTCHAR hyphen
ENCODING 45
SWIDTH 600 0
DWIDTH 47 0
BBX 31 9 11 20
BITMAP
FFFFFFFE
FFFFFFFE
FFFFFFFE
FFFFFFFE
FFFFFFFE
FFFFFFFE
FFFFFFFE
FFFFFFFE
FFFFFFFE
ENDCHAR
STARTCHAR period
ENCODING 46
SWIDTH 600 0
DWIDTH 47 0
BBX 15 14 16 -1
BITMAP
07C0
1FF0
3FF8
7FFC
FFFC
FFFE
FFFE
FFFE
FFFE
FFFC
7FFC
3FF8
1FF0
0FC0
ENDCHAR
STARTCHAR slash
ENCODING 47
SWIDTH 600 0
DWIDTH 47 0
BBX 31 60 8 -5
BITMAP
000007FE
000007FC
00000FFC
00000FFC
00000FF8
00001FF8
00001FF8
00001FF0
00003FF0
00003FF0
00007FE0
00007FE0
00007FE0
0000FFC0
0000FFC0
0000FFC0
0001FF80
0001FF80
0001FF80
0003FF00
0003FF00
0003FF00
0007FE00
0007FE00
0007FE00
000FFC00
000FFC00
000FFC00
001FF800
001FF800
001FF000
003FF000
003FF000
003FE000
007FE000
007FE000
00FFC000
00FFC000
00FFC000
01FF8000
01FF8000
01FF8000
03FF0000
03FF0000
03FF0000
07FE0000
07FE0000
07FE0000
0FFC0000
0FFC0000
0FFC0000
1FF80000
1FF80000
1FF80000
3FF00000
3FF00000
3FE00000
7FE00000
7FE00000
FFC00000
ENDCHAR
STARTCHAR zero
ENCODING 48
SWIDTH 600 0
DWIDTH 47 0
BBX 36 57 5 -1
BITMAP
0003FE0000
001FFFC000
007FFFF000
01FFFFF800
03FFFFFE00
07FFFFFF00
0FFFFFFF00
0FFFFFFF80
1FFFFFFFC0
1FFE03FFC0
3FFC01FFE0
3FF800FFE0
3FF000FFE0
7FF0007FF0
7FF0007FF0
7FE0007FF0
7FE0003FF0
7FE0003FF0
FFE0003FF0
FFE0003FF0
FFE0007FF0
FFE000FFF0
FFE003FFF0
FFE007FFF0
FFE00FFFF0
FFE03FFFF0
FFE07FFFF0
FFE0FFBFF0
FFE3FF3FF0
FFE7FC3FF0
FFFFF83FF0
FFFFF03FF0
FFFFC03FF0
FFFF803FF0
FFFF003FF0
FFFC003FF0
FFF8003FF0
FFF0003FF0
FFE0003FF0
7FE0003FF0
7FE0003FF0
7FE0007FF0
7FF0007FF0
7FF0007FF0
3FF0007FE0
3FF800FFE0
3FFC01FFE0
1FFE03FFC0
1FFFFFFFC0
0FFFFFFF80
07FFFFFF00
07FFFFFF00
03FFFFFE00
01FFFFFC00
007FFFF000
001FFFC000
0003FE0000
ENDCHAR
STARTCHAR one
ENCODING 49
SWIDTH 600 0
DWIDTH 47 0
BBX 24 55 7 0
BITMAP
000007
00003F
0001FF
0007FF
003FFF
01FFFF
0FFFFF
3FFFFF
FFFFFF
FFFFFF
FFFFFF
FFFFFF
FFFBFF
FFE3FF
FF03FF
F803FF
C003FF
0003FF
0003FF
0003FF
0003FF
0003FF
0003FF
0003FF
0003FF
0003FF
0003FF
0003FF
0003FF
0003FF
0003FF
0003FF
0003FF
0003FF
0003FF
0003FF
0003FF
0003FF
0003FF
0003FF
0003FF
0003FF
0003FF
0003FF
0003FF
0003FF
0003FF
0003FF
0003FF
0003FF
0003FF
0003FF
0003FF
0003FF
0003FF
ENDCHAR
STARTCHAR two
ENCODING 50
SWIDTH 600 0
DWIDTH 47 0
BBX 39 56 3 0
BITMAP
0003FF0000
001FFFF000
007FFFFC00
01FFFFFE00
03FFFFFF00
07FFFFFF80
0FFFFFFFC0
1FFFFFFFE0
3FFFFFFFE0
3FFC01FFF0
7FF800FFF0
7FF0007FF0
FFE0003FF0
FFE0003FF8
FFE0003FF8
FFC0003FF8
FFC0003FF8
FFC0003FF8
0000003FF8
0000003FF0
0000007FF0
0000007FF0
000000FFE0
000000FFE0
000001FFC0
000003FFC0
000007FF80
00000FFF80
00000FFF00
00001FFE00
00003FFC00
00007FF800
0000FFF000
0001FFF000
0003FFE000
0007FFC000
000FFF8000
001FFF0000
003FFE0000
007FFC0000
00FFF80000
00FFF00000
01FFE00000
03FFC00000
07FF800000
0FFF000000
1FFE000000
3FFFFFFFFE
7FFFFFFFFE
7FFFFFFFFE
7FFFFFFFFE
7FFFFFFFFE
7FFFFFFFFE
7FFFFFFFFE
7FFFFFFFFE
7FFFFFFFFE
ENDCHAR
STARTCHAR three
ENCODING 51
SWIDTH 600 0
DWIDTH 47 0
BBX 38 57 4 -1
BITMAP
0003FF0000
003FFFE000
00FFFFFC00
03FFFFFE00
07FFFFFF00
0FFFFFFF80
1FFFFFFFC0
3FFFFFFFE0
3FFFFFFFE0
7FFC01FFF0
7FF800FFF0
7FF0007FF0
FFE0003FF8
FFE0003FF8
FFE0003FF8
0000003FF8
0000003FF8
0000003FF8
0000003FF8
0000007FF0
0000007FF0
000000FFE0
000001FFE0
000FFFFFC0
000FFFFF80
000FFFFF00
000FFFFE00
000FFFF800
000FFFFE00
000FFFFF00
000FFFFFC0
000FFFFFE0
000003FFE0
000000FFF0
0000007FF8
0000003FF8
0000003FF8
0000001FF8
0000001FFC
0000001FFC
0000001FFC
FFC0001FFC
FFC0001FFC
FFE0001FFC
FFE0003FF8
FFF0003FF8
FFF8007FF8
7FFC01FFF0
7FFFFFFFF0
3FFFFFFFE0
1FFFFFFFC0
0FFFFFFFC0
07FFFFFF00
03FFFFFE00
00FFFFF800
003FFFE000
0007FF0000
ENDCHAR
STARTCHAR four
ENCODING 52
SWIDTH 600 0
DWIDTH 47 0
BBX 41 55 2 0
BITMAP
000001FFC000
000001FFC000
000003FFC000
000007FFC000
000007FFC000
00000FFFC000
00001FFFC000
00001FFFC000
00003FFFC000
00007FFFC000
00007FFFC000
0000FFFFC000
0000FFFFC000
0001FFFFC000
0003FFFFC000
0003FEFFC000
0007FCFFC000
000FFCFFC000
000FF8FFC000
001FF0FFC000
003FF0FFC000
003FE0FFC000
007FC0FFC000
007FC0FFC000
00FF80FFC000
01FF00FFC000
01FF00FFC000
03FE00FFC000
07FE00FFC000
07FC00FFC000
0FF800FFC000
1FF800FFC000
1FF000FFC000
3FE000FFC000
7FFFFFFFFF80
7FFFFFFFFF80
FFFFFFFFFF80
FFFFFFFFFF80
FFFFFFFFFF80
FFFFFFFFFF80
7FFFFFFFFF80
7FFFFFFFFF80
7FFFFFFFFF80
000000FFC000
000000FFC000
000000FFC000
000000FFC000
000000FFC000
000000FFC000
000000FFC000
000000FFC000
000000FFC000
000000FFC000
000000FFC000
000000FFC000
ENDCHAR
STARTCHAR five
ENCODING 53
SWIDTH 600 0
DWIDTH 47 0
BBX 38 56 4 -1
BITMAP
07FFFFFFF0
07FFFFFFF0
07FFFFFFF0
07FFFFFFF0
07FFFFFFF0
0FFFFFFFF0
0FFFFFFFF0
0FFFFFFFF0
0FFFFFFFF0
0FFC000000
0FFC000000
0FF8000000
0FF8000000
0FF8000000
1FF8000000
1FF8000000
1FF8000000
1FF8000000
1FF8080000
1FF9FFE000
1FF7FFF800
1FFFFFFE00
1FFFFFFF00
3FFFFFFF80
3FFFFFFFC0
3FFFFFFFE0
3FFFFFFFE0
3FFC07FFF0
0FF001FFF0
00E0007FF8
0000007FF8
0000003FF8
0000003FF8
0000001FF8
0000001FFC
0000001FFC
0000001FFC
0000001FFC
0000001FFC
0000001FFC
FFE0001FF8
7FE0001FF8
7FE0003FF8
7FF0003FF8
7FF8007FF8
3FFC00FFF0
3FFE01FFF0
1FFFFFFFE0
1FFFFFFFE0
0FFFFFFFC0
07FFFFFF80
03FFFFFF00
01FFFFFE00
007FFFF800
001FFFE000
0003FF0000
ENDCHAR
STARTCHAR six
ENCODING 54
SWIDTH 600 0
DWIDTH 47 0
BBX 38 57 4 -1
BITMAP
000003F800
00003FF800
0000FFF800
0003FFF800
000FFFF800
001FFFF800
007FFFF800
00FFFFF800
01FFFFF800
03FFFC0000
03FFE00000
07FFC00000
0FFF000000
0FFE000000
1FFC000000
1FFC000000
3FF8000000
3FF8000000
3FF0000000
7FF03FC000
7FE0FFF800
7FE3FFFE00
7FE7FFFF00
7FFFFFFF80
FFFFFFFFC0
FFFFFFFFE0
FFFFFFFFE0
FFFFFFFFF0
FFFE01FFF0
FFF800FFF0
FFF0007FF8
FFF0003FF8
FFE0003FF8
FFE0001FF8
FFE0001FFC
FFE0001FFC
FFE0001FFC
FFE0001FFC
FFE0001FFC
FFE0001FFC
FFE0001FFC
7FE0001FFC
7FF0001FF8
7FF0003FF8
3FF0003FF8
3FF8007FF0
3FFC00FFF0
1FFE01FFF0
0FFFFFFFE0
0FFFFFFFC0
07FFFFFFC0
03FFFFFF80
01FFFFFF00
00FFFFFE00
003FFFF800
000FFFE000
0001FF0000
ENDCHAR
STARTCHAR seven
ENCODING 55
SWIDTH 600 0
DWIDTH 47 0
BBX 39 55 3 0
BITMAP
FFFFFFFFFE
FFFFFFFFFE
FFFFFFFFFE
FFFFFFFFFE
FFFFFFFFFE
FFFFFFFFFE
FFFFFFFFFC
FFFFFFFFFC
FFFFFFFFF8
0000001FF8
0000001FF8
0000003FF0
0000003FF0
0000007FE0
0000007FE0
000000FFC0
000000FFC0
000001FF80
000001FF80
000003FF80
000003FF00
000007FF00
000007FE00
00000FFE00
00000FFC00
00000FFC00
00001FFC00
00001FF800
00003FF800
00003FF000
00007FF000
00007FE000
0000FFE000
0000FFC000
0001FFC000
0001FFC000
0003FF8000
0003FF8000
0003FF0000
0007FF0000
0007FE0000
000FFE0000
000FFE0000
001FFC0000
001FFC0000
003FF80000
003FF80000
007FF00000
007FF00000
00FFE00000
00FFE00000
01FFE00000
01FFC00000
01FFC00000
03FF800000
ENDCHAR
STARTCHAR eight
ENCODING 56
SWIDTH 600 0
DWIDTH 47 0
BBX 37 57 4 -1
BITMAP
0003FF0000
003FFFE000
00FFFFF800
01FFFFFE00
03FFFFFF00
07FFFFFF80
0FFFFFFFC0
1FFFFFFFC0
1FFFFFFFE0
3FFE03FFE0
3FFC00FFE0
3FF800FFF0
3FF8007FF0
7FF0007FF0
7FF0003FF0
7FF0003FF0
7FF0003FF0
3FF0007FF0
3FF0007FF0
3FF8007FF0
3FF800FFE0
1FFC00FFE0
1FFE03FFC0
0FFFFFFFC0
07FFFFFF80
03FFFFFF00
01FFFFFC00
007FFFF800
01FFFFFC00
03FFFFFF00
07FFFFFF80
0FFFFFFFC0
1FFF03FFE0
3FFC00FFE0
3FF8007FF0
7FF0003FF0
7FE0003FF8
7FE0003FF8
FFE0001FF8
FFE0001FF8
FFE0001FF8
FFE0001FF8
FFE0003FF8
FFE0003FF8
FFF0003FF8
7FF0007FF8
7FF800FFF8
7FFE01FFF0
3FFFFFFFF0
3FFFFFFFE0
1FFFFFFFC0
0FFFFFFFC0
07FFFFFF80
03FFFFFE00
00FFFFFC00
003FFFE000
0003FF0000
ENDCHAR
STARTCHAR nine
ENCODING 57
SWIDTH 600 0
DWIDTH 47 0
BBX 37 57 4 -1
BITMAP
0003FE0000
001FFFC000
007FFFE000
01FFFFF800
03FFFFFC00
07FFFFFE00
0FFFFFFF00
1FFFFFFF80
1FFFFFFF80
3FFE03FFC0
3FF801FFC0
7FF800FFE0
7FF000FFE0
FFE0007FE0
FFE0007FF0
FFE0003FF0
FFE0003FF0
FFC0003FF0
FFC0003FF8
FFC0003FF8
FFC0003FF8
FFC0003FF8
FFE0003FF8
FFE0003FF8
FFE0003FF8
FFE0003FF8
7FF0007FF8
7FF800FFF8
7FFC01FFF8
3FFF07FFF8
3FFFFFFFF8
1FFFFFFFF8
1FFFFFFFF0
0FFFFFFFF0
07FFFFFFF0
03FFFFBFF0
00FFFF3FF0
003FFC3FE0
0001007FE0
0000007FE0
000000FFE0
000000FFC0
000001FFC0
000001FF80
000003FF80
00000FFF00
00001FFE00
0000FFFE00
00FFFFFC00
00FFFFF800
00FFFFF000
00FFFFE000
00FFFF8000
00FFFF0000
00FFFC0000
00FFE00000
00FE000000
ENDCHAR
STARTCHAR colon
ENCODING 58
SWIDTH 600 0
DWIDTH 47 0
BBX 14 45 17 -1
BITMAP
0FC0
3FF0
7FF8
FFF8
FFFC
FFFC
FFFC
FFFC
FFFC
FFFC
FFF8
7FF8
3FF0
0FC0
0000
0000
0000
0000
0000
0000
0000
0000
0000
0000
0000
0000
0000
0000
0000
0000
0000
0FC0
3FF0
7FF8
FFF8
FFFC
FFFC
FFFC
FFFC
FFFC
FFFC
FFF8
7FF8
3FF0
0FC0
ENDCHAR
STARTCHAR semicolon
ENCODING 59
SWIDTH 600 0
DWIDTH 47 0
BBX 16 60 17 -16
BITMAP
03E0
0FF8
1FFC
3FFE
7FFE
7FFF
7FFF
7FFF
7FFF
7FFE
3FFE
1FFC
0FF8
07E0
0000
0000
0000
0000
0000
0000
0000
0000
0000
0000
0000
0000
0000
0000
0000
0000
0000
0000
0000
0000
0000
1FF8
1FF8
1FF8
1FF8
1FF8
1FF8
1FF8
1FF8
1FF8
1FF8
1FF8
1FF8
1FF0
1FF0
3FF0
3FE0
3FE0
3FE0
7FC0
7F80
FF80
FF00
7E00
1C00
0400
ENDCHAR
STARTCHAR less
ENCODING 60
SWIDTH 600 0
DWIDTH 47 0
BBX 34 37 6 5
BITMAP
00000000C0
00000003C0
0000000FC0
0000007FC0
000001FFC0
00000FFFC0
00003FFFC0
0000FFFFC0
0007FFFFC0
001FFFFFC0
00FFFFFF80
03FFFFFC00
1FFFFFE000
7FFFFF0000
FFFFF80000
FFFFC00000
FFFE000000
FFF0000000
FFE0000000
FFFC000000
FFFF800000
FFFFF00000
FFFFFE0000
3FFFFFC000
07FFFFF800
01FFFFFF00
003FFFFFC0
000FFFFFC0
0003FFFFC0
00007FFFC0
00001FFFC0
000003FFC0
000000FFC0
0000003FC0
00000007C0
00000001C0
0000000040
ENDCHAR
STARTCHAR equal
ENCODING 61
SWIDTH 600 0
DWIDTH 47 0
BBX 36 25 6 11
BITMAP
FFFFFFFFF0
FFFFFFFFF0
FFFFFFFFF0
FFFFFFFFF0
FFFFFFFFF0
FFFFFFFFF0
FFFFFFFFF0
FFFFFFFFF0
FFFFFFFFF0
0000000000
0000000000
0000000000
0000000000
0000000000
0000000000
0000000000
FFFFFFFFF0
FFFFFFFFF0
FFFFFFFFF0
FFFFFFFFF0
FFFFFFFFF0
FFFFFFFFF0
FFFFFFFFF0
FFFFFFFFF0
FFFFFFFFF0
ENDCHAR
STARTCHAR greater
ENCODING 62
SWIDTH 600 0
DWIDTH 47 0
BBX 34 37 6 5
BITMAP
8000000000
F000000000
FC00000000
FF80000000
FFE0000000
FFFC000000
FFFF000000
FFFFE00000
FFFFF80000
FFFFFF0000
7FFFFFC000
0FFFFFF000
01FFFFFE00
003FFFFF80
0007FFFFC0
0000FFFFC0
00001FFFC0
000003FFC0
000001FFC0
00000FFFC0
00007FFFC0
0003FFFFC0
001FFFFFC0
00FFFFFF00
07FFFFFC00
3FFFFFE000
FFFFFF8000
FFFFFC0000
FFFFF00000
FFFF800000
FFFE000000
FFF8000000
FFC0000000
FF00000000
F800000000
E000000000
8000000000
ENDCHAR
STARTCHAR question
ENCODING 63
SWIDTH 600 0
DWIDTH 47 0
BBX 36 57 6 -1
BITMAP
0007FF0000
007FFFE000
01FFFFF800
03FFFFFE00
0FFFFFFF00
1FFFFFFF80
1FFFFFFFC0
3FFFFFFFC0
3FFFFFFFE0
7FFC03FFE0
7FF800FFE0
FFF000FFF0
FFE0007FF0
FFE0007FF0
FFE0007FF0
0000007FF0
0000007FF0
0000007FF0
000000FFE0
000000FFE0
000001FFE0
000001FFC0
000003FFC0
000007FF80
00000FFF00
00001FFE00
00003FFC00
00007FF800
0000FFF000
0001FFE000
0003FFC000
0003FF8000
0007FF0000
0007FF0000
0007FE0000
0007FE0000
0007FE0000
0007FE0000
0007FE0000
0000000000
0000000000
0000000000
0000000000
0000000000
0000000000
0001F00000
0007FC0000
000FFE0000
000FFE0000
000FFF0000
001FFF0000
001FFF0000
000FFF0000
000FFE0000
000FFE0000
0007FC0000
0001F00000
ENDCHAR
STARTCHAR at
ENCODING 64
SWIDTH 600 0
DWIDTH 47 0
BBX 43 55 2 0
BITMAP
00001FF00000
0000FFFE0000
0003FFFF8000
000FFFFFE000
001FFFFFF000
007FFFFFF800
00FFE01FFC00
01FF8003FC00
03FE0000FE00
03FC00007F00
07F000003F00
0FF007F03F80
0FE03FFC1F80
1FC07FFE1F80
1FC0FFFF0FC0
3F81FFFF0FC0
3F83FFFF0FC0
3F03FC3F0FC0
7F07F83F07C0
7E07F03F07C0
7E0FE03E07E0
FE0FE07E07E0
FE0FC07E07E0
FC1FC07E07E0
FC1FC07E07E0
FC1FC07E07C0
FC1F807E07C0
FC1F807E07C0
FC3F807E0FC0
FC3F807E0FC0
FC3F807E0FC0
FC3F807E0FC0
FC3F80FE0F80
FC1F80FC1F80
FC1FC0FC1F80
FC1FC0FC3F00
FC1FE1FE3F00
FE1FFFFFFE00
FE0FFFFFFE00
7E0FFFFFFC00
7F07FF3FF800
7F03FE1FF000
7F00F807C000
3F8000000000
3FC000000000
1FE000000000
1FF000000000
0FFC00040000
07FF807C0000
03FFFFFE0000
01FFFFFE0000
00FFFFFE0000
003FFFFE0000
000FFFF80000
0001FF800000
ENDCHAR
STARTCHAR A
ENCODING 65
SWIDTH 600 0
DWIDTH 47 0
BBX 46 55 1 0
BITMAP
00003FF00000
00003FF00000
00007FF80000
00007FF80000
00007FF80000
0000FFFC0000
0000FFFC0000
0000FFFC0000
0001FFFE0000
0001FFFE0000
0001FFFE0000
0003FFFF0000
0003FFFF0000
0003FFFF0000
0007FFFF8000
0007FFFF8000
0007FCFF8000
000FFCFFC000
000FFCFFC000
000FFC7FC000
001FF87FE000
001FF87FE000
001FF87FE000
003FF03FF000
003FF03FF000
003FF03FF000
007FF01FF800
007FE01FF800
007FE01FF800
00FFE01FFC00
00FFC00FFC00
00FFC00FFC00
01FFC00FFC00
01FFC00FFE00
01FFFFFFFE00
03FFFFFFFE00
03FFFFFFFF00
03FFFFFFFF00
03FFFFFFFF00
07FFFFFFFF80
07FFFFFFFF80
07FFFFFFFF80
0FFFFFFFFFC0
0FFC0001FFC0
0FFC0000FFC0
1FFC0000FFE0
1FFC0000FFE0
1FF80000FFE0
3FF800007FF0
3FF800007FF0
3FF800007FF0
7FF000003FF8
7FF000003FF8
7FF000003FF8
FFE000003FFC
ENDCHAR
STARTCHAR B
ENCODING 66
SWIDTH 600 0
DWIDTH 47 0
BBX 40 55 5 0
BITMAP
FFFFFF8000
FFFFFFF800
FFFFFFFE00
FFFFFFFF80
FFFFFFFFC0
FFFFFFFFE0
FFFFFFFFF0
FFFFFFFFF8
FFFFFFFFF8
FFE000FFFC
FFE0003FFC
FFE0001FFC
FFE0001FFC
FFE0000FFE
FFE0000FFE
FFE0000FFE
FFE0000FFE
FFE0000FFC
FFE0001FFC
FFE0001FFC
FFE0003FF8
FFE0007FF8
FFE001FFF0
FFFFFFFFE0
FFFFFFFFC0
FFFFFFFF80
FFFFFFFE00
FFFFFFFF80
FFFFFFFFE0
FFFFFFFFF0
FFFFFFFFF8
FFE000FFFC
FFE0003FFC
FFE0001FFE
FFE0000FFE
FFE00007FE
FFE00007FF
FFE00007FF
FFE00007FF
FFE00007FF
FFE00007FF
FFE00007FF
FFE0000FFF
FFE0000FFE
FFE0001FFE
FFE0007FFE
FFFFFFFFFC
FFFFFFFFFC
FFFFFFFFF8
FFFFFFFFF0
FFFFFFFFE0
FFFFFFFFC0
FFFFFFFF00
FFFFFFFC00
FFFFFFC000
ENDCHAR
STARTCHAR C
ENCODING 67
SWIDTH 600 0
DWIDTH 47 0
BBX 41 57 3 -1
BITMAP
0000FFC00000
0007FFF80000
001FFFFE0000
007FFFFF8000
00FFFFFFC000
01FFFFFFE000
03FFFFFFF000
07FFFFFFF800
0FFFFFFFFC00
0FFF007FFC00
1FFE001FFE00
1FFC000FFE00
3FF8000FFE00
3FF80007FF00
3FF00007FF00
7FF00007FF00
7FF00003FF00
7FE00003FF00
7FE00003FF80
FFE000000000
FFE000000000
FFE000000000
FFE000000000
FFE000000000
FFE000000000
FFE000000000
FFE000000000
FFE000000000
FFE000000000
FFE000000000
FFE000000000
FFE000000000
FFE000000000
FFE000000000
FFE000000000
FFE000000000
FFE000000000
FFE000000000
FFE000000080
7FE00003FF00
7FF00003FF00
7FF00007FF00
7FF00007FF00
3FF80007FF00
3FF8000FFE00
1FFC000FFE00
1FFE001FFE00
0FFF007FFC00
0FFFFFFFFC00
07FFFFFFF800
03FFFFFFF000
01FFFFFFE000
00FFFFFFC000
007FFFFF8000
003FFFFE0000
000FFFF80000
0000FF800000
ENDCHAR
STARTCHAR D
ENCODING 68
SWIDTH 600 0
DWIDTH 47 0
BBX 38 55 5 0
BITMAP
FFFFF00000
FFFFFE0000
FFFFFFC000
FFFFFFE000
FFFFFFF800
FFFFFFFC00
FFFFFFFE00
FFFFFFFF00
FFFFFFFF80
FFE01FFFC0
FFE007FFC0
FFE001FFE0
FFE000FFF0
FFE000FFF0
FFE0007FF0
FFE0003FF8
FFE0003FF8
FFE0003FF8
FFE0001FFC
FFE0001FFC
FFE0001FFC
FFE0001FFC
FFE0001FFC
FFE0001FFC
FFE0001FFC
FFE0001FFC
FFE0001FFC
FFE0001FFC
FFE0001FFC
FFE0001FFC
FFE0001FFC
FFE0001FFC
FFE0001FFC
FFE0001FFC
FFE0001FFC
FFE0001FFC
FFE0001FFC
FFE0003FF8
FFE0003FF8
FFE0003FF8
FFE0007FF0
FFE000FFF0
FFE000FFF0
FFE001FFE0
FFE007FFC0
FFE00FFFC0
FFFFFFFF80
FFFFFFFF00
FFFFFFFE00
FFFFFFFC00
FFFFFFF800
FFFFFFE000
FFFFFFC000
FFFFFE0000
FFFFF00000
ENDCHAR
STARTCHAR E
ENCODING 69
SWIDTH 600 0
DWIDTH 47 0
BBX 37 55 6 0
BITMAP
FFFFFFFFF8
FFFFFFFFF8
FFFFFFFFF8
FFFFFFFFF8
FFFFFFFFF8
FFFFFFFFF8
FFFFFFFFF8
FFFFFFFFF8
FFFFFFFFF8
FFC0000000
FFC0000000
FFC0000000
FFC0000000
FFC0000000
FFC0000000
FFC0000000
FFC0000000
FFC0000000
FFC0000000
FFC0000000
FFC0000000
FFC0000000
FFFFFFFF80
FFFFFFFF80
FFFFFFFF80
FFFFFFFF80
FFFFFFFF80
FFFFFFFF80
FFFFFFFF80
FFFFFFFF80
FFFFFFFF80
FFC0000000
FFC0000000
FFC0000000
FFC0000000
FFC0000000
FFC0000000
FFC0000000
FFC0000000
FFC0000000
FFC0000000
FFC0000000
FFC0000000
FFC0000000
FFC0000000
FFC0000000
FFFFFFFFF8
FFFFFFFFF8
FFFFFFFFF8
FFFFFFFFF8
FFFFFFFFF8
FFFFFFFFF8
FFFFFFFFF8
FFFFFFFFF8
FFFFFFFFF8
ENDCHAR
STARTCHAR F
ENCODING 70
SWIDTH 600 0
DWIDTH 47 0
BBX 37 55 6 0
BITMAP
FFFFFFFFF8
FFFFFFFFF8
FFFFFFFFF8
FFFFFFFFF8
FFFFFFFFF8
FFFFFFFFF8
FFFFFFFFF8
FFFFFFFFF8
FFFFFFFFF8
FFC0000000
FFC0000000
FFC0000000
FFC0000000
FFC0000000
FFC0000000
FFC0000000
FFC0000000
FFC0000000
FFC0000000
FFC0000000
FFC0000000
FFC0000000
FFC0000000
FFFFFFFFC0
FFFFFFFFC0
FFFFFFFFC0
FFFFFFFFC0
FFFFFFFFC0
FFFFFFFFC0
FFFFFFFFC0
FFFFFFFFC0
FFFFFFFFC0
FFC0000000
FFC0000000
FFC0000000
FFC0000000
FFC0000000
FFC0000000
FFC0000000
FFC0000000
FFC0000000
FFC0000000
FFC0000000
FFC0000000
FFC0000000
FFC0000000
FFC0000000
FFC0000000
FFC0000000
FFC0000000
FFC0000000
FFC0000000
FFC0000000
FFC0000000
FFC0000000
ENDCHAR
STARTCHAR G
ENCODING 71
SWIDTH 600 0
DWIDTH 47 0
BBX 40 57 3 -1
BITMAP
0000FFC000
0007FFFC00
001FFFFF00
007FFFFF80
00FFFFFFE0
01FFFFFFF0
03FFFFFFF0
07FFFFFFF8
07FFFFFFFC
0FFF807FFC
1FFF001FFE
1FFE000FFE
1FFC000FFE
3FF80007FE
3FF80007FF
7FF80007FF
7FF00003FF
7FF0000000
7FF0000000
7FE0000000
7FE0000000
FFE0000000
FFE0000000
FFE0000000
FFE0000000
FFE0000000
FFE0000000
FFE00FFFFF
FFE00FFFFF
FFE00FFFFF
FFE00FFFFF
FFE00FFFFF
FFE00FFFFF
FFE00FFFFF
FFE00FFFFF
FFE00FFFFF
FFE00007FF
7FE00007FF
7FF00007FF
7FF00007FF
7FF00007FF
7FF00007FF
3FF80007FF
3FF80007FF
3FFC0007FF
1FFE0007FF
1FFF0007FF
0FFF801FFF
0FFFFFFFFF
07FFFFFFFF
03FFFFFFFF
01FFFFFFFC
00FFFFFFF8
007FFFFFF0
001FFFFFC0
0007FFFE00
0000FFE000
ENDCHAR
STARTCHAR H
ENCODING 72
SWIDTH 600 0
DWIDTH 47 0
BBX 37 55 5 0
BITMAP
FFC0003FF8
FFC0003FF8
FFC0003FF8
FFC0003FF8
FFC0003FF8
FFC0003FF8
FFC0003FF8
FFC0003FF8
FFC0003FF8
FFC0003FF8
FFC0003FF8
FFC0003FF8
FFC0003FF8
FFC0003FF8
FFC0003FF8
FFC0003FF8
FFC0003FF8
FFC0003FF8
FFC0003FF8
FFC0003FF8
FFC0003FF8
FFC0003FF8
FFFFFFFFF8
FFFFFFFFF8
FFFFFFFFF8
FFFFFFFFF8
FFFFFFFFF8
FFFFFFFFF8
FFFFFFFFF8
FFFFFFFFF8
FFFFFFFFF8
FFC0003FF8
FFC0003FF8
FFC0003FF8
FFC0003FF8
FFC0003FF8
FFC0003FF8
FFC0003FF8
FFC0003FF8
FFC0003FF8
FFC0003FF8
FFC0003FF8
FFC0003FF8
FFC0003FF8
FFC0003FF8
FFC0003FF8
FFC0003FF8
FFC0003FF8
FFC0003FF8
FFC0003FF8
FFC0003FF8
FFC0003FF8
FFC0003FF8
FFC0003FF8
FFC0003FF8
ENDCHAR
STARTCHAR I
ENCODING 73
SWIDTH 600 0
DWIDTH 47 0
BBX 32 55 7 0
BITMAP
FFFFFFFF
FFFFFFFF
FFFFFFFF
FFFFFFFF
FFFFFFFF
FFFFFFFF
FFFFFFFF
FFFFFFFF
FFFFFFFF
001FFC00
001FFC00
001FFC00
001FFC00
001FFC00
001FFC00
001FFC00
001FFC00
001FFC00
001FFC00
001FFC00
001FFC00
001FFC00
001FFC00
001FFC00
001FFC00
001FFC00
001FFC00
001FFC00
001FFC00
001FFC00
001FFC00
001FFC00
001FFC00
001FFC00
001FFC00
001FFC00
001FFC00
001FFC00
001FFC00
001FFC00
001FFC00
001FFC00
001FFC00
001FFC00
001FFC00
001FFC00
FFFFFFFF
FFFFFFFF
FFFFFFFF
FFFFFFFF
FFFFFFFF
FFFFFFFF
FFFFFFFF
FFFFFFFF
FFFFFFFF
ENDCHAR
STARTCHAR J
ENCODING 74
SWIDTH 600 0
DWIDTH 47 0
BBX 38 56 4 -1
BITMAP
0000001FFC
0000001FFC
0000001FFC
0000001FFC
0000001FFC
0000001FFC
0000001FFC
0000001FFC
0000001FFC
0000001FFC
0000001FFC
0000001FFC
0000001FFC
0000001FFC
0000001FFC
0000001FFC
0000001FFC
0000001FFC
0000001FFC
0000001FFC
0000001FFC
0000001FFC
0000001FFC
0000001FFC
0000001FFC
0000001FFC
0000001FFC
0000001FFC
0000001FFC
0000001FFC
0000001FFC
0000001FFC
0000001FFC
0000001FFC
0000001FFC
0000001FFC
0000001FFC
0000001FFC
0000001FFC
FFE0001FFC
FFE0001FFC
FFE0001FFC
FFE0003FF8
7FF0003FF8
7FF0007FF8
7FF800FFF0
3FFC01FFF0
3FFFFFFFE0
1FFFFFFFE0
1FFFFFFFC0
0FFFFFFF80
07FFFFFF00
03FFFFFE00
00FFFFF800
003FFFE000
0003FF0000
ENDCHAR
STARTCHAR K
ENCODING 75
SWIDTH 600 0
DWIDTH 47 0
BBX 43 55 5 0
BITMAP
FFE00007FFC0
FFE0000FFF80
FFE0001FFF00
FFE0001FFF00
FFE0003FFE00
FFE0007FFC00
FFE000FFF800
FFE000FFF800
FFE001FFF000
FFE003FFE000
FFE003FFC000
FFE007FFC000
FFE00FFF8000
FFE01FFF0000
FFE01FFE0000
FFE03FFE0000
FFE07FFC0000
FFE0FFF80000
FFE0FFF00000
FFE1FFE00000
FFE3FFE00000
FFE3FFC00000
FFE7FF800000
FFEFFF000000
FFFFFF000000
FFFFFF000000
FFFFFF800000
FFFFFF800000
FFFFFFC00000
FFFFFFE00000
FFFFFFE00000
FFFFFFF00000
FFFF7FF80000
FFFF7FF80000
FFFE3FFC0000
FFFC3FFE0000
FFF81FFE0000
FFF00FFF0000
FFE00FFF0000
FFE007FF8000
FFE007FFC000
FFE003FFC000
FFE001FFE000
FFE001FFF000
FFE000FFF000
FFE000FFF800
FFE0007FFC00
FFE0003FFC00
FFE0003FFE00
FFE0001FFE00
FFE0000FFF00
FFE0000FFF80
FFE00007FF80
FFE00007FFC0
FFE00003FFE0
ENDCHAR
STARTCHAR L
ENCODING 76
SWIDTH 600 0
DWIDTH 47 0
BBX 36 55 6 0
BITMAP
FFC0000000
FFC0000000
FFC0000000
FFC0000000
FFC0000000
FFC0000000
FFC0000000
FFC0000000
FFC0000000
FFC0000000
FFC0000000
FFC0000000
FFC0000000
FFC0000000
FFC0000000
FFC0000000
FFC0000000
FFC0000000
FFC0000000
FFC0000000
FFC0000000
FFC0000000
FFC0000000
FFC0000000
FFC0000000
FFC0000000
FFC0000000
FFC0000000
FFC0000000
FFC0000000
FFC0000000
FFC0000000
FFC0000000
FFC0000000
FFC0000000
FFC0000000
FFC0000000
FFC0000000
FFC0000000
FFC0000000
FFC0000000
FFC0000000
FFC0000000
FFC0000000
FFC0000000
FFC0000000
FFFFFFFFF0
FFFFFFFFF0
FFFFFFFFF0
FFFFFFFFF0
FFFFFFFFF0
FFFFFFFFF0
FFFFFFFFF0
FFFFFFFFF0
FFFFFFFFF0
ENDCHAR
STARTCHAR M
ENCODING 77
SWIDTH 600 0
DWIDTH 47 0
BBX 38 55 5 0
BITMAP
FFF800FFFC
FFFC00FFFC
FFFC00FFFC
FFFC01FFFC
FFFC01FFFC
FFFE01FFFC
FFFE03FFFC
FFFE03FFFC
FFFE03FFFC
FFFF03FFFC
FFFF07FFFC
FFFF07FFFC
FFFF07FFFC
FFFF8FFFFC
FFFF8FFFFC
FFBF8FFFFC
FFBF8FEFFC
FFBFDFEFFC
FFBFDFEFFC
FF9FDFCFFC
FF9FFFCFFC
FF9FFFCFFC
FF8FFF8FFC
FF8FFF8FFC
FF8FFF8FFC
FF8FFF8FFC
FF87FF0FFC
FF87FF0FFC
FF87FF0FFC
FF83FE0FFC
FF83FE0FFC
FFC3FE0FFC
FFC3FC0FFC
FFC1FC0FFC
FFC1FC0FFC
FFC1F80FFC
FFC0F80FFC
FFC0000FFC
FFC0000FFC
FFC0000FFC
FFC0000FFC
FFC0000FFC
FFC0000FFC
FFC0000FFC
FFC0000FFC
FFC0000FFC
FFC0000FFC
FFC0000FFC
FFC0000FFC
FFC0000FFC
FFC0000FFC
FFC0000FFC
FFC0000FFC
FFC0000FFC
FFC0000FFC
ENDCHAR
STARTCHAR N
ENCODING 78
SWIDTH 600 0
DWIDTH 47 0
BBX 37 55 5 0
BITMAP
FFE0003FF8
FFE0003FF8
FFF0003FF8
FFF0003FF8
FFF0003FF8
FFF8003FF8
FFF8003FF8
FFFC003FF8
FFFC003FF8
FFFE003FF8
FFFE003FF8
FFFE003FF8
FFFF003FF8
FFFF003FF8
FFFF803FF8
FFFF803FF8
FFFFC03FF8
FFFFC03FF8
FFFFC03FF8
FFFFE03FF8
FFDFE03FF8
FFDFF03FF8
FFCFF03FF8
FFCFF83FF8
FFC7F83FF8
FFC7F83FF8
FFC7FC3FF8
FFC3FC3FF8
FFC3FE3FF8
FFC1FE3FF8
FFC1FF3FF8
FFC0FF3FF8
FFC0FFBFF8
FFC0FFBFF8
FFC07FBFF8
FFC07FFFF8
FFC03FFFF8
FFC03FFFF8
FFC01FFFF8
FFC01FFFF8
FFC00FFFF8
FFC00FFFF8
FFC00FFFF8
FFC007FFF8
FFC007FFF8
FFC003FFF8
FFC003FFF8
FFC001FFF8
FFC001FFF8
FFC001FFF8
FFC000FFF8
FFC000FFF8
FFC0007FF8
FFC0007FF8
FFC0003FF8
ENDCHAR
STARTCHAR O
ENCODING 79
SWIDTH 600 0
DWIDTH 47 0
BBX 41 57 3 -1
BITMAP
0001FF800000
000FFFF00000
003FFFFC0000
007FFFFF0000
00FFFFFF8000
03FFFFFFC000
03FFFFFFE000
07FFFFFFF000
0FFFFFFFF000
0FFF00FFF800
1FFE003FFC00
1FFC001FFC00
3FF8001FFC00
3FF8000FFE00
7FF0000FFE00
7FF00007FE00
7FF00007FF00
7FE00007FF00
FFE00007FF00
FFE00003FF00
FFE00003FF00
FFE00003FF80
FFE00003FF80
FFE00003FF80
FFE00003FF80
FFE00003FF80
FFE00003FF80
FFE00003FF80
FFE00003FF80
FFE00003FF80
FFE00003FF80
FFE00003FF80
FFE00003FF80
FFE00003FF80
FFE00003FF80
FFE00003FF80
FFE00003FF00
FFE00007FF00
FFE00007FF00
7FE00007FF00
7FF00007FF00
7FF00007FF00
7FF0000FFE00
3FF8000FFE00
3FF8001FFE00
1FFC003FFC00
1FFE003FFC00
0FFF00FFF800
0FFFFFFFF000
07FFFFFFF000
03FFFFFFE000
03FFFFFFC000
01FFFFFF8000
007FFFFF0000
003FFFFC0000
000FFFF00000
0001FF800000
ENDCHAR
STARTCHAR P
ENCODING 80
SWIDTH 600 0
DWIDTH 47 0
BBX 38 55 6 0
BITMAP
FFFFFF0000
FFFFFFE000
FFFFFFFC00
FFFFFFFE00
FFFFFFFF80
FFFFFFFFC0
FFFFFFFFE0
FFFFFFFFE0
FFFFFFFFF0
FFC001FFF8
FFC0007FF8
FFC0003FF8
FFC0003FFC
FFC0001FFC
FFC0001FFC
FFC0001FFC
FFC0000FFC
FFC0000FFC
FFC0000FFC
FFC0001FFC
FFC0001FFC
FFC0001FFC
FFC0003FFC
FFC0007FF8
FFC000FFF8
FFC003FFF0
FFFFFFFFF0
FFFFFFFFE0
FFFFFFFFC0
FFFFFFFF80
FFFFFFFF00
FFFFFFFE00
FFFFFFF800
FFFFFFC000
FFFFE00000
FFC0000000
FFC0000000
FFC0000000
FFC0000000
FFC0000000
FFC0000000
FFC0000000
FFC0000000
FFC0000000
FFC0000000
FFC0000000
FFC0000000
FFC0000000
FFC0000000
FFC0000000
FFC0000000
FFC0000000
FFC0000000
FFC0000000
FFC0000000
ENDCHAR
STARTCHAR Q
ENCODING 81
SWIDTH 600 0
DWIDTH 47 0
BBX 43 66 3 -10
BITMAP
0000FF800000
0007FFF00000
001FFFFC0000
007FFFFF0000
00FFFFFF8000
01FFFFFFC000
03FFFFFFE000
07FFFFFFF000
0FFFFFFFF800
0FFF00FFF800
1FFE003FFC00
1FFC001FFC00
3FF8000FFE00
3FF8000FFE00
3FF00007FE00
7FF00007FF00
7FF00007FF00
7FF00007FF00
7FE00003FF00
7FE00003FF80
FFE00003FF80
FFE00003FF80
FFE00003FF80
FFE00003FF80
FFE00003FF80
FFE00003FF80
FFE00003FF80
FFE00003FF80
FFE00003FF80
FFE00003FF80
FFE00003FF80
FFE00003FF80
FFE00003FF80
FFE00003FF80
FFE00003FF80
FFE00003FF80
FFE00003FF80
FFE00003FF80
7FE00003FF80
7FF00003FF80
7FF00007FF00
7FF00007FF00
7FF00007FF00
3FF8000FFE00
3FF8000FFE00
1FFC001FFE00
1FFE003FFC00
0FFF00FFFC00
0FFFFFFFF800
07FFFFFFF000
03FFFFFFE000
01FFFFFFC000
00FFFFFFE000
007FFFFFF000
001FFFFFF800
0007FFFFFC00
0000FFBFFE00
0000001FFF80
0000000FFFC0
00000007FFE0
00000003FFE0
00000000FFC0
000000007F00
000000003E00
000000001C00
000000000800
ENDCHAR
STARTCHAR R
ENCODING 82
SWIDTH 600 0
DWIDTH 47 0
BBX 41 55 5 0
BITMAP
FFFFFF000000
FFFFFFF00000
FFFFFFFE0000
FFFFFFFF0000
FFFFFFFFC000
FFFFFFFFE000
FFFFFFFFF000
FFFFFFFFF000
FFFFFFFFF800
FFE000FFF800
FFE0007FFC00
FFE0003FFC00
FFE0001FFC00
FFE0001FFE00
FFE0000FFE00
FFE0000FFE00
FFE0000FFE00
FFE0000FFE00
FFE0000FFE00
FFE0000FFE00
FFE0001FFC00
FFE0001FFC00
FFE0003FFC00
FFE0007FF800
FFE000FFF800
FFFFFFFFF000
FFFFFFFFF000
FFFFFFFFE000
FFFFFFFFC000
FFFFFFFF0000
FFFFFFFE0000
FFFFFFF80000
FFFFFFF80000
FFFFFFFC0000
FFE01FFC0000
FFE00FFE0000
FFE00FFE0000
FFE007FF0000
FFE007FF0000
FFE003FF8000
FFE003FF8000
FFE001FFC000
FFE001FFC000
FFE000FFE000
FFE000FFE000
FFE0007FF000
FFE0007FF000
FFE0003FF800
FFE0003FF800
FFE0003FFC00
FFE0001FFC00
FFE0001FFE00
FFE0000FFE00
FFE0000FFF00
FFE00007FF80
ENDCHAR
STARTCHAR S
ENCODING 83
SWIDTH 600 0
DWIDTH 47 0
BBX 41 57 3 -1
BITMAP
0000FFE00000
0007FFFC0000
003FFFFF0000
007FFFFFC000
01FFFFFFE000
03FFFFFFF800
07FFFFFFF800
0FFFFFFFFC00
0FFFFFFFFE00
1FFF003FFE00
1FFE000FFF00
1FFC0007FF00
3FF80003FF80
3FF80003FF80
3FF80003FF80
3FF80001FF80
3FF80001FF80
3FF800000000
3FF800000000
1FFC00000000
1FFE00000000
1FFF80000000
0FFFE0000000
07FFFC000000
07FFFFC00000
03FFFFF00000
01FFFFFE0000
007FFFFF0000
003FFFFFC000
000FFFFFE000
0003FFFFF000
0000FFFFF800
00001FFFFC00
000001FFFE00
0000007FFF00
0000001FFF00
0000000FFF00
00000007FF80
00000003FF80
FFE00003FF80
FFE00001FF80
7FE00001FF80
7FE00001FF80
7FF00001FF80
7FF00003FF80
3FF80003FF80
3FFC0007FF80
1FFF001FFF00
1FFFFFFFFF00
0FFFFFFFFE00
07FFFFFFFC00
03FFFFFFF800
01FFFFFFF000
007FFFFFE000
003FFFFF8000
0007FFFE0000
00007FE00000
ENDCHAR
STARTCHAR T
ENCODING 84
SWIDTH 600 0
DWIDTH 47 0
BBX 45 55 1 0
BITMAP
FFFFFFFFFFF8
FFFFFFFFFFF8
FFFFFFFFFFF8
FFFFFFFFFFF8
FFFFFFFFFFF8
FFFFFFFFFFF8
FFFFFFFFFFF8
FFFFFFFFFFF8
FFFFFFFFFFF8
00007FF00000
00007FF00000
00007FF00000
00007FF00000
00007FF00000
00007FF00000
00007FF00000
00007FF00000
00007FF00000
00007FF00000
00007FF00000
00007FF00000
00007FF00000
00007FF00000
00007FF00000
00007FF00000
00007FF00000
00007FF00000
00007FF00000
00007FF00000
00007FF00000
00007FF00000
00007FF00000
00007FF00000
00007FF00000
00007FF00000
00007FF00000
00007FF00000
00007FF00000
00007FF00000
00007FF00000
00007FF00000
00007FF00000
00007FF00000
00007FF00000
00007FF00000
00007FF00000
00007FF00000
00007FF00000
00007FF00000
00007FF00000
00007FF00000
00007FF00000
00007FF00000
00007FF00000
00007FF00000
ENDCHAR
STARTCHAR U
ENCODING 85
SWIDTH 600 0
DWIDTH 47 0
BBX 37 56 5 -1
BITMAP
FFE0003FF8
FFE0003FF8
FFE0003FF8
FFE0003FF8
FFE0003FF8
FFE0003FF8
FFE0003FF8
FFE0003FF8
FFE0003FF8
FFE0003FF8
FFE0003FF8
FFE0003FF8
FFE0003FF8
FFE0003FF8
FFE0003FF8
FFE0003FF8
FFE0003FF8
FFE0003FF8
FFE0003FF8
FFE0003FF8
FFE0003FF8
FFE0003FF8
FFE0003FF8
FFE0003FF8
FFE0003FF8
FFE0003FF8
FFE0003FF8
FFE0003FF8
FFE0003FF8
FFE0003FF8
FFE0003FF8
FFE0003FF8
FFE0003FF8
FFE0003FF8
FFE0003FF8
FFE0003FF8
FFE0003FF8
FFE0003FF8
FFE0003FF8
FFE0003FF8
FFE0003FF8
FFE0003FF8
FFE0007FF0
7FF0007FF0
7FF000FFF0
7FF801FFE0
3FFC03FFE0
3FFFFFFFE0
1FFFFFFFC0
0FFFFFFF80
0FFFFFFF00
07FFFFFE00
01FFFFFC00
00FFFFF800
003FFFE000
0007FE0000
ENDCHAR
STARTCHAR V
ENCODING 86
SWIDTH 600 0
DWIDTH 47 0
BBX 45 55 1 0
BITMAP
FFF000007FF8
7FF00000FFF0
7FF80000FFF0
7FF80000FFF0
3FF80000FFE0
3FF80001FFE0
3FFC0001FFE0
3FFC0001FFC0
1FFC0001FFC0
1FFC0003FFC0
1FFE0003FF80
0FFE0003FF80
0FFE0003FF80
0FFE0007FF80
07FF0007FF00
07FF0007FF00
07FF000FFF00
03FF800FFE00
03FF800FFE00
03FF800FFE00
03FF801FFC00
01FFC01FFC00
01FFC01FFC00
01FFC01FF800
00FFC03FF800
00FFE03FF800
00FFE03FF800
007FE03FF000
007FE07FF000
007FF07FF000
007FF07FE000
003FF07FE000
003FF0FFE000
003FF8FFC000
001FF8FFC000
001FF8FFC000
001FF9FF8000
000FFDFF8000
000FFDFF8000
000FFFFF8000
0007FFFF0000
0007FFFF0000
0007FFFF0000
0007FFFE0000
0003FFFE0000
0003FFFE0000
0003FFFC0000
0001FFFC0000
0001FFFC0000
0001FFFC0000
0000FFF80000
0000FFF80000
0000FFF80000
0000FFF00000
00007FF00000
ENDCHAR
STARTCHAR W
ENCODING 87
SWIDTH 600 0
DWIDTH 47 0
BBX 45 55 1 0
BITMAP
FFC03FC01FF8
FFC03FC01FF8
FFC03FE01FF8
FFC03FE01FF8
7FC03FE01FF0
7FC03FE03FF0
7FE03FE03FF0
7FE07FE03FF0
7FE07FE03FF0
7FE07FF03FF0
7FE07FF03FF0
3FE07FF03FE0
3FE07FF03FE0
3FE07FF07FE0
3FF0FFF07FE0
3FF0FFF07FE0
3FF0FFF87FE0
3FF0FFF87FE0
1FF0FFF87FC0
1FF0FFF87FC0
1FF0FFF87FC0
1FF1FFF87FC0
1FF1FFF8FFC0
1FF9FFFCFFC0
1FF9FDFCFFC0
0FF9FDFCFF80
0FF9FDFCFF80
0FF9FDFCFF80
0FFBF9FCFF80
0FFBF9FEFF80
0FFBF8FFFF80
0FFFF8FFFF80
0FFFF8FFFF00
07FFF8FFFF00
07FFF8FFFF00
07FFF0FFFF00
07FFF07FFF00
07FFF07FFF00
07FFF07FFF00
07FFF07FFE00
03FFF07FFE00
03FFE07FFE00
03FFE03FFE00
03FFE03FFE00
03FFE03FFE00
03FFE03FFE00
03FFE03FFC00
01FFC03FFC00
01FFC01FFC00
01FFC01FFC00
01FFC01FFC00
01FFC01FFC00
01FFC01FFC00
01FFC01FFC00
00FF800FF800
ENDCHAR
STARTCHAR X
ENCODING 88
SWIDTH 600 0
DWIDTH 47 0
BBX 46 55 1 0
BITMAP
7FF80000FFF8
7FFC0000FFF0
3FFC0001FFF0
1FFE0001FFE0
1FFE0003FFE0
0FFF0003FFC0
0FFF0007FFC0
07FF8007FF80
07FF800FFF00
03FFC00FFF00
01FFC01FFE00
01FFE01FFE00
00FFE03FFC00
00FFF03FFC00
007FF07FF800
007FF87FF000
003FF8FFF000
003FFCFFE000
001FFDFFE000
000FFFFFC000
000FFFFFC000
0007FFFF8000
0007FFFF0000
0003FFFF0000
0003FFFE0000
0001FFFE0000
0000FFFC0000
0000FFFC0000
0000FFFC0000
0001FFFE0000
0003FFFE0000
0003FFFF0000
0007FFFF0000
0007FFFF8000
000FFFFFC000
001FFFFFC000
001FFCFFE000
003FFCFFE000
003FF87FF000
007FF87FF800
007FF03FF800
00FFF03FFC00
01FFE01FFC00
01FFE01FFE00
03FFC00FFE00
03FFC00FFF00
07FF8007FF80
0FFF8007FF80
0FFF0003FFC0
1FFF0003FFC0
1FFE0001FFE0
3FFE0001FFF0
3FFC0000FFF0
7FFC0000FFF8
FFF800007FFC
ENDCHAR
STARTCHAR Y
ENCODING 89
SWIDTH 600 0
DWIDTH 47 0
BBX 46 55 1 0
BITMAP
FFF000003FFC
7FF800007FF8
7FF800007FF0
3FF80000FFF0
3FFC0000FFE0
1FFC0001FFE0
1FFE0001FFE0
0FFE0001FFC0
0FFF0003FFC0
07FF0003FF80
07FF0007FF80
03FF8007FF00
03FF800FFF00
01FFC00FFE00
01FFC00FFE00
00FFE01FFC00
00FFE01FFC00
007FE03FF800
007FF03FF800
003FF03FF000
003FF87FF000
001FF87FE000
001FFCFFE000
000FFCFFC000
000FFDFFC000
0007FFFF8000
0007FFFF8000
0003FFFF0000
0003FFFF0000
0003FFFE0000
0001FFFE0000
0001FFFC0000
0000FFFC0000
0000FFF80000
00007FF80000
00007FF00000
00007FF00000
00007FF00000
00007FF00000
00007FF00000
00007FF00000
00007FF00000
00007FF00000
00007FF00000
00007FF00000
00007FF00000
00007FF00000
00007FF00000
00007FF00000
00007FF00000
00007FF00000
00007FF00000
00007FF00000
00007FF00000
00007FF00000
ENDCHAR
STARTCHAR Z
ENCODING 90
SWIDTH 600 0
DWIDTH 47 0
BBX 41 55 3 0
BITMAP
FFFFFFFFFF00
FFFFFFFFFF00
FFFFFFFFFF00
FFFFFFFFFF00
FFFFFFFFFF00
FFFFFFFFFF00
FFFFFFFFFF00
FFFFFFFFFE00
FFFFFFFFFE00
0000001FFC00
0000003FF800
0000007FF800
0000007FF000
000000FFE000
000001FFE000
000001FFC000
000003FF8000
000007FF8000
000007FF0000
00000FFE0000
00001FFE0000
00001FFC0000
00003FF80000
00007FF80000
00007FF00000
0000FFE00000
0001FFE00000
0001FFC00000
0003FF800000
0007FF800000
0007FF000000
000FFE000000
001FFE000000
003FFC000000
003FF8000000
007FF8000000
00FFF0000000
00FFE0000000
01FFE0000000
03FFC0000000
03FF80000000
07FF80000000
0FFF00000000
0FFE00000000
1FFE00000000
3FFC00000000
3FFFFFFFFF80
7FFFFFFFFF80
FFFFFFFFFF80
FFFFFFFFFF80
FFFFFFFFFF80
FFFFFFFFFF80
FFFFFFFFFF80
FFFFFFFFFF80
FFFFFFFFFF80
ENDCHAR
STARTCHAR bracketleft
ENCODING 91
SWIDTH 600 0
DWIDTH 47 0
BBX 17 78 15 -13
BITMAP
FFFF80
FFFF80
FFFF80
FFFF80
FFFF80
FFFF80
FFFF80
FFFF80
FFFF80
FFE000
FFE000
FFE000
FFE000
FFE000
FFE000
FFE000
FFE000
FFE000
FFE000
FFE000
FFE000
FFE000
FFE000
FFE000
FFE000
FFE000
FFE000
FFE000
FFE000
FFE000
FFE000
FFE000
FFE000
FFE000
FFE000
FFE000
FFE000
FFE000
FFE000
FFE000
FFE000
FFE000
FFE000
FFE000
FFE000
FFE000
FFE000
FFE000
FFE000
FFE000
FFE000
FFE000
FFE000
FFE000
FFE000
FFE000
FFE000
FFE000
FFE000
FFE000
FFE000
FFE000
FFE000
FFE000
FFE000
FFE000
FFE000
FFE000
FFE000
FFFF80
FFFF80
FFFF80
FFFF80
FFFF80
FFFF80
FFFF80
FFFF80
FFFF80
ENDCHAR
STARTCHAR backslash
ENCODING 92
SWIDTH 600 0
DWIDTH 47 0
BBX 31 60 9 -5
BITMAP
FFC00000
7FE00000
7FE00000
7FE00000
3FF00000
3FF00000
3FF00000
1FF80000
1FF80000
1FF80000
0FFC0000
0FFC0000
0FFC0000
07FE0000
07FE0000
07FE0000
03FF0000
03FF0000
01FF0000
01FF8000
01FF8000
00FF8000
00FFC000
00FFC000
007FE000
007FE000
007FE000
003FF000
003FF000
003FF000
001FF800
001FF800
001FF800
000FFC00
000FFC00
000FFC00
0007FE00
0007FE00
0007FE00
0003FF00
0003FF00
0003FF00
0001FF80
0001FF80
0000FF80
0000FFC0
0000FFC0
00007FC0
00007FE0
00007FE0
00003FF0
00003FF0
00003FF0
00001FF8
00001FF8
00001FF8
00000FFC
00000FFC
00000FFC
000007FE
ENDCHAR
STARTCHAR bracketright
ENCODING 93
SWIDTH 600 0
DWIDTH 47 0
BBX 17 78 15 -13
BITMAP
FFFF80
FFFF80
FFFF80
FFFF80
FFFF80
FFFF80
FFFF80
FFFF80
FFFF80
01FF80
01FF80
01FF80
01FF80
01FF80
01FF80
01FF80
01FF80
01FF80
01FF80
01FF80
01FF80
01FF80
01FF80
01FF80
01FF80
01FF80
01FF80
01FF80
01FF80
01FF80
01FF80
01FF80
01FF80
01FF80
01FF80
01FF80
01FF80
01FF80
01FF80
01FF80
01FF80
01FF80
01FF80
01FF80
01FF80
01FF80
01FF80
01FF80
01FF80
01FF80
01FF80
01FF80
01FF80
01FF80
01FF80
01FF80
01FF80
01FF80
01FF80
01FF80
01FF80
01FF80
01FF80
01FF80
01FF80
01FF80
01FF80
01FF80
01FF80
FFFF80
FFFF80
FFFF80
FFFF80
FFFF80
FFFF80
FFFF80
FFFF80
FFFF80
ENDCHAR
STARTCHAR asciicircum
ENCODING 94
SWIDTH 600 0
DWIDTH 47 0
BBX 32 29 8 26
BITMAP
000FF000
000FF800
001FF800
001FF800
003FFC00
003FFC00
003FFE00
007FFE00
007FFE00
00FFFF00
00FFFF00
00FE7F80
01FE7F80
01FE7F80
03FC3FC0
03FC3FC0
07FC1FE0
07F81FE0
07F81FF0
0FF00FF0
0FF00FF0
1FF00FF8
1FE007F8
1FE007FC
3FE003FC
3FC003FC
7FC003FE
7F8001FE
FF8001FF
ENDCHAR
STARTCHAR underscore
ENCODING 95
SWIDTH 600 0
DWIDTH 47 0
BBX 34 9 6 -8
BITMAP
FFFFFFFFC0
FFFFFFFFC0
FFFFFFFFC0
FFFFFFFFC0
FFFFFFFFC0
FFFFFFFFC0
FFFFFFFFC0
FFFFFFFFC0
FFFFFFFFC0
ENDCHAR
STARTCHAR grave
ENCODING 96
SWIDTH 600 0
DWIDTH 47 0
BBX 18 11 16 46
BITMAP
FFF000
7FF000
3FF800
1FF800
0FFC00
07FE00
03FE00
01FF00
01FF80
00FF80
007FC0
ENDCHAR
STARTCHAR a
ENCODING 97
SWIDTH 600 0
DWIDTH 47 0
BBX 38 43 4 -1
BITMAP
0003FF0000
003FFFE000
00FFFFF800
03FFFFFE00
07FFFFFF00
0FFFFFFF80
1FFFFFFFC0
1FFFFFFFC0
3FFFFFFFE0
3FFC01FFE0
3FF800FFF0
7FF0007FF0
7FF0007FF0
0000003FF0
0000003FF0
0000003FF0
0000003FF0
0007FFFFF0
007FFFFFF0
01FFFFFFF0
07FFFFFFF0
0FFFFFFFF0
1FFFFFFFF0
3FFF003FF0
3FFC003FF0
7FF0003FF0
7FF0003FF0
7FE0003FF0
FFE0003FF0
FFE0003FF0
FFE0007FF0
FFE0007FF0
FFF001FFF0
7FF803FFF0
7FFFFFFFF0
7FFFFFFFF0
3FFFFFFFF0
1FFFFFFFF8
1FFFFFFFF8
0FFFFFBFF8
03FFFE1FF8
01FFFC1FFC
003FE00000
ENDCHAR
STARTCHAR b
ENCODING 98
SWIDTH 600 0
DWIDTH 47 0
BBX 37 59 6 -1
BITMAP
FFC0000000
FFC0000000
FFC0000000
FFC0000000
FFC0000000
FFC0000000
FFC0000000
FFC0000000
FFC0000000
FFC0000000
FFC0000000
FFC0000000
FFC0000000
FFC0000000
FFC0000000
FFC0000000
FFC0FF8000
FFC3FFE000
FFCFFFF800
FFDFFFFC00
FFFFFFFE00
FFFFFFFF00
FFFFFFFF80
FFFFFFFF80
FFFFFFFFC0
FFFC03FFC0
FFF001FFE0
FFE000FFE0
FFE000FFE0
FFC0007FF0
FFC0007FF0
FFC0007FF0
FFC0003FF0
FFC0003FF0
FFC0003FF0
FFC0003FF0
FFC0003FF0
FFC0003FF8
FFC0003FF0
FFC0003FF0
FFC0003FF0
FFC0003FF0
FFC0003FF0
FFC0007FF0
FFC0007FF0
FFC0007FF0
FFC000FFE0
FFE000FFE0
FFF001FFE0
FFF803FFC0
FFFFFFFFC0
FFFFFFFF80
FFFFFFFF80
FFFFFFFF00
FFFFFFFE00
FF9FFFFC00
FF8FFFF800
FF83FFE000
0000FF8000
ENDCHAR
STARTCHAR c
ENCODING 99
SWIDTH 600 0
DWIDTH 47 0
BBX 37 43 4 -1
BITMAP
0001FF0000
000FFFF000
003FFFFC00
00FFFFFE00
01FFFFFF80
03FFFFFF80
07FFFFFFC0
0FFFFFFFE0
0FFFFFFFF0
1FFF00FFF0
1FFC007FF0
3FF8003FF8
3FF8003FF8
7FF0001FF8
7FF0001FF8
7FF0001FF8
7FE0000000
7FE0000000
7FE0000000
FFE0000000
FFE0000000
FFE0000000
FFE0000000
FFE0000000
7FE0000000
7FE0000000
7FE0000000
7FF0000000
7FF0001FF8
7FF0001FF8
3FF8001FF8
3FF8003FF8
1FFC007FF8
1FFF00FFF0
0FFFFFFFF0
0FFFFFFFE0
07FFFFFFC0
03FFFFFF80
01FFFFFF00
00FFFFFE00
003FFFFC00
000FFFE000
0001FF0000
ENDCHAR
STARTCHAR d
ENCODING 100
SWIDTH 600 0
DWIDTH 47 0
BBX 37 59 4 -1
BITMAP
0000003FF8
0000003FF8
0000003FF8
0000003FF8
0000003FF8
0000003FF8
0000003FF8
0000003FF8
0000003FF8
0000003FF8
0000003FF8
0000003FF8
0000003FF8
0000003FF8
0000003FF8
0000003FF8
000FF03FF8
003FFE3FF8
00FFFF3FF8
01FFFFFFF8
03FFFFFFF8
07FFFFFFF8
0FFFFFFFF8
1FFFFFFFF8
1FFFFFFFF8
3FFE01FFF8
3FFC007FF8
3FF8003FF8
7FF8003FF8
7FF0003FF8
7FF0003FF8
7FE0003FF8
7FE0003FF8
FFE0003FF8
FFE0003FF8
FFE0003FF8
FFE0003FF8
FFE0003FF8
FFE0003FF8
FFE0003FF8
FFE0003FF8
FFE0003FF8
7FE0003FF8
7FE0003FF8
7FF0003FF8
7FF0003FF8
7FF8003FF8
3FF8003FF8
3FFC007FF8
3FFE01FFF8
1FFFFFFFF8
0FFFFFFFF8
0FFFFFFFF8
07FFFFFFF8
03FFFFFFF8
01FFFFDFF8
00FFFF1FF8
003FFE0FF8
000FF00000
ENDCHAR
STARTCHAR e
ENCODING 101
SWIDTH 600 0
DWIDTH 47 0
BBX 39 43 4 -1
BITMAP
0000FF8000
000FFFF000
003FFFFC00
007FFFFF00
01FFFFFF80
03FFFFFFC0
07FFFFFFE0
07FFFFFFE0
0FFFFFFFF0
1FFF00FFF8
1FFE003FF8
3FFC001FF8
3FF8001FFC
7FF8000FFC
7FF0000FFC
7FF0000FFE
7FF00007FE
7FE00007FE
FFFFFFFFFE
FFFFFFFFFE
FFFFFFFFFE
FFFFFFFFFE
FFFFFFFFFE
FFFFFFFFFE
FFFFFFFFFE
FFE0000000
7FE0000000
7FF0000000
7FF0000000
7FF8000000
3FF80000C0
3FFC0001C0
1FFE0003E0
1FFF801FF0
0FFFFFFFF8
07FFFFFFFC
07FFFFFFF8
03FFFFFFF0
00FFFFFFE0
007FFFFFC0
001FFFFF00
0007FFFC00
0000FFC000
ENDCHAR
STARTCHAR f
ENCODING 102
SWIDTH 600 0
DWIDTH 47 0
BBX 39 60 5 0
BITMAP
000000FFE0
00000FFFFE
00003FFFFE
00007FFFFE
0001FFFFFE
0003FFFFFE
0003FFFFFE
0007FFFFFC
000FFFFFFC
000FFF8000
000FFF0000
001FFE0000
001FFC0000
001FFC0000
001FF80000
001FF80000
001FF80000
001FF80000
001FF80000
FFFFFFFFF0
FFFFFFFFF0
FFFFFFFFF0
FFFFFFFFF0
FFFFFFFFF0
FFFFFFFFF0
FFFFFFFFF0
FFFFFFFFF0
001FF80000
001FF80000
001FF80000
001FF80000
001FF80000
001FF80000
001FF80000
001FF80000
001FF80000
001FF80000
001FF80000
001FF80000
001FF80000
001FF80000
001FF80000
001FF80000
001FF80000
001FF80000
001FF80000
001FF80000
001FF80000
001FF80000
001FF80000
001FF80000
001FF80000
001FF80000
001FF80000
001FF80000
001FF80000
001FF80000
001FF80000
001FF80000
001FF80000
ENDCHAR
STARTCHAR g
ENCODING 103
SWIDTH 600 0
DWIDTH 47 0
BBX 38 58 4 -16
BITMAP
0007F80000
003FFF0FFC
00FFFF8FFC
01FFFFCFFC
03FFFFEFFC
07FFFFFFFC
0FFFFFFFFC
0FFFFFFFFC
1FFFFFFFFC
1FFF00FFFC
3FFC007FFC
3FFC003FFC
7FF8001FFC
7FF0001FFC
7FF0001FFC
7FF0001FFC
7FE0001FFC
FFE0001FFC
FFE0001FFC
FFE0001FFC
FFE0001FFC
FFE0001FFC
FFE0001FFC
FFE0001FFC
FFE0001FFC
FFE0001FFC
7FE0001FFC
7FF0001FFC
7FF0001FFC
7FF0001FFC
7FF8001FFC
3FF8003FFC
3FFC007FFC
1FFF00FFFC
1FFFFFFFFC
0FFFFFFFFC
0FFFFFFFFC
07FFFFFFFC
03FFFFFFFC
01FFFFDFFC
00FFFF9FFC
003FFE1FFC
0007F81FFC
0000001FFC
0000003FF8
0100003FF8
0180007FF8
03C000FFF0
07F001FFF0
0FFFFFFFF0
1FFFFFFFE0
1FFFFFFFC0
0FFFFFFF80
07FFFFFF00
03FFFFFE00
00FFFFF800
003FFFE000
0003FE0000
ENDCHAR
STARTCHAR h
ENCODING 104
SWIDTH 600 0
DWIDTH 47 0
BBX 37 58 5 0
BITMAP
FFE0000000
FFE0000000
FFE0000000
FFE0000000
FFE0000000
FFE0000000
FFE0000000
FFE0000000
FFE0000000
FFE0000000
FFE0000000
FFE0000000
FFE0000000
FFE0000000
FFE0000000
FFE0000000
FFE01FE000
FFE0FFFC00
FFE1FFFE00
FFE7FFFF80
FFEFFFFFC0
FFEFFFFFC0
FFFFFFFFE0
FFFFFFFFE0
FFFFFFFFF0
FFFC01FFF0
FFF8007FF8
FFF0007FF8
FFE0003FF8
FFE0003FF8
FFE0003FF8
FFE0001FF8
FFE0001FF8
FFE0001FF8
FFE0001FF8
FFE0001FF8
FFE0001FF8
FFE0001FF8
FFE0001FF8
FFE0001FF8
FFE0001FF8
FFE0001FF8
FFE0001FF8
FFE0001FF8
FFE0001FF8
FFE0001FF8
FFE0001FF8
FFE0001FF8
FFE0001FF8
FFE0001FF8
FFE0001FF8
FFE0001FF8
FFE0001FF8
FFE0001FF8
FFE0001FF8
FFE0001FF8
FFE0001FF8
FFE0001FF8
ENDCHAR
STARTCHAR i
ENCODING 105
SWIDTH 600 0
DWIDTH 47 0
BBX 34 58 8 0
BITMAP
0001F00000
0007FC0000
000FFE0000
001FFE0000
001FFE0000
001FFE0000
001FFE0000
001FFE0000
000FFE0000
0007FC0000
0001F00000
0000000000
0000000000
0000000000
0000000000
0000000000
0000000000
FFFFFE0000
FFFFFE0000
FFFFFE0000
FFFFFE0000
FFFFFE0000
FFFFFE0000
FFFFFE0000
FFFFFE0000
FFFFFE0000
000FFE0000
000FFE0000
000FFE0000
000FFE0000
000FFE0000
000FFE0000
000FFE0000
000FFE0000
000FFE0000
000FFE0000
000FFE0000
000FFE0000
000FFE0000
000FFE0000
000FFE0000
000FFE0000
000FFE0000
000FFE0000
000FFE0000
000FFE0000
000FFE0000
000FFE0000
000FFE0000
FFFFFFFFC0
FFFFFFFFC0
FFFFFFFFC0
FFFFFFFFC0
FFFFFFFFC0
FFFFFFFFC0
FFFFFFFFC0
FFFFFFFFC0
FFFFFFFFC0
ENDCHAR
STARTCHAR j
ENCODING 106
SWIDTH 600 0
DWIDTH 47 0
BBX 26 75 8 -17
BITMAP
00007C00
0001FF00
0003FF80
0003FF80
0007FF80
0007FFC0
0007FF80
0003FF80
0003FF80
0001FF00
00007C00
00000000
00000000
00000000
00000000
00000000
00000000
0FFFFF80
0FFFFF80
0FFFFF80
0FFFFF80
0FFFFF80
0FFFFF80
0FFFFF80
0FFFFF80
0FFFFF80
0003FF80
0003FF80
0003FF80
0003FF80
0003FF80
0003FF80
0003FF80
0003FF80
0003FF80
0003FF80
0003FF80
0003FF80
0003FF80
0003FF80
0003FF80
0003FF80
0003FF80
0003FF80
0003FF80
0003FF80
0003FF80
0003FF80
0003FF80
0003FF80
0003FF80
0003FF80
0003FF80
0003FF80
0003FF80
0003FF80
0003FF80
0003FF80
0003FF80
0003FF80
0003FF80
0003FF80
0003FF80
0007FF00
000FFF00
001FFF00
7FFFFF00
7FFFFE00
7FFFFE00
7FFFFC00
7FFFF800
7FFFF000
7FFFC000
7FFF0000
FFF80000
ENDCHAR
STARTCHAR k
ENCODING 107
SWIDTH 600 0
DWIDTH 47 0
BBX 41 58 5 0
BITMAP
FFE000000000
FFE000000000
FFE000000000
FFE000000000
FFE000000000
FFE000000000
FFE000000000
FFE000000000
FFE000000000
FFE000000000
FFE000000000
FFE000000000
FFE000000000
FFE000000000
FFE000000000
FFE000000000
FFE000000000
FFE0007FFC00
FFE000FFF800
FFE001FFF000
FFE003FFE000
FFE003FFC000
FFE007FF8000
FFE00FFF8000
FFE01FFF0000
FFE03FFE0000
FFE07FFC0000
FFE0FFF80000
FFE1FFF00000
FFE3FFE00000
FFE7FFC00000
FFE7FF800000
FFEFFF000000
FFFFFF000000
FFFFFE000000
FFFFFF000000
FFFFFF000000
FFFFFF800000
FFFFFFC00000
FFFFFFE00000
FFFFFFE00000
FFFFFFF00000
FFFC7FF80000
FFF87FFC0000
FFF03FFC0000
FFE01FFE0000
FFE00FFF0000
FFE00FFF8000
FFE007FF8000
FFE003FFC000
FFE003FFE000
FFE001FFF000
FFE000FFF000
FFE000FFF800
FFE0007FFC00
FFE0003FFE00
FFE0001FFE00
FFE0001FFF80
ENDCHAR
STARTCHAR l
ENCODING 108
SWIDTH 600 0
DWIDTH 47 0
BBX 34 58 8 0
BITMAP
FFFFFE0000
FFFFFE0000
FFFFFE0000
FFFFFE0000
FFFFFE0000
FFFFFE0000
FFFFFE0000
FFFFFE0000
FFFFFE0000
000FFE0000
000FFE0000
000FFE0000
000FFE0000
000FFE0000
000FFE0000
000FFE0000
000FFE0000
000FFE0000
000FFE0000
000FFE0000
000FFE0000
000FFE0000
000FFE0000
000FFE0000
000FFE0000
000FFE0000
000FFE0000
000FFE0000
000FFE0000
000FFE0000
000FFE0000
000FFE0000
000FFE0000
000FFE0000
000FFE0000
000FFE0000
000FFE0000
000FFE0000
000FFE0000
000FFE0000
000FFE0000
000FFE0000
000FFE0000
000FFE0000
000FFE0000
000FFE0000
000FFE0000
000FFE0000
000FFE0000
FFFFFFFFC0
FFFFFFFFC0
FFFFFFFFC0
FFFFFFFFC0
FFFFFFFFC0
FFFFFFFFC0
FFFFFFFFC0
FFFFFFFFC0
FFFFFFFFC0
ENDCHAR
STARTCHAR m
ENCODING 109
SWIDTH 600 0
DWIDTH 47 0
BBX 41 42 3 0
BITMAP
0001F007E000
FF87FC1FF800
FF9FFE3FFC00
FF9FFF7FFC00
FFBFFFFFFE00
FFFFFFFFFE00
FFFFFFFFFF00
FFFFFFFFFF00
FFFFFFFFFF00
FFE1FFC3FF00
FFC1FF81FF00
FFC1FF81FF80
FFC0FF81FF80
FFC0FF81FF80
FFC0FF81FF80
FFC0FF81FF80
FFC0FF81FF80
FFC0FF81FF80
FFC0FF81FF80
FFC0FF81FF80
FFC0FF81FF80
FFC0FF81FF80
FFC0FF81FF80
FFC0FF81FF80
FFC0FF81FF80
FFC0FF81FF80
FFC0FF81FF80
FFC0FF81FF80
FFC0FF81FF80
FFC0FF81FF80
FFC0FF81FF80
FFC0FF81FF80
FFC0FF81FF80
FFC0FF81FF80
FFC0FF81FF80
FFC0FF81FF80
FFC0FF81FF80
FFC0FF81FF80
FFC0FF81FF80
FFC0FF81FF80
FFC0FF81FF80
FFC0FF81FF80
ENDCHAR
STARTCHAR n
ENCODING 110
SWIDTH 600 0
DWIDTH 47 0
BBX 37 42 5 0
BITMAP
00001FE000
FFC0FFFC00
FFC1FFFF00
FFC7FFFF80
FFCFFFFFC0
FFDFFFFFC0
FFFFFFFFE0
FFFFFFFFF0
FFFFFFFFF0
FFFC01FFF0
FFF8007FF8
FFF0007FF8
FFE0003FF8
FFE0003FF8
FFE0003FF8
FFE0001FF8
FFE0001FF8
FFE0001FF8
FFE0001FF8
FFE0001FF8
FFE0001FF8
FFE0001FF8
FFE0001FF8
FFE0001FF8
FFE0001FF8
FFE0001FF8
FFE0001FF8
FFE0001FF8
FFE0001FF8
FFE0001FF8
FFE0001FF8
FFE0001FF8
FFE0001FF8
FFE0001FF8
FFE0001FF8
FFE0001FF8
FFE0001FF8
FFE0001FF8
FFE0001FF8
FFE0001FF8
FFE0001FF8
FFE0001FF8
ENDCHAR
STARTCHAR o
ENCODING 111
SWIDTH 600 0
DWIDTH 47 0
BBX 39 43 4 -1
BITMAP
0001FF0000
001FFFE000
007FFFF800
00FFFFFE00
01FFFFFF00
03FFFFFF80
07FFFFFFC0
0FFFFFFFE0
1FFFFFFFF0
1FFE01FFF0
3FFC007FF8
3FF8003FF8
7FF0003FF8
7FF0001FFC
7FE0001FFC
FFE0001FFC
FFE0000FFC
FFE0000FFE
FFE0000FFE
FFE0000FFE
FFE0000FFE
FFE0000FFE
FFE0000FFE
FFE0000FFE
FFE0000FFE
FFE0000FFE
FFE0000FFC
FFE0001FFC
7FE0001FFC
7FF0001FFC
7FF0003FF8
3FF8003FF8
3FFC007FF8
1FFE01FFF0
1FFFFFFFF0
0FFFFFFFE0
07FFFFFFC0
07FFFFFF80
03FFFFFF00
00FFFFFE00
007FFFF800
001FFFE000
0001FF0000
ENDCHAR
STARTCHAR p
ENCODING 112
SWIDTH 600 0
DWIDTH 47 0
BBX 36 58 6 -16
BITMAP
0000FF0000
FF83FFE000
FF8FFFF800
FFDFFFFC00
FFFFFFFE00
FFFFFFFF00
FFFFFFFF80
FFFFFFFF80
FFFFFFFFC0
FFF807FFC0
FFF001FFE0
FFE001FFE0
FFC000FFE0
FFC000FFF0
FFC0007FF0
FFC0007FF0
FFC0007FF0
FFC0003FF0
FFC0003FF0
FFC0003FF0
FFC0003FF0
FFC0003FF0
FFC0003FF0
FFC0003FF0
FFC0003FF0
FFC0003FF0
FFC0007FF0
FFC0007FF0
FFC0007FF0
FFC000FFF0
FFC000FFE0
FFE001FFE0
FFF001FFE0
FFF807FFC0
FFFFFFFFC0
FFFFFFFF80
FFFFFFFF80
FFFFFFFF00
FFFFFFFE00
FFDFFFFC00
FFCFFFF800
FFC3FFE000
FFC0FF0000
FFC0000000
FFC0000000
FFC0000000
FFC0000000
FFC0000000
FFC0000000
FFC0000000
FFC0000000
FFC0000000
FFC0000000
FFC0000000
FFC0000000
FFC0000000
FFC0000000
FFC0000000
ENDCHAR
STARTCHAR q
ENCODING 113
SWIDTH 600 0
DWIDTH 47 0
BBX 37 58 4 -16
BITMAP
000FF00000
003FFE0FF8
00FFFF8FF8
01FFFFDFF8
03FFFFFFF8
07FFFFFFF8
0FFFFFFFF8
1FFFFFFFF8
1FFFFFFFF8
3FFE01FFF8
3FFC007FF8
3FF8003FF8
7FF8003FF8
7FF0001FF8
7FF0001FF8
7FF0001FF8
7FE0001FF8
FFE0001FF8
FFE0001FF8
FFE0001FF8
FFE0001FF8
FFE0001FF8
FFE0001FF8
FFE0001FF8
FFE0001FF8
FFE0001FF8
7FE0001FF8
7FF0001FF8
7FF0001FF8
7FF0001FF8
7FF8003FF8
3FF8003FF8
3FFC007FF8
3FFE01FFF8
1FFFFFFFF8
0FFFFFFFF8
0FFFFFFFF8
07FFFFFFF8
03FFFFFFF8
01FFFFDFF8
00FFFF9FF8
003FFE1FF8
000FF01FF8
0000001FF8
0000001FF8
0000001FF8
0000001FF8
0000001FF8
0000001FF8
0000001FF8
0000001FF8
0000001FF8
0000001FF8
0000001FF8
0000001FF8
0000001FF8
0000001FF8
0000001FF8
ENDCHAR
STARTCHAR r
ENCODING 114
SWIDTH 600 0
DWIDTH 47 0
BBX 32 42 11 0
BITMAP
00000FF8
FFC07FFF
FFC0FFFF
FFC3FFFE
FFC7FFFE
FFCFFFFE
FFDFFFFE
FFDFFFFE
FFFFFFFE
FFFFFFFE
FFFFFFFC
FFFF801C
FFFE0000
FFF80000
FFF00000
FFF00000
FFE00000
FFE00000
FFE00000
FFE00000
FFE00000
FFE00000
FFE00000
FFE00000
FFE00000
FFE00000
FFE00000
FFE00000
FFE00000
FFE00000
FFE00000
FFE00000
FFE00000
FFE00000
FFE00000
FFE00000
FFE00000
FFE00000
FFE00000
FFE00000
FFE00000
FFE00000
ENDCHAR
STARTCHAR s
ENCODING 115
SWIDTH 600 0
DWIDTH 47 0
BBX 37 43 5 -1
BITMAP
0007FF0000
003FFFF000
00FFFFFC00
03FFFFFF00
07FFFFFF80
0FFFFFFFC0
1FFFFFFFE0
3FFFFFFFE0
3FFE03FFF0
7FF800FFF0
7FF0007FF8
7FE0003FF8
7FE0003FF8
7FE0003FF8
7FF0000000
7FF8000000
3FFE000000
3FFFE00000
1FFFFF0000
0FFFFFE000
07FFFFFC00
03FFFFFF00
00FFFFFF80
001FFFFFC0
0003FFFFE0
00003FFFF0
000003FFF0
0000007FF8
0000003FF8
FFC0001FF8
FFC0001FF8
FFE0001FF8
FFE0003FF8
7FF8007FF8
7FFE01FFF0
3FFFFFFFF0
3FFFFFFFE0
1FFFFFFFC0
0FFFFFFF80
03FFFFFF00
00FFFFFC00
003FFFF000
0007FF0000
ENDCHAR
STARTCHAR t
ENCODING 116
SWIDTH 600 0
DWIDTH 47 0
BBX 37 52 5 -1
BITMAP
007FF00000
007FF00000
007FF00000
007FF00000
007FF00000
007FF00000
007FF00000
007FF00000
007FF00000
007FF00000
FFFFFFFFE0
FFFFFFFFE0
FFFFFFFFE0
FFFFFFFFE0
FFFFFFFFE0
FFFFFFFFE0
FFFFFFFFE0
FFFFFFFFE0
007FF00000
007FF00000
007FF00000
007FF00000
007FF00000
007FF00000
007FF00000
007FF00000
007FF00000
007FF00000
007FF00000
007FF00000
007FF00000
007FF00000
007FF00000
007FF00000
007FF00000
007FF00000
007FF00000
007FF00000
007FF00000
007FF00000
007FF80000
003FF80000
003FFE0010
003FFFFFF0
001FFFFFF0
001FFFFFF0
000FFFFFF8
000FFFFFF8
0007FFFFF8
0001FFFFF8
0000FFFFE0
00001FFC00
ENDCHAR
STARTCHAR u
ENCODING 117
SWIDTH 600 0
DWIDTH 47 0
BBX 36 42 6 -1
BITMAP
FFC0007FF0
FFC0007FF0
FFC0007FF0
FFC0007FF0
FFC0007FF0
FFC0007FF0
FFC0007FF0
FFC0007FF0
FFC0007FF0
FFC0007FF0
FFC0007FF0
FFC0007FF0
FFC0007FF0
FFC0007FF0
FFC0007FF0
FFC0007FF0
FFC0007FF0
FFC0007FF0
FFC0007FF0
FFC0007FF0
FFC0007FF0
FFC0007FF0
FFC0007FF0
FFC0007FF0
FFC0007FF0
FFC0007FF0
FFC0007FF0
FFC0007FF0
FFE0007FF0
FFE0007FF0
FFE000FFF0
7FF001FFF0
7FF803FFF0
7FFFFFFFF0
3FFFFFFFF0
3FFFFFBFF0
1FFFFFBFF0
1FFFFF3FF0
0FFFFE3FF0
07FFFC3FF0
01FFF03FF0
003FC00000
ENDCHAR
STARTCHAR v
ENCODING 118
SWIDTH 600 0
DWIDTH 47 0
BBX 41 41 3 0
BITMAP
FFE00003FF80
FFE00003FF80
7FF00007FF00
7FF00007FF00
7FF00007FE00
3FF8000FFE00
3FF8000FFE00
1FF8000FFC00
1FF8001FFC00
1FFC001FF800
0FFC001FF800
0FFC003FF800
07FE003FF000
07FE003FF000
07FE007FF000
03FF007FE000
03FF007FE000
03FF007FC000
01FF80FFC000
01FF80FFC000
00FF80FF8000
00FFC1FF8000
00FFC1FF0000
007FC1FF0000
007FC3FF0000
003FE3FE0000
003FE3FE0000
003FE7FE0000
001FF7FC0000
001FF7FC0000
001FF7F80000
000FFFF80000
000FFFF80000
0007FFF00000
0007FFF00000
0007FFF00000
0003FFE00000
0003FFE00000
0001FFC00000
0001FFC00000
0001FFC00000
ENDCHAR
STARTCHAR w
ENCODING 119
SWIDTH 600 0
DWIDTH 47 0
BBX 44 41 1 0
BITMAP
FFC03FC03FF0
FFC03FC03FF0
FFC03FC03FF0
7FC03FC03FE0
7FC03FC03FE0
7FC07FE03FE0
7FE07FE07FE0
7FE07FE07FE0
3FE07FE07FC0
3FE07FE07FC0
3FE07FE07FC0
3FE0FFF07FC0
3FE0FFF07FC0
3FE0FFF07FC0
1FF0FFF0FF80
1FF0FFF0FF80
1FF1FFF8FF80
1FF1FBF8FF80
1FF1F9F8FF80
0FF1F9F8FF80
0FF1F9F8FF00
0FF1F9F8FF00
0FFBF1FDFF00
0FFBF0FDFF00
0FFBF0FDFF00
07FBF0FDFE00
07FBF0FDFE00
07FFE07FFE00
07FFE07FFE00
07FFE07FFE00
03FFE07FFE00
03FFE07FFC00
03FFC03FFC00
03FFC03FFC00
03FFC03FFC00
03FFC03FFC00
01FFC03FF800
01FF801FF800
01FF801FF800
01FF801FF800
01FF801FF800
ENDCHAR
STARTCHAR x
ENCODING 120
SWIDTH 600 0
DWIDTH 47 0
BBX 42 41 3 0
BITMAP
7FF80003FFC0
3FF80007FF80
1FFC0007FF00
1FFE000FFE00
0FFE001FFE00
07FF003FFC00
07FF803FF800
03FFC07FF800
01FFC0FFF000
01FFE0FFE000
00FFF1FFE000
007FF3FFC000
007FFFFF8000
003FFFFF8000
001FFFFF0000
001FFFFE0000
000FFFFC0000
0007FFFC0000
0007FFF80000
0003FFF00000
0001FFF00000
0003FFF80000
0007FFF80000
000FFFFC0000
000FFFFE0000
001FFFFE0000
003FFFFF0000
003FFFFF8000
007FFBFFC000
00FFF1FFC000
00FFE1FFE000
01FFE0FFF000
03FFC07FF000
03FF807FF800
07FF003FFC00
0FFF001FFC00
1FFE000FFE00
1FFC000FFF00
3FFC0007FF00
7FF80003FF80
FFF00003FFC0
ENDCHAR
STARTCHAR y
ENCODING 121
SWIDTH 600 0
DWIDTH 47 0
BBX 45 58 2 -17
BITMAP
FFF000007FF8
7FF000007FF0
7FF80000FFF0
3FF80000FFE0
3FF80001FFE0
3FFC0001FFC0
1FFC0001FFC0
1FFC0003FFC0
0FFE0003FF80
0FFE0007FF80
07FF0007FF00
07FF0007FF00
07FF000FFE00
03FF800FFE00
03FF800FFC00
01FFC01FFC00
01FFC01FFC00
00FFC03FF800
00FFE03FF800
007FE03FF000
007FE07FF000
007FF07FE000
003FF07FE000
003FF8FFC000
001FF8FFC000
001FF9FFC000
000FFDFF8000
000FFDFF8000
000FFFFF0000
0007FFFF0000
0007FFFE0000
0003FFFE0000
0003FFFE0000
0001FFFC0000
0001FFFC0000
0000FFF80000
0000FFF80000
0000FFF00000
00007FF00000
00007FE00000
00007FE00000
00007FE00000
0000FFC00000
0001FFC00000
0001FF800000
0003FF800000
0003FF000000
0007FF000000
000FFE000000
03FFFE000000
03FFFC000000
03FFFC000000
03FFF8000000
07FFF0000000
07FFE0000000
07FFC0000000
07FF00000000
03FC00000000
ENDCHAR
STARTCHAR z
ENCODING 122
SWIDTH 600 0
DWIDTH 47 0
BBX 39 41 4 0
BITMAP
7FFFFFFFFC
7FFFFFFFFC
7FFFFFFFFC
7FFFFFFFFC
7FFFFFFFFC
7FFFFFFFFC
7FFFFFFFFC
7FFFFFFFF8
7FFFFFFFF0
000001FFE0
000003FFE0
000007FFC0
00000FFF80
00001FFF00
00003FFE00
00007FFC00
0000FFF800
0000FFF000
0001FFE000
0003FFE000
0007FFC000
000FFF8000
001FFF0000
003FFE0000
007FFC0000
00FFF80000
00FFF00000
01FFE00000
03FFE00000
07FFC00000
0FFF800000
1FFF000000
3FFFFFFFFE
7FFFFFFFFE
FFFFFFFFFE
FFFFFFFFFE
FFFFFFFFFE
FFFFFFFFFE
FFFFFFFFFE
FFFFFFFFFE
FFFFFFFFFE
ENDCHAR
STARTCHAR braceleft
ENCODING 123
SWIDTH 600 0
DWIDTH 47 0
BBX 25 75 12 -14
BITMAP
00000F00
00007F00
0000FF00
0001FF80
0003FF80
0007FF80
000FFC00
000FF800
001FF000
001FF000
003FF000
003FE000
003FE000
003FE000
003FE000
007FE000
007FE000
007FE000
007FE000
007FE000
007FE000
007FE000
007FE000
007FE000
007FE000
007FE000
007FE000
007FE000
007FC000
00FFC000
00FFC000
01FF8000
03FF8000
0FFF0000
FFFE0000
FFFC0000
FFF80000
FFE00000
FFE00000
FFF80000
FFFC0000
FFFE0000
0FFF0000
03FF8000
01FF8000
00FFC000
00FFC000
007FC000
007FE000
007FE000
007FE000
007FE000
007FE000
007FE000
007FE000
007FE000
007FE000
007FE000
007FE000
007FE000
003FE000
003FE000
003FE000
003FF000
003FF000
001FF000
001FF800
000FFC00
000FFE00
0007FF80
0003FF80
0001FF80
0000FF00
00003F00
00000F00
ENDCHAR
STARTCHAR bar
ENCODING 124
SWIDTH 600 0
DWIDTH 47 0
BBX 7 71 20 -16
BITMAP
FE
FE
FE
FE
FE
FE
FE
FE
FE
FE
FE
FE
FE
FE
FE
FE
FE
FE
FE
FE
FE
FE
FE
FE
FE
FE
FE
FE
FE
FE
FE
FE
FE
FE
FE
FE
FE
FE
FE
FE
FE
FE
FE
FE
FE
FE
FE
FE
FE
FE
FE
FE
FE
FE
FE
FE
FE
FE
FE
FE
FE
FE
FE
FE
FE
FE
FE
FE
FE
FE
FE
ENDCHAR
STARTCHAR braceright
ENCODING 125
SWIDTH 600 0
DWIDTH 47 0
BBX 25 75 13 -14
BITMAP
78000000
7E000000
FF800000
FFC00000
FFE00000
FFF00000
3FF80000
0FF80000
0FFC0000
07FC0000
07FC0000
07FE0000
03FE0000
03FE0000
03FE0000
03FE0000
03FE0000
03FE0000
03FE0000
03FE0000
03FE0000
03FE0000
03FE0000
03FE0000
03FE0000
03FE0000
03FF0000
03FF0000
03FF0000
01FF0000
01FF8000
01FF8000
00FFE000
007FF800
007FFF80
003FFF80
000FFF80
0007FF80
0007FF80
000FFF80
003FFF80
007FFF80
007FF800
00FFE000
01FF8000
01FF8000
03FF0000
03FF0000
03FF0000
03FE0000
03FE0000
03FE0000
03FE0000
03FE0000
03FE0000
03FE0000
03FE0000
03FE0000
03FE0000
03FE0000
03FE0000
03FE0000
07FE0000
07FE0000
07FC0000
0FFC0000
0FF80000
1FF80000
3FF00000
FFF00000
FFE00000
FFC00000
FF800000
7E000000
78000000
ENDCHAR
STARTCHAR asciitilde
ENCODING 126
SWIDTH 600 0
DWIDTH 47 0
BBX 43 17 1 14
BITMAP
00FE00000000
03FFC0000000
07FFF0001E00
0FFFF8001FE0
1FFFFE001FE0
3FFFFF001FC0
3FFFFF803FC0
7FFFFFE07FC0
7FFFFFFFFFC0
FF80FFFFFF80
FF007FFFFF80
FF001FFFFF00
FE000FFFFF00
FE0007FFFE00
0E0001FFFC00
000000FFF000
0000001FC000
ENDCHAR
STARTCHAR nonbreakingspace
ENCODING 160
SWIDTH 600 0
DWIDTH 47 0
BBX 1 1 0 0
BITMAP
00
ENDCHAR
STARTCHAR exclamdown
ENCODING 161
SWIDTH 600 0
DWIDTH 47 0
BBX 13 57 18 -15
BITMAP
0F80
3FE0
7FF0
7FF0
7FF8
FFF8
FFF8
FFF8
7FF0
7FF0
3FE0
0F80
0000
0000
0000
0000
0000
0000
0000
0000
0000
3FE0
3FE0
3FE0
3FE0
7FE0
7FE0
7FE0
7FE0
7FE0
7FE0
7FE0
7FE0
7FE0
7FE0
7FE0
7FE0
7FF0
7FF0
7FF0
7FF0
7FF0
7FF0
7FF0
7FF0
7FF0
7FF0
7FF0
7FF0
7FF0
7FF0
7FF0
7FF0
7FF0
7FF0
7FF0
7FF0
ENDCHAR
STARTCHAR cent
ENCODING 162
SWIDTH 600 0
DWIDTH 47 0
BBX 37 60 5 -9
BITMAP
0000FE0000
0000FE0000
0000FE0000
0000FE0000
0000FE0000
0000FE0000
0000FE0000
0000FE0000
0000FE0000
0007FFC000
003FFFF800
007FFFFE00
01FFFFFF00
03FFFFFF80
07FFFFFFC0
07FFFFFFE0
0FFFFFFFE0
1FFF03FFF0
1FFE00FFF0
3FFC007FF0
3FF8003FF8
3FF0001FF8
7FF0001FF8
7FF0001FF8
7FE0001FF8
7FE0000000
7FE0000000
FFE0000000
FFE0000000
FFE0000000
FFE0000000
FFE0000000
FFE0000000
7FE0000000
7FE0000000
7FE0000000
7FF0000000
7FF0001FF8
3FF0001FF8
3FF8003FF8
3FFC003FF8
1FFE007FF0
1FFF81FFF0
0FFFFFFFE0
07FFFFFFE0
07FFFFFFC0
03FFFFFF80
01FFFFFF00
007FFFFC00
001FFFF800
0007FFC000
0000FE0000
0000FE0000
0000FE0000
0000FE0000
0000FE0000
0000FE0000
0000FE0000
0000FE0000
0000FE0000
ENDCHAR
STARTCHAR sterling
ENCODING 163
SWIDTH 600 0
DWIDTH 47 0
BBX 41 56 4 0
BITMAP
00001FF00000
0001FFFF0000
0007FFFFC000
000FFFFFE000
001FFFFFF000
003FFFFFF800
007FFFFFFC00
00FFFFFFFC00
00FFFFFFFE00
01FFF01FFE00
01FFE00FFF00
01FFC007FF00
03FF8003FF00
03FF8003FF00
03FF8003FF00
03FF80000000
03FF80000000
03FF80000000
03FF80000000
03FF80000000
03FF80000000
03FF80000000
03FF80000000
03FF80000000
03FF80000000
FFFFFFF80000
FFFFFFF80000
FFFFFFF80000
FFFFFFF80000
FFFFFFF80000
FFFFFFF80000
FFFFFFF80000
FFFFFFF80000
FFFFFFF80000
01FF80000000
01FF80000000
01FF80000000
01FF80000000
01FFC0000000
01FFC0000000
01FFC0000000
01FF80000000
01FF80000000
03FF80000000
03FF80000000
03FF00000000
07FF00000000
FFFFFFFFFF80
FFFFFFFFFF80
FFFFFFFFFF80
FFFFFFFFFF80
FFFFFFFFFF80
FFFFFFFFFF80
FFFFFFFFFF80
FFFFFFFFFF80
FFFFFFFFFF80
ENDCHAR
STARTCHAR currency
ENCODING 164
SWIDTH 600 0
DWIDTH 47 0
BBX 41 41 3 -1
BITMAP
040000001000
0E00FF803800
1F07FFF07C00
3F9FFFFCFE00
7FFFFFFFFF00
FFFFFFFFFF80
7FFFFFFFFF00
3FFFFFFFFE00
1FFF80FFFC00
0FFE003FF800
0FF8001FF000
0FF0000FF800
1FE00007F800
1FE00003FC00
3FC00001FC00
3FC00001FC00
3F800001FE00
3F800000FE00
3F800000FE00
3F800000FE00
7F800000FE00
7F800000FE00
3F800000FE00
3F800000FE00
3F800000FE00
3F800001FE00
3FC00001FE00
3FC00001FC00
1FE00003FC00
1FE00007FC00
0FF0000FF800
0FF8001FF800
0FFE003FF800
1FFF80FFFC00
3FFFFFFFFE00
FFFFFFFFFF80
7FFFFFFFFF00
3FFFFFFEFE00
1F1FFFFC7C00
0E07FFF03800
0400FF801000
ENDCHAR
STARTCHAR yen
ENCODING 165
SWIDTH 600 0
DWIDTH 47 0
BBX 46 55 1 0
BITMAP
FFF000003FFC
7FF000007FF8
7FF800007FF0
3FF80000FFF0
3FFC0000FFE0
1FFC0001FFE0
1FFE0001FFC0
0FFE0003FFC0
0FFF0003FF80
07FF0007FF80
07FF8007FF00
03FF800FFE00
01FFC00FFE00
01FFC01FFC00
00FFC01FFC00
00FFE01FF800
007FE03FF800
007FF03FF000
003FF07FF000
003FF87FE000
001FF8FFE000
001FFCFFC000
000FFDFF8000
0007FFFF8000
0007FFFF0000
0003FFFF0000
0003FFFE0000
0FFFFFFFFF80
0FFFFFFFFF80
0FFFFFFFFF80
0FFFFFFFFF80
0FFFFFFFFF80
0FFFFFFFFF80
00007FF00000
00007FF00000
00007FF00000
00007FF00000
00007FF00000
0FFFFFFFFF80
0FFFFFFFFF80
0FFFFFFFFF80
0FFFFFFFFF80
0FFFFFFFFF80
0FFFFFFFFF80
00007FF00000
00007FF00000
00007FF00000
00007FF00000
00007FF00000
00007FF00000
00007FF00000
00007FF00000
00007FF00000
00007FF00000
00007FF00000
ENDCHAR
STARTCHAR brokenbar
ENCODING 166
SWIDTH 600 0
DWIDTH 47 0
BBX 9 66 19 -11
BITMAP
FF80
FF80
FF80
FF80
FF80
FF80
FF80
FF80
FF80
FF80
FF80
FF80
FF80
FF80
FF80
FF80
FF80
FF80
FF80
FF80
FF80
FF80
FF80
FF80
FF80
FF80
FF80
FF80
FF80
0000
0000
0000
0000
0000
0000
0000
FF80
FF80
FF80
FF80
FF80
FF80
FF80
FF80
FF80
FF80
FF80
FF80
FF80
FF80
FF80
FF80
FF80
FF80
FF80
FF80
FF80
FF80
FF80
FF80
FF80
FF80
FF80
FF80
FF80
FF80
ENDCHAR
STARTCHAR section
ENCODING 167
SWIDTH 600 0
DWIDTH 47 0
BBX 42 73 3 -17
BITMAP
0001FFE00000
000FFFFE0000
007FFFFF8000
01FFFFFFE000
03FFFFFFF000
07FFFFFFF800
0FFFFFFFFC00
1FFFFFFFFC00
1FFFFFFFFE00
3FFF003FFF00
3FFC000FFF00
3FF80007FF00
3FF00007FF00
7FF00003FF80
7FF00003FF80
7FF00003FF80
3FF000000000
3FF800000000
3FFC00000000
3FFF00000000
1FFFC0000000
1FFFFC000000
0FFFFF800000
07FFFFF80000
07FFFFFE0000
03FFFFFFC000
07FFFFFFE000
0FFFFFFFF800
1FFFFFFFFC00
3FFDFFFFFE00
3FF03FFFFE00
7FF003FFFF00
7FE0007FFF80
7FE0001FFF80
FFE00007FF80
FFE00003FF80
FFE00001FF80
FFF00001FFC0
7FF00001FFC0
7FFC0001FF80
7FFE0001FF80
3FFFC001FF80
3FFFF803FF80
1FFFFF87FF00
0FFFFFFFFF00
07FFFFFFFE00
03FFFFFFFC00
00FFFFFFF000
003FFFFFF000
000FFFFFF800
0001FFFFFC00
00003FFFFE00
000003FFFE00
0000007FFF00
0000001FFF00
0000000FFF00
00000007FF00
FFE00003FF00
FFE00003FF00
FFE00003FF00
7FF00003FF00
7FF00007FF00
7FF8000FFF00
7FFE001FFF00
3FFFFFFFFE00
1FFFFFFFFE00
1FFFFFFFFC00
0FFFFFFFF800
07FFFFFFF000
01FFFFFFE000
00FFFFFF8000
001FFFFE0000
0001FFE00000
ENDCHAR
STARTCHAR dieresis
ENCODING 168
SWIDTH 600 0
DWIDTH 47 0
BBX 29 9 10 47
BITMAP
1F0007C0
7F800FF0
7FC01FF0
FFC03FF8
FFC03FF8
FFC03FF8
7FC01FF0
7F800FE0
1F0007C0
ENDCHAR
STARTCHAR copyright
ENCODING 169
SWIDTH 600 0
DWIDTH 47 0
BBX 41 43 3 -1
BITMAP
0000FF800000
0007FFF00000
001FFFFC0000
007FFFFF0000
00FF807F8000
01FC000FC000
03F00007E000
07C00001F000
0F800000F800
0F007F007C00
1E01FFC03C00
1E03FFF01E00
3C07FFF01E00
3C0FC1F80F00
781F80F80F00
781F007C0F00
781E007C0700
703E007C0780
703E00000780
F03E00000780
F03E00000780
F03E00000780
F03E00000780
F03E00000780
703E00000780
703E007C0780
781E007C0700
781F007C0F00
781F80F80F00
3C0FC1F80F00
3C07FFF01E00
1E07FFF03E00
1F01FFC03C00
0F007F007C00
0F800000F800
07E00001F000
03F00007E000
01FC000FC000
00FF807F8000
007FFFFF0000
001FFFFC0000
0007FFF00000
0000FF800000
ENDCHAR
STARTCHAR ordfeminine
ENCODING 170
SWIDTH 600 0
DWIDTH 47 0
BBX 26 30 10 26
BITMAP
003FC000
01FFF000
07FFFC00
0FFFFE00
1FFFFE00
1FFFFF00
3FE0FF00
3F807F80
3F803F80
0F803F80
00003F80
00003F80
00003F80
00FFFF80
07FFFF80
1FFFFF80
3FFFFF80
7FC03F80
7F003F80
7F003F80
FE003F80
FE003F80
FE007F80
7F00FF80
7F83FF80
7FFFFF80
3FFFFF80
1FFF9F80
0FFF1FC0
03F81FC0
ENDCHAR
STARTCHAR guillemotleft
ENCODING 171
SWIDTH 600 0
DWIDTH 47 0
BBX 32 30 7 4
BITMAP
003FC07F
003F80FE
007F01FE
00FF01FC
00FE03F8
01FC07F8
03FC07F0
07F80FF0
07F81FE0
0FF03FC0
1FE03FC0
3FE07F80
3FC0FF80
7F81FF00
FF81FE00
FF81FE00
7F81FF00
3FC0FF00
3FE07F80
1FE03FC0
0FF03FC0
07F81FE0
07F80FF0
03FC07F0
01FC07F8
00FE03F8
00FF01FC
007F01FE
003F80FE
003FC07F
ENDCHAR
STARTCHAR logicalnot
ENCODING 172
SWIDTH 600 0
DWIDTH 47 0
BBX 32 17 7 14
BITMAP
FFFFFFFF
FFFFFFFF
FFFFFFFF
FFFFFFFF
FFFFFFFF
FFFFFFFF
FFFFFFFF
000000FF
000000FF
000000FF
000000FF
000000FF
000000FF
000000FF
000000FF
000000FF
000000FF
ENDCHAR
STARTCHAR uni00AD
ENCODING 173
SWIDTH 600 0
DWIDTH 47 0
BBX 31 9 11 20
BITMAP
FFFFFFFE
FFFFFFFE
FFFFFFFE
FFFFFFFE
FFFFFFFE
FFFFFFFE
FFFFFFFE
FFFFFFFE
FFFFFFFE
ENDCHAR
STARTCHAR registered
ENCODING 174
SWIDTH 600 0
DWIDTH 47 0
BBX 41 43 3 -1
BITMAP
0000FF800000
0007FFF00000
001FFFFC0000
007FFFFF0000
00FF807F8000
01FC001FC000
03F00007E000
07C00001F000
0F800000F800
0F0FFF007800
1E0FFFC03C00
1E0FFFF03E00
3C0FFFF81E00
3C0F80F80E00
780F80780F00
780F80780F00
700F807C0700
700F80780780
700F80780780
F00F81F80780
F00FFFF00780
F00FFFE00780
F00FFF800780
F00FFF800780
700F87800780
700F83C00780
700F83C00700
780F81E00F00
780F81E00F00
3C0F80F00E00
3C0F80F01E00
1E0F80783E00
1E0F807C3C00
0F0000007800
0F800000F800
07C00001F000
03F00007E000
01FC001FC000
00FF807F8000
007FFFFF0000
001FFFFC0000
0007FFF00000
0000FF800000
ENDCHAR
STARTCHAR macron
ENCODING 175
SWIDTH 600 0
DWIDTH 47 0
BBX 28 6 10 49
BITMAP
FFFFFFF0
FFFFFFF0
FFFFFFF0
FFFFFFF0
FFFFFFF0
FFFFFFF0
ENDCHAR
STARTCHAR degree
ENCODING 176
SWIDTH 600 0
DWIDTH 47 0
BBX 20 21 14 35
BITMAP
01F800
07FE00
1FFF00
3FFF80
3FFFC0
7FFFE0
FF0FE0
FC07F0
FC03F0
F803F0
F801F0
F803F0
FC03F0
FC07F0
FF0FE0
7FFFE0
7FFFC0
3FFF80
1FFF00
07FE00
01F800
ENDCHAR
STARTCHAR plusminus
ENCODING 177
SWIDTH 600 0
DWIDTH 47 0
BBX 34 49 6 0
BITMAP
0007FC0000
0007FC0000
0007FC0000
0007FC0000
0007FC0000
0007FC0000
0007FC0000
0007FC0000
0007FC0000
0007FC0000
0007FC0000
0007FC0000
0007FC0000
FFFFFFFFC0
FFFFFFFFC0
FFFFFFFFC0
FFFFFFFFC0
FFFFFFFFC0
FFFFFFFFC0
FFFFFFFFC0
FFFFFFFFC0
FFFFFFFFC0
0007FC0000
0007FC0000
0007FC0000
0007FC0000
0007FC0000
0007FC0000
0007FC0000
0007FC0000
0007FC0000
0007FC0000
0007FC0000
0007FC0000
0007FC0000
0007FC0000
0000000000
0000000000
0000000000
0000000000
7FFFFFFF80
7FFFFFFF80
7FFFFFFF80
7FFFFFFF80
7FFFFFFF80
7FFFFFFF80
7FFFFFFF80
7FFFFFFF80
7FFFFFFF80
ENDCHAR
STARTCHAR twosuperior
ENCODING 178
SWIDTH 600 0
DWIDTH 47 0
BBX 25 30 11 26
BITMAP
00FF0000
03FFE000
0FFFF800
1FFFFC00
3FFFFC00
7FFFFE00
7FC3FE00
7F80FF00
FF00FF00
FF00FF00
0000FF00
0001FE00
0001FE00
0003FE00
0007FC00
000FF800
001FF000
007FE000
00FFC000
01FF8000
03FF0000
07FC0000
0FF80000
1FF00000
3FFFFF80
7FFFFF80
7FFFFF80
7FFFFF80
7FFFFF80
7FFFFF80
ENDCHAR
STARTCHAR threesuperior
ENCODING 179
SWIDTH 600 0
DWIDTH 47 0
BBX 25 31 11 24
BITMAP
00FF8000
07FFE000
0FFFF800
1FFFFC00
3FFFFE00
7FFFFE00
7FC1FF00
7F80FF00
7F00FF00
0000FF00
0000FF00
0000FE00
0001FE00
007FFC00
007FF800
007FE000
007FF800
007FFE00
0001FF00
0000FF00
00007F00
00007F80
FF007F80
FF80FF00
7FC1FF00
7FFFFF00
7FFFFE00
3FFFFC00
1FFFF800
07FFF000
00FF8000
ENDCHAR
STARTCHAR acute
ENCODING 180
SWIDTH 600 0
DWIDTH 47 0
BBX 18 11 15 46
BITMAP
03FFC0
03FF80
07FF00
0FFE00
0FFC00
1FF800
3FF000
3FE000
7FC000
7F8000
FF0000
ENDCHAR
STARTCHAR mu
ENCODING 181
SWIDTH 600 0
DWIDTH 47 0
BBX 36 57 7 -16
BITMAP
FFC0007FF0
FFC0007FF0
FFC0007FF0
FFC0007FF0
FFC0007FF0
FFC0007FF0
FFC0007FF0
FFC0007FF0
FFC0007FF0
FFC0007FF0
FFC0007FF0
FFC0007FF0
FFC0007FF0
FFC0007FF0
FFC0007FF0
FFC0007FF0
FFC0007FF0
FFC0007FF0
FFC0007FF0
FFC0007FF0
FFC0007FF0
FFC0007FF0
FFC0007FF0
FFC0007FF0
FFC0007FF0
FFC0007FF0
FFC0007FF0
FFC0007FF0
FFE0007FF0
FFE0007FF0
FFE000FFF0
FFF001FFF0
FFF803FFF0
FFFFFFFFF0
FFFFFFFFF0
FFFFFFFFF0
FFFFFFFFF0
FFFFFFFFF0
FFFFFFFFF0
FFFFFF3FF0
FFDFFE3FF0
FFC7F80000
FFC0000000
FFC0000000
FFC0000000
FFC0000000
FFC0000000
FFC0000000
FFC0000000
FFC0000000
FFC0000000
FFC0000000
FFC0000000
FFC0000000
FFC0000000
FFC0000000
FFC0000000
ENDCHAR
STARTCHAR paragraph
ENCODING 182
SWIDTH 600 0
DWIDTH 47 0
BBX 30 55 8 0
BITMAP
0003FFFC
001FFFFC
007FFFFC
01FFFFFC
03FFFFFC
07FFFFFC
0FFFFFFC
1FFFFFFC
1FFFFFFC
3FFFFFFC
3FFFFFFC
7FFFFFFC
7FFFFFFC
7FFFFFFC
FFFFFFFC
FFFFFFFC
FFFFFFFC
FFFFFFFC
FFFFFFFC
FFFFFFFC
FFFFFFFC
FFFFFFFC
7FFFFFFC
7FFFFFFC
7FFFFFFC
3FFFFFFC
3FFFFFFC
3FFFFFFC
1FFFFFFC
0FFFFFFC
07FFFFFC
03FFFFFC
01FFFFFC
00FFFFFC
001FFFFC
0003FFFC
000003FC
000003FC
000003FC
000003FC
000003FC
000003FC
000003FC
000003FC
000003FC
000003FC
000003FC
000003FC
000003FC
000003FC
000003FC
000003FC
000003FC
000003FC
000003FC
ENDCHAR
STARTCHAR periodcentered
ENCODING 183
SWIDTH 600 0
DWIDTH 47 0
BBX 12 11 19 21
BITMAP
1F80
3FC0
7FE0
FFE0
FFF0
FFF0
FFF0
FFE0
7FE0
3FC0
1F80
ENDCHAR
STARTCHAR cedilla
ENCODING 184
SWIDTH 600 0
DWIDTH 47 0
BBX 14 17 17 -17
BITMAP
7F80
7F00
FFC0
FFF0
FFF8
1FF8
07FC
07FC
07FC
07FC
1FFC
7FF8
7FF8
7FF0
7FE0
7F80
7C00
ENDCHAR
STARTCHAR onesuperior
ENCODING 185
SWIDTH 600 0
DWIDTH 47 0
BBX 15 30 15 25
BITMAP
0006
003E
01FE
1FFE
FFFE
FFFE
FFFE
FFFE
FFFE
F9FE
81FE
01FE
01FE
01FE
01FE
01FE
01FE
01FE
01FE
01FE
01FE
01FE
01FE
01FE
01FE
01FE
01FE
01FE
01FE
01FE
ENDCHAR
STARTCHAR ordmasculine
ENCODING 186
SWIDTH 600 0
DWIDTH 47 0
BBX 27 31 10 25
BITMAP
007F8000
01FFF000
07FFFC00
0FFFFE00
1FFFFF00
3FFFFF00
3FE0FF80
7F803F80
7F001FC0
7F001FC0
FE001FC0
FE000FC0
FE000FE0
FE000FE0
FE000FE0
FE000FE0
FE000FE0
FE000FE0
FE000FE0
FE000FC0
FE001FC0
7F001FC0
7F001FC0
7F803F80
3FE0FF80
3FFFFF00
1FFFFF00
0FFFFE00
07FFFC00
01FFF000
007F8000
ENDCHAR
STARTCHAR guillemotright
ENCODING 187
SWIDTH 600 0
DWIDTH 47 0
BBX 32 30 9 5
BITMAP
FE03F800
7F01FC00
7F00FE00
3F80FE00
3FC07F00
1FE07F80
0FE03FC0
0FF01FC0
07F81FE0
07FC0FF0
03FC0FF8
01FE07F8
01FF03FC
00FF03FE
00FF81FF
007F81FF
00FF83FE
01FF03FC
01FE07F8
03FC0FF8
07FC0FF0
07F81FE0
0FF01FC0
0FE03FC0
1FE07F80
3FC07F00
3F80FF00
7F00FE00
7F01FC00
FE03F800
ENDCHAR
STARTCHAR onequarter
ENCODING 188
SWIDTH 600 0
DWIDTH 47 0
BBX 43 56 2 0
BITMAP
000C00000000
007C00000000
03FC00000000
1FFC00000000
FFFC00000000
FFFC00000000
FFFC00000000
FFFC00000000
F9FC00000000
81FC00080000
01FC000E0000
01FC001FC000
01FC001F8000
01FC003F8000
01FC003F0000
01FC007F0000
01FC007E0000
01FC00FC0000
01FC00FC0000
01FC01F80000
01FC03F80000
01FC03F00000
01FC07F00000
01FC07E00000
01FC0FE00000
01FC0FC00000
01FC1FC00000
00001F800000
00003F000000
00003F00FE00
00007E01FE00
0000FE01FE00
0000FC03FE00
0001FC07FE00
0001F807FE00
0003F80FFE00
0003F01FFE00
0007F03FFE00
0007E03F7E00
000FC07E7E00
000FC0FC7E00
001F80FC7E00
003F81F87E00
003F03F07E00
007F07E07E00
001E07FFFFE0
000E0FFFFFE0
00000FFFFFE0
00000FFFFFE0
000007FFFFE0
000007FFFFE0
000000007E00
000000007E00
000000007E00
000000007E00
000000007E00
ENDCHAR
STARTCHAR onehalf
ENCODING 189
SWIDTH 600 0
DWIDTH 47 0
BBX 45 56 1 0
BITMAP
001800000000
00F800000000
07F800000000
3FF800000000
FFF800000000
FFF800000000
FFF800000000
FFF800000000
F3F800000000
83F800100000
03F8003C0000
03F8003F0000
03F8007F0000
03F8007E0000
03F800FC0000
03F800FC0000
03F801F80000
03F803F80000
03F803F00000
03F807F00000
03F807E00000
03F80FE00000
03F80FC00000
03F81FC00000
03F81F800000
03F83F000000
03F83F000000
00007E000000
0000FE000000
0000FC03FC00
0001FC0FFF00
0001F83FFFC0
0003F87FFFE0
0003F0FFFFE0
0007F0FF9FF0
0007E0FE07F0
000FC1FC07F0
000FC1FC07F0
001F800007F0
003F80000FF0
003F00000FE0
007F00001FE0
007E00003FC0
00FE00007F80
00FC0000FF00
007C0003FE00
00180007FC00
0000000FF800
0000001FE000
0000003FC000
0000007F8000
000000FFFFF8
000000FFFFF8
000000FFFFF8
000000FFFFF8
000000FFFFF8
ENDCHAR
STARTCHAR threequarters
ENCODING 190
SWIDTH 600 0
DWIDTH 47 0
BBX 45 55 1 0
BITMAP
03FF80000000
0FFFE0000000
1FFFF0000000
3FFFF8000000
7FFFF8000000
7F87FC000000
7F03FC000000
0001FC000000
0001FC004000
0003F800F000
0007F800FC00
00FFF001F800
00FFE003F800
00FFC003F000
00FFF007F000
00FFF807E000
0003FC0FE000
0001FC0FC000
0001FC1FC000
FE01FC1F8000
FF01FC3F0000
7F83FC3F0000
7FFFFC7E0000
3FFFF8FE0000
3FFFF0FC0000
0FFFE1FC0000
03FF81F80000
000003F80000
000003F01FC0
000007F03FC0
000007E03FC0
00000FE07FC0
00000FC0FFC0
00001F81FFC0
00003F81FFC0
00003F03FFC0
00007F07FFC0
00007E07FFC0
0000FE0FDFC0
0000FC1F9FC0
0001FC3F9FC0
0001F83F1FC0
0003F87E1FC0
0007F0FC1FC0
0001E0FFFFF8
000061FFFFF8
000001FFFFF8
000001FFFFF8
000001FFFFF8
000001FFFFF8
000000001FC0
000000001FC0
000000001FC0
000000001FC0
000000001FC0
ENDCHAR
STARTCHAR questiondown
ENCODING 191
SWIDTH 600 0
DWIDTH 47 0
BBX 34 56 8 -15
BITMAP
0001F00000
0003FC0000
0007FC0000
0007FC0000
000FFE0000
000FFE0000
0007FE0000
0007FC0000
0007FC0000
0001F00000
0000000000
0000000000
0000000000
0000000000
0000000000
0000000000
0000000000
0007FC0000
0007FC0000
0007FC0000
000FFC0000
000FFC0000
000FFC0000
001FFC0000
003FF80000
007FF80000
00FFF80000
01FFF00000
03FFE00000
07FFC00000
0FFF800000
1FFF000000
1FFE000000
3FFC000000
7FF8000000
7FF0000000
FFF0000000
FFE0000000
FFE0000000
FFE0000000
FFC0000000
FFC001FFC0
FFC001FFC0
FFE001FFC0
FFE003FF80
FFF003FF80
FFF80FFF80
7FFFFFFF00
7FFFFFFF00
3FFFFFFE00
1FFFFFFE00
1FFFFFFC00
07FFFFF800
03FFFFE000
00FFFF8000
001FFC0000
ENDCHAR
STARTCHAR Agrave
ENCODING 192
SWIDTH 600 0
DWIDTH 47 0
BBX 46 70 1 0
BITMAP
007FF8000000
003FFC000000
001FFC000000
000FFE000000
0007FE000000
0003FF000000
0001FF800000
0000FF800000
00007FC00000
00003FC00000
00001FE00000
000000000000
000000000000
000000000000
000000000000
00003FF00000
00003FF00000
00007FF80000
00007FF80000
00007FF80000
0000FFFC0000
0000FFFC0000
0000FFFC0000
0001FFFE0000
0001FFFE0000
0001FFFE0000
0003FFFF0000
0003FFFF0000
0003FFFF0000
0007FFFF8000
0007FFFF8000
0007FCFF8000
000FFCFFC000
000FFCFFC000
000FFC7FC000
001FF87FE000
001FF87FE000
001FF87FE000
003FF03FF000
003FF03FF000
003FF03FF000
007FF01FF800
007FE01FF800
007FE01FF800
00FFE01FFC00
00FFC00FFC00
00FFC00FFC00
01FFC00FFC00
01FFC00FFE00
01FFFFFFFE00
03FFFFFFFE00
03FFFFFFFF00
03FFFFFFFF00
03FFFFFFFF00
07FFFFFFFF80
07FFFFFFFF80
07FFFFFFFF80
0FFFFFFFFFC0
0FFC0001FFC0
0FFC0000FFC0
1FFC0000FFE0
1FFC0000FFE0
1FF80000FFE0
3FF800007FF0
3FF800007FF0
3FF800007FF0
7FF000003FF8
7FF000003FF8
7FF000003FF8
FFE000003FFC
ENDCHAR
STARTCHAR Aacute
ENCODING 193
SWIDTH 600 0
DWIDTH 47 0
BBX 46 70 1 0
BITMAP
0000007FF800
0000007FF000
000000FFE000
000000FFC000
000001FF8000
000003FF0000
000003FE0000
000007FC0000
00000FF80000
00000FF00000
00001FE00000
000000000000
000000000000
000000000000
000000000000
00003FF00000
00003FF00000
00007FF80000
00007FF80000
00007FF80000
0000FFFC0000
0000FFFC0000
0000FFFC0000
0001FFFE0000
0001FFFE0000
0001FFFE0000
0003FFFF0000
0003FFFF0000
0003FFFF0000
0007FFFF8000
0007FFFF8000
0007FCFF8000
000FFCFFC000
000FFCFFC000
000FFC7FC000
001FF87FE000
001FF87FE000
001FF87FE000
003FF03FF000
003FF03FF000
003FF03FF000
007FF01FF800
007FE01FF800
007FE01FF800
00FFE01FFC00
00FFC00FFC00
00FFC00FFC00
01FFC00FFC00
01FFC00FFE00
01FFFFFFFE00
03FFFFFFFE00
03FFFFFFFF00
03FFFFFFFF00
03FFFFFFFF00
07FFFFFFFF80
07FFFFFFFF80
07FFFFFFFF80
0FFFFFFFFFC0
0FFC0001FFC0
0FFC0000FFC0
1FFC0000FFE0
1FFC0000FFE0
1FF80000FFE0
3FF800007FF0
3FF800007FF0
3FF800007FF0
7FF000003FF8
7FF000003FF8
7FF000003FF8
FFE000003FFC
ENDCHAR
STARTCHAR Acircumflex
ENCODING 194
SWIDTH 600 0
DWIDTH 47 0
BBX 46 71 1 0
BITMAP
00001FE00000
00003FF00000
00007FF80000
0000FFFC0000
0001FFFF0000
0003FFFF8000
000FFCFFC000
001FF87FE000
003FF01FF000
007FC00FF800
000000000000
000000000000
000000000000
000000000000
000000000000
000000000000
00003FF00000
00003FF00000
00007FF80000
00007FF80000
00007FF80000
0000FFFC0000
0000FFFC0000
0000FFFC0000
0001FFFE0000
0001FFFE0000
0001FFFE0000
0003FFFF0000
0003FFFF0000
0003FFFF0000
0007FFFF8000
0007FFFF8000
0007FCFF8000
000FFCFFC000
000FFCFFC000
000FFC7FC000
001FF87FE000
001FF87FE000
001FF87FE000
003FF03FF000
003FF03FF000
003FF03FF000
007FF01FF800
007FE01FF800
007FE01FF800
00FFE01FFC00
00FFC00FFC00
00FFC00FFC00
01FFC00FFC00
01FFC00FFE00
01FFFFFFFE00
03FFFFFFFE00
03FFFFFFFF00
03FFFFFFFF00
03FFFFFFFF00
07FFFFFFFF80
07FFFFFFFF80
07FFFFFFFF80
0FFFFFFFFFC0
0FFC0001FFC0
0FFC0000FFC0
1FFC0000FFE0
1FFC0000FFE0
1FF80000FFE0
3FF800007FF0
3FF800007FF0
3FF800007FF0
7FF000003FF8
7FF000003FF8
7FF000003FF8
FFE000003FFC
ENDCHAR
STARTCHAR Atilde
ENCODING 195
SWIDTH 600 0
DWIDTH 47 0
BBX 46 71 1 0
BITMAP
0001F000F000
0007FE01F800
000FFF83F800
001FFFFFF800
003FFFFFF000
003FFFFFF000
003FFFFFE000
007F07FFC000
007E01FF8000
003E007E0000
000000000000
000000000000
000000000000
000000000000
000000000000
000000000000
00003FF00000
00003FF00000
00007FF80000
00007FF80000
00007FF80000
0000FFFC0000
0000FFFC0000
0000FFFC0000
0001FFFE0000
0001FFFE0000
0001FFFE0000
0003FFFF0000
0003FFFF0000
0003FFFF0000
0007FFFF8000
0007FFFF8000
0007FCFF8000
000FFCFFC000
000FFCFFC000
000FFC7FC000
001FF87FE000
001FF87FE000
001FF87FE000
003FF03FF000
003FF03FF000
003FF03FF000
007FF01FF800
007FE01FF800
007FE01FF800
00FFE01FFC00
00FFC00FFC00
00FFC00FFC00
01FFC00FFC00
01FFC00FFE00
01FFFFFFFE00
03FFFFFFFE00
03FFFFFFFF00
03FFFFFFFF00
03FFFFFFFF00
07FFFFFFFF80
07FFFFFFFF80
07FFFFFFFF80
0FFFFFFFFFC0
0FFC0001FFC0
0FFC0000FFC0
1FFC0000FFE0
1FFC0000FFE0
1FF80000FFE0
3FF800007FF0
3FF800007FF0
3FF800007FF0
7FF000003FF8
7FF000003FF8
7FF000003FF8
FFE000003FFC
ENDCHAR
STARTCHAR Adieresis
ENCODING 196
SWIDTH 600 0
DWIDTH 47 0
BBX 46 69 1 0
BITMAP
001F0003C000
003FC00FF000
007FC01FF800
007FE01FF800
007FE01FF800
007FE01FF800
007FC01FF800
003FC00FF000
001F0003C000
000000000000
000000000000
000000000000
000000000000
000000000000
00003FF00000
00003FF00000
00007FF80000
00007FF80000
00007FF80000
0000FFFC0000
0000FFFC0000
0000FFFC0000
0001FFFE0000
0001FFFE0000
0001FFFE0000
0003FFFF0000
0003FFFF0000
0003FFFF0000
0007FFFF8000
0007FFFF8000
0007FCFF8000
000FFCFFC000
000FFCFFC000
000FFC7FC000
001FF87FE000
001FF87FE000
001FF87FE000
003FF03FF000
003FF03FF000
003FF03FF000
007FF01FF800
007FE01FF800
007FE01FF800
00FFE01FFC00
00FFC00FFC00
00FFC00FFC00
01FFC00FFC00
01FFC00FFE00
01FFFFFFFE00
03FFFFFFFE00
03FFFFFFFF00
03FFFFFFFF00
03FFFFFFFF00
07FFFFFFFF80
07FFFFFFFF80
07FFFFFFFF80
0FFFFFFFFFC0
0FFC0001FFC0
0FFC0000FFC0
1FFC0000FFE0
1FFC0000FFE0
1FF80000FFE0
3FF800007FF0
3FF800007FF0
3FF800007FF0
7FF000003FF8
7FF000003FF8
7FF000003FF8
FFE000003FFC
ENDCHAR
STARTCHAR Aring
ENCODING 197
SWIDTH 600 0
DWIDTH 47 0
BBX 46 74 1 0
BITMAP
00000FC00000
00003FF00000
00007FF80000
0000FFFC0000
0000F87C0000
0001F03E0000
0001F01E0000
0001E01E0000
0001E01E0000
0001F03E0000
0000F87E0000
0000FFFC0000
00007FF80000
00003FF00000
00000FC00000
000000000000
000000000000
000000000000
000000000000
00003FF00000
00003FF00000
00007FF80000
00007FF80000
00007FF80000
0000FFFC0000
0000FFFC0000
0000FFFC0000
0001FFFE0000
0001FFFE0000
0001FFFE0000
0003FFFF0000
0003FFFF0000
0003FFFF0000
0007FFFF8000
0007FFFF8000
0007FCFF8000
000FFCFFC000
000FFCFFC000
000FFC7FC000
001FF87FE000
001FF87FE000
001FF87FE000
003FF03FF000
003FF03FF000
003FF03FF000
007FF01FF800
007FE01FF800
007FE01FF800
00FFE01FFC00
00FFC00FFC00
00FFC00FFC00
01FFC00FFC00
01FFC00FFE00
01FFFFFFFE00
03FFFFFFFE00
03FFFFFFFF00
03FFFFFFFF00
03FFFFFFFF00
07FFFFFFFF80
07FFFFFFFF80
07FFFFFFFF80
0FFFFFFFFFC0
0FFC0001FFC0
0FFC0000FFC0
1FFC0000FFE0
1FFC0000FFE0
1FF80000FFE0
3FF800007FF0
3FF800007FF0
3FF800007FF0
7FF000003FF8
7FF000003FF8
7FF000003FF8
FFE000003FFC
ENDCHAR
STARTCHAR AE
ENCODING 198
SWIDTH 600 0
DWIDTH 47 0
BBX 43 55 2 0
BITMAP
00003FFFFFC0
00003FFFFFC0
00007FFFFFC0
00007FFFFFC0
00007FFFFFC0
0000FFFFFFC0
0000FFFFFFC0
0000FFFFFFC0
0001FFFFFFC0
0001FFFF8000
0001FFFF8000
0003FFFF8000
0003FFFF8000
0003FFFF8000
0007FFFF8000
0007FFFF8000
0007FBFF8000
000FFBFF8000
000FFBFF8000
000FFBFF8000
001FF3FF8000
001FF3FF8000
001FF3FFFF80
003FE3FFFF80
003FE3FFFF80
003FE3FFFF80
007FE3FFFF80
007FC3FFFF80
007FC3FFFF80
00FFC3FFFF80
00FF83FFFF80
00FF83FF8000
01FF83FF8000
01FFFFFF8000
01FFFFFF8000
03FFFFFF8000
03FFFFFF8000
03FFFFFF8000
07FFFFFF8000
07FFFFFF8000
07FFFFFF8000
0FFFFFFF8000
0FFC03FF8000
0FFC03FF8000
1FF803FF8000
1FF803FF8000
1FF803FFFFE0
3FF803FFFFE0
3FF003FFFFE0
3FF003FFFFE0
7FF003FFFFE0
7FF003FFFFE0
7FE003FFFFE0
FFE003FFFFE0
FFE003FFFFE0
ENDCHAR
STARTCHAR Ccedilla
ENCODING 199
SWIDTH 600 0
DWIDTH 47 0
BBX 41 73 3 -17
BITMAP
0000FFC00000
0007FFF80000
001FFFFE0000
007FFFFF8000
00FFFFFFC000
01FFFFFFE000
03FFFFFFF000
07FFFFFFF800
0FFFFFFFFC00
0FFF007FFC00
1FFE001FFE00
1FFC000FFE00
3FF8000FFE00
3FF80007FF00
3FF00007FF00
7FF00007FF00
7FF00003FF00
7FE00003FF00
7FE00003FF80
FFE000000000
FFE000000000
FFE000000000
FFE000000000
FFE000000000
FFE000000000
FFE000000000
FFE000000000
FFE000000000
FFE000000000
FFE000000000
FFE000000000
FFE000000000
FFE000000000
FFE000000000
FFE000000000
FFE000000000
FFE000000000
FFE000000000
FFE000000080
7FE00003FF00
7FF00003FF00
7FF00007FF00
7FF00007FF00
3FF80007FF00
3FF8000FFE00
1FFC000FFE00
1FFE001FFE00
0FFF007FFC00
0FFFFFFFFC00
07FFFFFFF800
03FFFFFFF000
01FFFFFFE000
00FFFFFFC000
007FFFFF8000
003FFFFE0000
000FFFF80000
0000FF800000
0000FF000000
0000FFC00000
0000FFF00000
0000FFF80000
00001FF80000
000007FC0000
000007FC0000
000007FC0000
000007FC0000
00001FFC0000
00007FF80000
00007FF80000
00007FF00000
00007FE00000
00007F800000
00007C000000
ENDCHAR
STARTCHAR Egrave
ENCODING 200
SWIDTH 600 0
DWIDTH 47 0
BBX 37 70 6 0
BITMAP
0FFF000000
03FF800000
01FFC00000
00FFC00000
00FFE00000
007FE00000
003FF00000
001FF80000
000FF80000
0007FC0000
0003FE0000
0000000000
0000000000
0000000000
0000000000
FFFFFFFFF8
FFFFFFFFF8
FFFFFFFFF8
FFFFFFFFF8
FFFFFFFFF8
FFFFFFFFF8
FFFFFFFFF8
FFFFFFFFF8
FFFFFFFFF8
FFC0000000
FFC0000000
FFC0000000
FFC0000000
FFC0000000
FFC0000000
FFC0000000
FFC0000000
FFC0000000
FFC0000000
FFC0000000
FFC0000000
FFC0000000
FFFFFFFF80
FFFFFFFF80
FFFFFFFF80
FFFFFFFF80
FFFFFFFF80
FFFFFFFF80
FFFFFFFF80
FFFFFFFF80
FFFFFFFF80
FFC0000000
FFC0000000
FFC0000000
FFC0000000
FFC0000000
FFC0000000
FFC0000000
FFC0000000
FFC0000000
FFC0000000
FFC0000000
FFC0000000
FFC0000000
FFC0000000
FFC0000000
FFFFFFFFF8
FFFFFFFFF8
FFFFFFFFF8
FFFFFFFFF8
FFFFFFFFF8
FFFFFFFFF8
FFFFFFFFF8
FFFFFFFFF8
FFFFFFFFF8
ENDCHAR
STARTCHAR Eacute
ENCODING 201
SWIDTH 600 0
DWIDTH 47 0
BBX 37 70 6 0
BITMAP
000007FF80
00000FFE00
00001FFC00
00001FF800
00003FF000
00003FF000
00007FE000
0000FFC000
0000FF8000
0001FF0000
0003FE0000
0000000000
0000000000
0000000000
0000000000
FFFFFFFFF8
FFFFFFFFF8
FFFFFFFFF8
FFFFFFFFF8
FFFFFFFFF8
FFFFFFFFF8
FFFFFFFFF8
FFFFFFFFF8
FFFFFFFFF8
FFC0000000
FFC0000000
FFC0000000
FFC0000000
FFC0000000
FFC0000000
FFC0000000
FFC0000000
FFC0000000
FFC0000000
FFC0000000
FFC0000000
FFC0000000
FFFFFFFF80
FFFFFFFF80
FFFFFFFF80
FFFFFFFF80
FFFFFFFF80
FFFFFFFF80
FFFFFFFF80
FFFFFFFF80
FFFFFFFF80
FFC0000000
FFC0000000
FFC0000000
FFC0000000
FFC0000000
FFC0000000
FFC0000000
FFC0000000
FFC0000000
FFC0000000
FFC0000000
FFC0000000
FFC0000000
FFC0000000
FFC0000000
FFFFFFFFF8
FFFFFFFFF8
FFFFFFFFF8
FFFFFFFFF8
FFFFFFFFF8
FFFFFFFFF8
FFFFFFFFF8
FFFFFFFFF8
FFFFFFFFF8
ENDCHAR
STARTCHAR Ecircumflex
ENCODING 202
SWIDTH 600 0
DWIDTH 47 0
BBX 37 71 6 0
BITMAP
0001FC0000
0003FE0000
000FFF8000
001FFFC000
003FFFE000
007FFFF000
00FF8FF800
01FF07FC00
07FE03FF00
0FFC01FF80
0000000000
0000000000
0000000000
0000000000
0000000000
0000000000
FFFFFFFFF8
FFFFFFFFF8
FFFFFFFFF8
FFFFFFFFF8
FFFFFFFFF8
FFFFFFFFF8
FFFFFFFFF8
FFFFFFFFF8
FFFFFFFFF8
FFC0000000
FFC0000000
FFC0000000
FFC0000000
FFC0000000
FFC0000000
FFC0000000
FFC0000000
FFC0000000
FFC0000000
FFC0000000
FFC0000000
FFC0000000
FFFFFFFF80
FFFFFFFF80
FFFFFFFF80
FFFFFFFF80
FFFFFFFF80
FFFFFFFF80
FFFFFFFF80
FFFFFFFF80
FFFFFFFF80
FFC0000000
FFC0000000
FFC0000000
FFC0000000
FFC0000000
FFC0000000
FFC0000000
FFC0000000
FFC0000000
FFC0000000
FFC0000000
FFC0000000
FFC0000000
FFC0000000
FFC0000000
FFFFFFFFF8
FFFFFFFFF8
FFFFFFFFF8
FFFFFFFFF8
FFFFFFFFF8
FFFFFFFFF8
FFFFFFFFF8
FFFFFFFFF8
FFFFFFFFF8
ENDCHAR
STARTCHAR Edieresis
ENCODING 203
SWIDTH 600 0
DWIDTH 47 0
BBX 37 69 6 0
BITMAP
01F0007C00
07F801FE00
0FFC01FF00
0FFC03FF00
0FFC03FF80
0FFC03FF00
0FFC01FF00
07F801FE00
01F0007C00
0000000000
0000000000
0000000000
0000000000
0000000000
FFFFFFFFF8
FFFFFFFFF8
FFFFFFFFF8
FFFFFFFFF8
FFFFFFFFF8
FFFFFFFFF8
FFFFFFFFF8
FFFFFFFFF8
FFFFFFFFF8
FFC0000000
FFC0000000
FFC0000000
FFC0000000
FFC0000000
FFC0000000
FFC0000000
FFC0000000
FFC0000000
FFC0000000
FFC0000000
FFC0000000
FFC0000000
FFFFFFFF80
FFFFFFFF80
FFFFFFFF80
FFFFFFFF80
FFFFFFFF80
FFFFFFFF80
FFFFFFFF80
FFFFFFFF80
FFFFFFFF80
FFC0000000
FFC0000000
FFC0000000
FFC0000000
FFC0000000
FFC0000000
FFC0000000
FFC0000000
FFC0000000
FFC0000000
FFC0000000
FFC0000000
FFC0000000
FFC0000000
FFC0000000
FFFFFFFFF8
FFFFFFFFF8
FFFFFFFFF8
FFFFFFFFF8
FFFFFFFFF8
FFFFFFFFF8
FFFFFFFFF8
FFFFFFFFF8
FFFFFFFFF8
ENDCHAR
STARTCHAR Igrave
ENCODING 204
SWIDTH 600 0
DWIDTH 47 0
BBX 32 70 7 0
BITMAP
3FFC0000
1FFC0000
0FFE0000
07FF0000
03FF0000
01FF8000
00FF8000
007FC000
003FE000
003FE000
001FF000
00000000
00000000
00000000
00000000
FFFFFFFF
FFFFFFFF
FFFFFFFF
FFFFFFFF
FFFFFFFF
FFFFFFFF
FFFFFFFF
FFFFFFFF
FFFFFFFF
001FFC00
001FFC00
001FFC00
001FFC00
001FFC00
001FFC00
001FFC00
001FFC00
001FFC00
001FFC00
001FFC00
001FFC00
001FFC00
001FFC00
001FFC00
001FFC00
001FFC00
001FFC00
001FFC00
001FFC00
001FFC00
001FFC00
001FFC00
001FFC00
001FFC00
001FFC00
001FFC00
001FFC00
001FFC00
001FFC00
001FFC00
001FFC00
001FFC00
001FFC00
001FFC00
001FFC00
001FFC00
FFFFFFFF
FFFFFFFF
FFFFFFFF
FFFFFFFF
FFFFFFFF
FFFFFFFF
FFFFFFFF
FFFFFFFF
FFFFFFFF
ENDCHAR
STARTCHAR Iacute
ENCODING 205
SWIDTH 600 0
DWIDTH 47 0
BBX 32 70 7 0
BITMAP
00003FFC
00003FF8
00007FF0
0000FFE0
0000FFC0
0001FF80
0003FF00
0003FE00
0007FC00
000FF800
001FF000
00000000
00000000
00000000
00000000
FFFFFFFF
FFFFFFFF
FFFFFFFF
FFFFFFFF
FFFFFFFF
FFFFFFFF
FFFFFFFF
FFFFFFFF
FFFFFFFF
001FFC00
001FFC00
001FFC00
001FFC00
001FFC00
001FFC00
001FFC00
001FFC00
001FFC00
001FFC00
001FFC00
001FFC00
001FFC00
001FFC00
001FFC00
001FFC00
001FFC00
001FFC00
001FFC00
001FFC00
001FFC00
001FFC00
001FFC00
001FFC00
001FFC00
001FFC00
001FFC00
001FFC00
001FFC00
001FFC00
001FFC00
001FFC00
001FFC00
001FFC00
001FFC00
001FFC00
001FFC00
FFFFFFFF
FFFFFFFF
FFFFFFFF
FFFFFFFF
FFFFFFFF
FFFFFFFF
FFFFFFFF
FFFFFFFF
FFFFFFFF
ENDCHAR
STARTCHAR Icircumflex
ENCODING 206
SWIDTH 600 0
DWIDTH 47 0
BBX 32 71 7 0
BITMAP
000FF000
001FF800
003FFC00
007FFE00
01FFFF00
03FFFF80
07FE7FE0
0FFC3FF0
1FF01FF8
3FE007FC
00000000
00000000
00000000
00000000
00000000
00000000
FFFFFFFF
FFFFFFFF
FFFFFFFF
FFFFFFFF
FFFFFFFF
FFFFFFFF
FFFFFFFF
FFFFFFFF
FFFFFFFF
001FFC00
001FFC00
001FFC00
001FFC00
001FFC00
001FFC00
001FFC00
001FFC00
001FFC00
001FFC00
001FFC00
001FFC00
001FFC00
001FFC00
001FFC00
001FFC00
001FFC00
001FFC00
001FFC00
001FFC00
001FFC00
001FFC00
001FFC00
001FFC00
001FFC00
001FFC00
001FFC00
001FFC00
001FFC00
001FFC00
001FFC00
001FFC00
001FFC00
001FFC00
001FFC00
001FFC00
001FFC00
FFFFFFFF
FFFFFFFF
FFFFFFFF
FFFFFFFF
FFFFFFFF
FFFFFFFF
FFFFFFFF
FFFFFFFF
FFFFFFFF
ENDCHAR
STARTCHAR Idieresis
ENCODING 207
SWIDTH 600 0
DWIDTH 47 0
BBX 32 69 7 0
BITMAP
0F8003E0
1FC007F8
3FE00FF8
7FF00FFC
7FF00FFC
7FF00FFC
3FE00FF8
1FC007F8
0F8003E0
00000000
00000000
00000000
00000000
00000000
FFFFFFFF
FFFFFFFF
FFFFFFFF
FFFFFFFF
FFFFFFFF
FFFFFFFF
FFFFFFFF
FFFFFFFF
FFFFFFFF
001FFC00
001FFC00
001FFC00
001FFC00
001FFC00
001FFC00
001FFC00
001FFC00
001FFC00
001FFC00
001FFC00
001FFC00
001FFC00
001FFC00
001FFC00
001FFC00
001FFC00
001FFC00
001FFC00
001FFC00
001FFC00
001FFC00
001FFC00
001FFC00
001FFC00
001FFC00
001FFC00
001FFC00
001FFC00
001FFC00
001FFC00
001FFC00
001FFC00
001FFC00
001FFC00
001FFC00
001FFC00
FFFFFFFF
FFFFFFFF
FFFFFFFF
FFFFFFFF
FFFFFFFF
FFFFFFFF
FFFFFFFF
FFFFFFFF
FFFFFFFF
ENDCHAR
STARTCHAR Eth
ENCODING 208
SWIDTH 614 0
DWIDTH 48 0
BBX 46 55 -1 0
BITMAP
01FFFFE00000
01FFFFFC0000
01FFFFFF8000
01FFFFFFC000
01FFFFFFF000
01FFFFFFF800
01FFFFFFFC00
01FFFFFFFE00
01FFFFFFFF00
01FFC03FFF80
01FFC00FFFC0
01FFC003FFC0
01FFC001FFE0
01FFC001FFE0
01FFC000FFF0
01FFC0007FF0
01FFC0007FF0
01FFC0007FF8
01FFC0003FF8
01FFC0003FF8
01FFC0003FF8
01FFC0003FF8
01FFC0001FF8
01FFC0001FF8
FFFFFFC01FFC
FFFFFFC01FFC
FFFFFFC01FFC
FFFFFFC01FFC
FFFFFFC01FFC
FFFFFFC01FFC
FFFFFFC01FFC
01FFC0001FFC
01FFC0003FF8
01FFC0003FF8
01FFC0003FF8
01FFC0003FF8
01FFC0003FF8
01FFC0003FF8
01FFC0007FF0
01FFC0007FF0
01FFC000FFF0
01FFC000FFE0
01FFC001FFE0
01FFC003FFC0
01FFC007FFC0
01FFC01FFF80
01FFFFFFFF00
01FFFFFFFE00
01FFFFFFFC00
01FFFFFFF800
01FFFFFFF000
01FFFFFFE000
01FFFFFF8000
01FFFFFE0000
01FFFFE00000
ENDCHAR
STARTCHAR Ntilde
ENCODING 209
SWIDTH 600 0
DWIDTH 47 0
BBX 37 71 5 0
BITMAP
003F001E00
00FFC03F00
01FFF87F00
03FFFFFF00
03FFFFFE00
07FFFFFE00
07FFFFFC00
07E0FFFC00
07C03FF000
0FC007E000
0000000000
0000000000
0000000000
0000000000
0000000000
0000000000
FFE0003FF8
FFE0003FF8
FFF0003FF8
FFF0003FF8
FFF0003FF8
FFF8003FF8
FFF8003FF8
FFFC003FF8
FFFC003FF8
FFFE003FF8
FFFE003FF8
FFFE003FF8
FFFF003FF8
FFFF003FF8
FFFF803FF8
FFFF803FF8
FFFFC03FF8
FFFFC03FF8
FFFFC03FF8
FFFFE03FF8
FFDFE03FF8
FFDFF03FF8
FFCFF03FF8
FFCFF83FF8
FFC7F83FF8
FFC7F83FF8
FFC7FC3FF8
FFC3FC3FF8
FFC3FE3FF8
FFC1FE3FF8
FFC1FF3FF8
FFC0FF3FF8
FFC0FFBFF8
FFC0FFBFF8
FFC07FBFF8
FFC07FFFF8
FFC03FFFF8
FFC03FFFF8
FFC01FFFF8
FFC01FFFF8
FFC00FFFF8
FFC00FFFF8
FFC00FFFF8
FFC007FFF8
FFC007FFF8
FFC003FFF8
FFC003FFF8
FFC001FFF8
FFC001FFF8
FFC001FFF8
FFC000FFF8
FFC000FFF8
FFC0007FF8
FFC0007FF8
FFC0003FF8
ENDCHAR
STARTCHAR Ograve
ENCODING 210
SWIDTH 600 0
DWIDTH 47 0
BBX 41 72 3 -1
BITMAP
03FFC0000000
00FFE0000000
007FF0000000
003FF0000000
003FF8000000
001FF8000000
000FFC000000
0007FE000000
0003FE000000
0001FF000000
0000FF800000
000000000000
000000000000
000000000000
000000000000
0001FF800000
000FFFF00000
003FFFFC0000
007FFFFF0000
00FFFFFF8000
03FFFFFFC000
03FFFFFFE000
07FFFFFFF000
0FFFFFFFF000
0FFF00FFF800
1FFE003FFC00
1FFC001FFC00
3FF8001FFC00
3FF8000FFE00
7FF0000FFE00
7FF00007FE00
7FF00007FF00
7FE00007FF00
FFE00007FF00
FFE00003FF00
FFE00003FF00
FFE00003FF80
FFE00003FF80
FFE00003FF80
FFE00003FF80
FFE00003FF80
FFE00003FF80
FFE00003FF80
FFE00003FF80
FFE00003FF80
FFE00003FF80
FFE00003FF80
FFE00003FF80
FFE00003FF80
FFE00003FF80
FFE00003FF80
FFE00003FF00
FFE00007FF00
FFE00007FF00
7FE00007FF00
7FF00007FF00
7FF00007FF00
7FF0000FFE00
3FF8000FFE00
3FF8001FFE00
1FFC003FFC00
1FFE003FFC00
0FFF00FFF800
0FFFFFFFF000
07FFFFFFF000
03FFFFFFE000
03FFFFFFC000
01FFFFFF8000
007FFFFF0000
003FFFFC0000
000FFFF00000
0001FF800000
ENDCHAR
STARTCHAR Oacute
ENCODING 211
SWIDTH 600 0
DWIDTH 47 0
BBX 41 72 3 -1
BITMAP
000001FFE000
000003FF8000
000007FF0000
000007FE0000
00000FFC0000
00000FF80000
00001FF80000
00003FF00000
00003FE00000
00007FC00000
0000FF800000
000000000000
000000000000
000000000000
000000000000
0001FF800000
000FFFF00000
003FFFFC0000
007FFFFF0000
00FFFFFF8000
03FFFFFFC000
03FFFFFFE000
07FFFFFFF000
0FFFFFFFF000
0FFF00FFF800
1FFE003FFC00
1FFC001FFC00
3FF8001FFC00
3FF8000FFE00
7FF0000FFE00
7FF00007FE00
7FF00007FF00
7FE00007FF00
FFE00007FF00
FFE00003FF00
FFE00003FF00
FFE00003FF80
FFE00003FF80
FFE00003FF80
FFE00003FF80
FFE00003FF80
FFE00003FF80
FFE00003FF80
FFE00003FF80
FFE00003FF80
FFE00003FF80
FFE00003FF80
FFE00003FF80
FFE00003FF80
FFE00003FF80
FFE00003FF80
FFE00003FF00
FFE00007FF00
FFE00007FF00
7FE00007FF00
7FF00007FF00
7FF00007FF00
7FF0000FFE00
3FF8000FFE00
3FF8001FFE00
1FFC003FFC00
1FFE003FFC00
0FFF00FFF800
0FFFFFFFF000
07FFFFFFF000
03FFFFFFE000
03FFFFFFC000
01FFFFFF8000
007FFFFF0000
003FFFFC0000
000FFFF00000
0001FF800000
ENDCHAR
STARTCHAR Ocircumflex
ENCODING 212
SWIDTH 600 0
DWIDTH 47 0
BBX 41 73 3 -1
BITMAP
00007F000000
0000FF800000
0003FFC00000
0007FFF00000
000FFFF80000
001FFFFC0000
003FE3FE0000
00FFC1FF0000
01FF80FFC000
03FF007FE000
000000000000
000000000000
000000000000
000000000000
000000000000
000000000000
0001FF800000
000FFFF00000
003FFFFC0000
007FFFFF0000
00FFFFFF8000
03FFFFFFC000
03FFFFFFE000
07FFFFFFF000
0FFFFFFFF000
0FFF00FFF800
1FFE003FFC00
1FFC001FFC00
3FF8001FFC00
3FF8000FFE00
7FF0000FFE00
7FF00007FE00
7FF00007FF00
7FE00007FF00
FFE00007FF00
FFE00003FF00
FFE00003FF00
FFE00003FF80
FFE00003FF80
FFE00003FF80
FFE00003FF80
FFE00003FF80
FFE00003FF80
FFE00003FF80
FFE00003FF80
FFE00003FF80
FFE00003FF80
FFE00003FF80
FFE00003FF80
FFE00003FF80
FFE00003FF80
FFE00003FF80
FFE00003FF00
FFE00007FF00
FFE00007FF00
7FE00007FF00
7FF00007FF00
7FF00007FF00
7FF0000FFE00
3FF8000FFE00
3FF8001FFE00
1FFC003FFC00
1FFE003FFC00
0FFF00FFF800
0FFFFFFFF000
07FFFFFFF000
03FFFFFFE000
03FFFFFFC000
01FFFFFF8000
007FFFFF0000
003FFFFC0000
000FFFF00000
0001FF800000
ENDCHAR
STARTCHAR Otilde
ENCODING 213
SWIDTH 600 0
DWIDTH 47 0
BBX 41 73 3 -1
BITMAP
000FC0078000
003FF00FC000
007FFE1FC000
00FFFFFFC000
00FFFFFFC000
01FFFFFF8000
01FFFFFF0000
01F83FFF0000
01F00FFE0000
01F001F80000
000000000000
000000000000
000000000000
000000000000
000000000000
000000000000
0001FF800000
000FFFF00000
003FFFFC0000
007FFFFF0000
00FFFFFF8000
03FFFFFFC000
03FFFFFFE000
07FFFFFFF000
0FFFFFFFF000
0FFF00FFF800
1FFE003FFC00
1FFC001FFC00
3FF8001FFC00
3FF8000FFE00
7FF0000FFE00
7FF00007FE00
7FF00007FF00
7FE00007FF00
FFE00007FF00
FFE00003FF00
FFE00003FF00
FFE00003FF80
FFE00003FF80
FFE00003FF80
FFE00003FF80
FFE00003FF80
FFE00003FF80
FFE00003FF80
FFE00003FF80
FFE00003FF80
FFE00003FF80
FFE00003FF80
FFE00003FF80
FFE00003FF80
FFE00003FF80
FFE00003FF80
FFE00003FF00
FFE00007FF00
FFE00007FF00
7FE00007FF00
7FF00007FF00
7FF00007FF00
7FF0000FFE00
3FF8000FFE00
3FF8001FFE00
1FFC003FFC00
1FFE003FFC00
0FFF00FFF800
0FFFFFFFF000
07FFFFFFF000
03FFFFFFE000
03FFFFFFC000
01FFFFFF8000
007FFFFF0000
003FFFFC0000
000FFFF00000
0001FF800000
ENDCHAR
STARTCHAR Odieresis
ENCODING 214
SWIDTH 600 0
DWIDTH 47 0
BBX 41 71 3 -1
BITMAP
007C001F0000
01FE007F8000
03FF007FC000
03FF00FFC000
03FF00FFE000
03FF00FFC000
03FF007FC000
01FE007F8000
007C001F0000
000000000000
000000000000
000000000000
000000000000
000000000000
0001FF800000
000FFFF00000
003FFFFC0000
007FFFFF0000
00FFFFFF8000
03FFFFFFC000
03FFFFFFE000
07FFFFFFF000
0FFFFFFFF000
0FFF00FFF800
1FFE003FFC00
1FFC001FFC00
3FF8001FFC00
3FF8000FFE00
7FF0000FFE00
7FF00007FE00
7FF00007FF00
7FE00007FF00
FFE00007FF00
FFE00003FF00
FFE00003FF00
FFE00003FF80
FFE00003FF80
FFE00003FF80
FFE00003FF80
FFE00003FF80
FFE00003FF80
FFE00003FF80
FFE00003FF80
FFE00003FF80
FFE00003FF80
FFE00003FF80
FFE00003FF80
FFE00003FF80
FFE00003FF80
FFE00003FF80
FFE00003FF00
FFE00007FF00
FFE00007FF00
7FE00007FF00
7FF00007FF00
7FF00007FF00
7FF0000FFE00
3FF8000FFE00
3FF8001FFE00
1FFC003FFC00
1FFE003FFC00
0FFF00FFF800
0FFFFFFFF000
07FFFFFFF000
03FFFFFFE000
03FFFFFFC000
01FFFFFF8000
007FFFFF0000
003FFFFC0000
000FFFF00000
0001FF800000
ENDCHAR
STARTCHAR multiply
ENCODING 215
SWIDTH 600 0
DWIDTH 47 0
BBX 36 36 6 8
BITMAP
0600000600
0F00000F00
1F80001F80
3FC0003FC0
7FE0007FE0
FFF000FFF0
7FF801FFE0
3FFC03FFC0
1FFE07FF80
0FFF0FFF00
07FF9FFE00
07FFFFFC00
03FFFFF800
01FFFFF000
00FFFFE000
007FFFE000
003FFFC000
001FFF8000
001FFF8000
003FFFC000
007FFFE000
00FFFFF000
01FFFFF800
03FFFFFC00
07FFFFFE00
0FFF9FFF00
1FFF0FFF80
3FFE07FFC0
7FFC03FFE0
FFF801FFF0
7FF000FFE0
3FE0007FC0
1FC0003F80
0F80001F00
0700000E00
0200000400
ENDCHAR
STARTCHAR Oslash
ENCODING 216
SWIDTH 600 0
DWIDTH 47 0
BBX 42 62 2 -4
BITMAP
000000003FC0
000000003F80
00007FC07F00
0007FFF87F00
000FFFFEFE00
003FFFFFFC00
007FFFFFFC00
00FFFFFFF800
01FFFFFFF800
03FFFFFFF800
07FFFFFFFC00
07FFC07FFC00
0FFF003FFE00
0FFE001FFE00
1FFE001FFF00
1FFC003FFF00
1FFC003FFF00
3FF8007FFF80
3FF800FFFF80
3FF800FFFF80
3FF801FFFF80
3FF001FDFFC0
7FF003F9FFC0
7FF003F9FFC0
7FF007F1FFC0
7FF00FF1FFC0
7FF00FE1FFC0
7FF01FC1FFC0
7FF01FC1FFC0
7FF03F81FFC0
7FF03F81FFC0
7FF07F01FFC0
7FF07F01FFC0
7FF0FE01FFC0
7FF1FC01FFC0
7FF1FC01FFC0
7FF3F801FFC0
7FF3F801FFC0
7FF7F001FFC0
7FF7F001FFC0
3FFFE001FF80
3FFFC003FF80
3FFFC003FF80
3FFF8003FF80
3FFF8007FF00
1FFF0007FF00
1FFF000FFF00
0FFE000FFE00
0FFF001FFE00
07FF807FFC00
07FFFFFFFC00
03FFFFFFF800
07FFFFFFF000
07FFFFFFE000
0FFFFFFFC000
0FFFFFFF8000
1FDFFFFE0000
3F87FFF80000
3F80FFC00000
7F0000000000
7F0000000000
FE0000000000
ENDCHAR
STARTCHAR Ugrave
ENCODING 217
SWIDTH 600 0
DWIDTH 47 0
BBX 37 71 5 -1
BITMAP
07FF800000
03FF800000
01FFC00000
00FFC00000
007FE00000
003FF00000
001FF00000
001FF80000
000FFC0000
0007FC0000
0003FE0000
0000000000
0000000000
0000000000
0000000000
FFE0003FF8
FFE0003FF8
FFE0003FF8
FFE0003FF8
FFE0003FF8
FFE0003FF8
FFE0003FF8
FFE0003FF8
FFE0003FF8
FFE0003FF8
FFE0003FF8
FFE0003FF8
FFE0003FF8
FFE0003FF8
FFE0003FF8
FFE0003FF8
FFE0003FF8
FFE0003FF8
FFE0003FF8
FFE0003FF8
FFE0003FF8
FFE0003FF8
FFE0003FF8
FFE0003FF8
FFE0003FF8
FFE0003FF8
FFE0003FF8
FFE0003FF8
FFE0003FF8
FFE0003FF8
FFE0003FF8
FFE0003FF8
FFE0003FF8
FFE0003FF8
FFE0003FF8
FFE0003FF8
FFE0003FF8
FFE0003FF8
FFE0003FF8
FFE0003FF8
FFE0003FF8
FFE0003FF8
FFE0007FF0
7FF0007FF0
7FF000FFF0
7FF801FFE0
3FFC03FFE0
3FFFFFFFE0
1FFFFFFFC0
0FFFFFFF80
0FFFFFFF00
07FFFFFE00
01FFFFFC00
00FFFFF800
003FFFE000
0007FE0000
ENDCHAR
STARTCHAR Uacute
ENCODING 218
SWIDTH 600 0
DWIDTH 47 0
BBX 37 71 5 -1
BITMAP
000007FF80
00000FFF00
00000FFE00
00001FFC00
00003FF800
00003FF000
00007FE000
00007FC000
0000FF8000
0001FF0000
0003FE0000
0000000000
0000000000
0000000000
0000000000
FFE0003FF8
FFE0003FF8
FFE0003FF8
FFE0003FF8
FFE0003FF8
FFE0003FF8
FFE0003FF8
FFE0003FF8
FFE0003FF8
FFE0003FF8
FFE0003FF8
FFE0003FF8
FFE0003FF8
FFE0003FF8
FFE0003FF8
FFE0003FF8
FFE0003FF8
FFE0003FF8
FFE0003FF8
FFE0003FF8
FFE0003FF8
FFE0003FF8
FFE0003FF8
FFE0003FF8
FFE0003FF8
FFE0003FF8
FFE0003FF8
FFE0003FF8
FFE0003FF8
FFE0003FF8
FFE0003FF8
FFE0003FF8
FFE0003FF8
FFE0003FF8
FFE0003FF8
FFE0003FF8
FFE0003FF8
FFE0003FF8
FFE0003FF8
FFE0003FF8
FFE0003FF8
FFE0003FF8
FFE0007FF0
7FF0007FF0
7FF000FFF0
7FF801FFE0
3FFC03FFE0
3FFFFFFFE0
1FFFFFFFC0
0FFFFFFF80
0FFFFFFF00
07FFFFFE00
01FFFFFC00
00FFFFF800
003FFFE000
0007FE0000
ENDCHAR
STARTCHAR Ucircumflex
ENCODING 219
SWIDTH 600 0
DWIDTH 47 0
BBX 37 72 5 -1
BITMAP
0001FC0000
0003FF0000
0007FF8000
000FFFC000
003FFFE000
007FFFF000
00FFCFFC00
01FF07FE00
03FE03FF00
07FC01FF80
0000000000
0000000000
0000000000
0000000000
0000000000
0000000000
FFE0003FF8
FFE0003FF8
FFE0003FF8
FFE0003FF8
FFE0003FF8
FFE0003FF8
FFE0003FF8
FFE0003FF8
FFE0003FF8
FFE0003FF8
FFE0003FF8
FFE0003FF8
FFE0003FF8
FFE0003FF8
FFE0003FF8
FFE0003FF8
FFE0003FF8
FFE0003FF8
FFE0003FF8
FFE0003FF8
FFE0003FF8
FFE0003FF8
FFE0003FF8
FFE0003FF8
FFE0003FF8
FFE0003FF8
FFE0003FF8
FFE0003FF8
FFE0003FF8
FFE0003FF8
FFE0003FF8
FFE0003FF8
FFE0003FF8
FFE0003FF8
FFE0003FF8
FFE0003FF8
FFE0003FF8
FFE0003FF8
FFE0003FF8
FFE0003FF8
FFE0003FF8
FFE0003FF8
FFE0007FF0
7FF0007FF0
7FF000FFF0
7FF801FFE0
3FFC03FFE0
3FFFFFFFE0
1FFFFFFFC0
0FFFFFFF80
0FFFFFFF00
07FFFFFE00
01FFFFFC00
00FFFFF800
003FFFE000
0007FE0000
ENDCHAR
STARTCHAR Udieresis
ENCODING 220
SWIDTH 600 0
DWIDTH 47 0
BBX 37 70 5 -1
BITMAP
01F0007C00
07F800FF00
07FC01FF00
0FFC01FF80
0FFE03FF80
0FFC01FF80
07FC01FF00
07F800FF00
01F0007C00
0000000000
0000000000
0000000000
0000000000
0000000000
FFE0003FF8
FFE0003FF8
FFE0003FF8
FFE0003FF8
FFE0003FF8
FFE0003FF8
FFE0003FF8
FFE0003FF8
FFE0003FF8
FFE0003FF8
FFE0003FF8
FFE0003FF8
FFE0003FF8
FFE0003FF8
FFE0003FF8
FFE0003FF8
FFE0003FF8
FFE0003FF8
FFE0003FF8
FFE0003FF8
FFE0003FF8
FFE0003FF8
FFE0003FF8
FFE0003FF8
FFE0003FF8
FFE0003FF8
FFE0003FF8
FFE0003FF8
FFE0003FF8
FFE0003FF8
FFE0003FF8
FFE0003FF8
FFE0003FF8
FFE0003FF8
FFE0003FF8
FFE0003FF8
FFE0003FF8
FFE0003FF8
FFE0003FF8
FFE0003FF8
FFE0003FF8
FFE0003FF8
FFE0007FF0
7FF0007FF0
7FF000FFF0
7FF801FFE0
3FFC03FFE0
3FFFFFFFE0
1FFFFFFFC0
0FFFFFFF80
0FFFFFFF00
07FFFFFE00
01FFFFFC00
00FFFFF800
003FFFE000
0007FE0000
ENDCHAR
STARTCHAR Yacute
ENCODING 221
SWIDTH 600 0
DWIDTH 47 0
BBX 46 70 1 0
BITMAP
0000007FF800
0000007FF000
000000FFE000
000001FFC000
000001FF8000
000003FF0000
000007FE0000
000007FC0000
00000FF80000
00001FF00000
00003FE00000
000000000000
000000000000
000000000000
000000000000
FFF000003FFC
7FF800007FF8
7FF800007FF0
3FF80000FFF0
3FFC0000FFE0
1FFC0001FFE0
1FFE0001FFE0
0FFE0001FFC0
0FFF0003FFC0
07FF0003FF80
07FF0007FF80
03FF8007FF00
03FF800FFF00
01FFC00FFE00
01FFC00FFE00
00FFE01FFC00
00FFE01FFC00
007FE03FF800
007FF03FF800
003FF03FF000
003FF87FF000
001FF87FE000
001FFCFFE000
000FFCFFC000
000FFDFFC000
0007FFFF8000
0007FFFF8000
0003FFFF0000
0003FFFF0000
0003FFFE0000
0001FFFE0000
0001FFFC0000
0000FFFC0000
0000FFF80000
00007FF80000
00007FF00000
00007FF00000
00007FF00000
00007FF00000
00007FF00000
00007FF00000
00007FF00000
00007FF00000
00007FF00000
00007FF00000
00007FF00000
00007FF00000
00007FF00000
00007FF00000
00007FF00000
00007FF00000
00007FF00000
00007FF00000
00007FF00000
00007FF00000
ENDCHAR
STARTCHAR Thorn
ENCODING 222
SWIDTH 600 0
DWIDTH 47 0
BBX 40 55 5 0
BITMAP
FFE0000000
FFE0000000
FFE0000000
FFE0000000
FFE0000000
FFE0000000
FFE0000000
FFE0000000
FFE0000000
FFE0000000
FFFFFF8000
FFFFFFF800
FFFFFFFE00
FFFFFFFF80
FFFFFFFFC0
FFFFFFFFE0
FFFFFFFFF0
FFFFFFFFF8
FFFFFFFFFC
FFE000FFFC
FFE0003FFC
FFE0001FFE
FFE0000FFE
FFE0000FFE
FFE00007FF
FFE00007FF
FFE00007FF
FFE00007FF
FFE00007FF
FFE00007FF
FFE0000FFE
FFE0000FFE
FFE0001FFE
FFE0003FFC
FFE000FFFC
FFFFFFFFFC
FFFFFFFFF8
FFFFFFFFF0
FFFFFFFFE0
FFFFFFFFC0
FFFFFFFF80
FFFFFFFE00
FFFFFFF800
FFFFFF8000
FFE0000000
FFE0000000
FFE0000000
FFE0000000
FFE0000000
FFE0000000
FFE0000000
FFE0000000
FFE0000000
FFE0000000
FFE0000000
ENDCHAR
STARTCHAR germandbls
ENCODING 223
SWIDTH 600 0
DWIDTH 47 0
BBX 39 61 6 -1
BITMAP
0000400000
001FFF0000
007FFFC000
01FFFFF000
03FFFFF800
07FFFFFC00
0FFFFFFE00
1FFFFFFE00
1FFFFFFF00
3FFE1FFF00
3FF807FF80
7FF803FF80
7FF003FF80
7FF003FF80
7FE001FF80
FFE001FF80
FFE003FF80
FFE003FF80
FFE003FF80
FFE003FF00
FFE007FF00
FFE00FFE00
FFE00FFE00
FFE01FFC00
FFE01FFC00
FFE01FF800
FFE03FF800
FFE03FF800
FFE03FF800
FFE03FF800
FFE03FF800
FFE03FFC00
FFE01FFE00
FFE01FFF00
FFE00FFF00
FFE00FFF80
FFE007FFC0
FFE003FFE0
FFE001FFF0
FFE000FFF8
FFE0007FF8
FFE0003FFC
FFE0003FFC
FFE0001FFE
FFE0000FFE
FFE0000FFE
FFE0000FFE
FFE0000FFE
FFE0000FFE
FFE0000FFE
FFE1001FFE
FFE1C01FFC
FFE1FFFFFC
FFE3FFFFFC
FFE3FFFFF8
FFE3FFFFF8
FFE3FFFFF0
FFE7FFFFE0
FFE7FFFFC0
FFE1FFFF00
00001FF800
ENDCHAR
STARTCHAR agrave
ENCODING 224
SWIDTH 600 0
DWIDTH 47 0
BBX 38 59 4 -1
BITMAP
07FF800000
03FF800000
01FFC00000
00FFC00000
007FE00000
003FF00000
001FF00000
001FF80000
000FF80000
0007FC0000
0003FE0000
0000000000
0000000000
0000000000
0000000000
0000000000
0003FF0000
003FFFE000
00FFFFF800
03FFFFFE00
07FFFFFF00
0FFFFFFF80
1FFFFFFFC0
1FFFFFFFC0
3FFFFFFFE0
3FFC01FFE0
3FF800FFF0
7FF0007FF0
7FF0007FF0
0000003FF0
0000003FF0
0000003FF0
0000003FF0
0007FFFFF0
007FFFFFF0
01FFFFFFF0
07FFFFFFF0
0FFFFFFFF0
1FFFFFFFF0
3FFF003FF0
3FFC003FF0
7FF0003FF0
7FF0003FF0
7FE0003FF0
FFE0003FF0
FFE0003FF0
FFE0007FF0
FFE0007FF0
FFF001FFF0
7FF803FFF0
7FFFFFFFF0
7FFFFFFFF0
3FFFFFFFF0
1FFFFFFFF8
1FFFFFFFF8
0FFFFFBFF8
03FFFE1FF8
01FFFC1FFC
003FE00000
ENDCHAR
STARTCHAR aacute
ENCODING 225
SWIDTH 600 0
DWIDTH 47 0
BBX 38 59 4 -1
BITMAP
000007FF80
00000FFF00
00000FFE00
00001FFC00
00003FF800
00003FF000
00007FE000
0000FFC000
0000FF8000
0001FF0000
0003FE0000
0000000000
0000000000
0000000000
0000000000
0000000000
0003FF0000
003FFFE000
00FFFFF800
03FFFFFE00
07FFFFFF00
0FFFFFFF80
1FFFFFFFC0
1FFFFFFFC0
3FFFFFFFE0
3FFC01FFE0
3FF800FFF0
7FF0007FF0
7FF0007FF0
0000003FF0
0000003FF0
0000003FF0
0000003FF0
0007FFFFF0
007FFFFFF0
01FFFFFFF0
07FFFFFFF0
0FFFFFFFF0
1FFFFFFFF0
3FFF003FF0
3FFC003FF0
7FF0003FF0
7FF0003FF0
7FE0003FF0
FFE0003FF0
FFE0003FF0
FFE0007FF0
FFE0007FF0
FFF001FFF0
7FF803FFF0
7FFFFFFFF0
7FFFFFFFF0
3FFFFFFFF0
1FFFFFFFF8
1FFFFFFFF8
0FFFFFBFF8
03FFFE1FF8
01FFFC1FFC
003FE00000
ENDCHAR
STARTCHAR acircumflex
ENCODING 226
SWIDTH 600 0
DWIDTH 47 0
BBX 38 60 4 -1
BITMAP
0001FC0000
0003FF0000
0007FF8000
001FFFC000
003FFFE000
007FFFF000
00FFCFFC00
01FF07FE00
03FE03FF00
07FC01FF80
0000000000
0000000000
0000000000
0000000000
0000000000
0000000000
0000000000
0003FF0000
003FFFE000
00FFFFF800
03FFFFFE00
07FFFFFF00
0FFFFFFF80
1FFFFFFFC0
1FFFFFFFC0
3FFFFFFFE0
3FFC01FFE0
3FF800FFF0
7FF0007FF0
7FF0007FF0
0000003FF0
0000003FF0
0000003FF0
0000003FF0
0007FFFFF0
007FFFFFF0
01FFFFFFF0
07FFFFFFF0
0FFFFFFFF0
1FFFFFFFF0
3FFF003FF0
3FFC003FF0
7FF0003FF0
7FF0003FF0
7FE0003FF0
FFE0003FF0
FFE0003FF0
FFE0007FF0
FFE0007FF0
FFF001FFF0
7FF803FFF0
7FFFFFFFF0
7FFFFFFFF0
3FFFFFFFF0
1FFFFFFFF8
1FFFFFFFF8
0FFFFFBFF8
03FFFE1FF8
01FFFC1FFC
003FE00000
ENDCHAR
STARTCHAR atilde
ENCODING 227
SWIDTH 600 0
DWIDTH 47 0
BBX 38 60 4 -1
BITMAP
003F001E00
007FE01F80
00FFF83F00
01FFFFFF00
03FFFFFF00
03FFFFFE00
07FFFFFE00
07F0FFFC00
07E01FF800
03C007E000
0000000000
0000000000
0000000000
0000000000
0000000000
0000000000
0000000000
0003FF0000
003FFFE000
00FFFFF800
03FFFFFE00
07FFFFFF00
0FFFFFFF80
1FFFFFFFC0
1FFFFFFFC0
3FFFFFFFE0
3FFC01FFE0
3FF800FFF0
7FF0007FF0
7FF0007FF0
0000003FF0
0000003FF0
0000003FF0
0000003FF0
0007FFFFF0
007FFFFFF0
01FFFFFFF0
07FFFFFFF0
0FFFFFFFF0
1FFFFFFFF0
3FFF003FF0
3FFC003FF0
7FF0003FF0
7FF0003FF0
7FE0003FF0
FFE0003FF0
FFE0003FF0
FFE0007FF0
FFE0007FF0
FFF001FFF0
7FF803FFF0
7FFFFFFFF0
7FFFFFFFF0
3FFFFFFFF0
1FFFFFFFF8
1FFFFFFFF8
0FFFFFBFF8
03FFFE1FF8
01FFFC1FFC
003FE00000
ENDCHAR
STARTCHAR adieresis
ENCODING 228
SWIDTH 600 0
DWIDTH 47 0
BBX 38 58 4 -1
BITMAP
01F0007C00
07F800FF00
07FC01FF00
0FFC01FF80
0FFE03FF80
0FFC01FF80
07FC01FF00
07F800FF00
01F0007C00
0000000000
0000000000
0000000000
0000000000
0000000000
0000000000
0003FF0000
003FFFE000
00FFFFF800
03FFFFFE00
07FFFFFF00
0FFFFFFF80
1FFFFFFFC0
1FFFFFFFC0
3FFFFFFFE0
3FFC01FFE0
3FF800FFF0
7FF0007FF0
7FF0007FF0
0000003FF0
0000003FF0
0000003FF0
0000003FF0
0007FFFFF0
007FFFFFF0
01FFFFFFF0
07FFFFFFF0
0FFFFFFFF0
1FFFFFFFF0
3FFF003FF0
3FFC003FF0
7FF0003FF0
7FF0003FF0
7FE0003FF0
FFE0003FF0
FFE0003FF0
FFE0007FF0
FFE0007FF0
FFF001FFF0
7FF803FFF0
7FFFFFFFF0
7FFFFFFFF0
3FFFFFFFF0
1FFFFFFFF8
1FFFFFFFF8
0FFFFFBFF8
03FFFE1FF8
01FFFC1FFC
003FE00000
ENDCHAR
STARTCHAR aring
ENCODING 229
SWIDTH 600 0
DWIDTH 47 0
BBX 38 63 4 -1
BITMAP
0000FC0000
0003FF0000
0007FF8000
000FFFC000
001F87C000
001F03C000
001E03E000
001E03E000
001E03E000
001F03C000
001F87C000
000FFFC000
0007FF8000
0003FF0000
0000FC0000
0000000000
0000000000
0000000000
0000000000
0000000000
0003FF0000
003FFFE000
00FFFFF800
03FFFFFE00
07FFFFFF00
0FFFFFFF80
1FFFFFFFC0
1FFFFFFFC0
3FFFFFFFE0
3FFC01FFE0
3FF800FFF0
7FF0007FF0
7FF0007FF0
0000003FF0
0000003FF0
0000003FF0
0000003FF0
0007FFFFF0
007FFFFFF0
01FFFFFFF0
07FFFFFFF0
0FFFFFFFF0
1FFFFFFFF0
3FFF003FF0
3FFC003FF0
7FF0003FF0
7FF0003FF0
7FE0003FF0
FFE0003FF0
FFE0003FF0
FFE0007FF0
FFE0007FF0
FFF001FFF0
7FF803FFF0
7FFFFFFFF0
7FFFFFFFF0
3FFFFFFFF0
1FFFFFFFF8
1FFFFFFFF8
0FFFFFBFF8
03FFFE1FF8
01FFFC1FFC
003FE00000
ENDCHAR
STARTCHAR ae
ENCODING 230
SWIDTH 600 0
DWIDTH 47 0
BBX 43 43 2 -1
BITMAP
007FC01FE000
01FFF0FFF800
07FFFDFFFC00
0FFFFFFFFE00
1FFFFFFFFF00
3FFFFFFFFF80
3FFFFFFFFFC0
7FFFFFFFFFC0
7FFFFFFFFFC0
7FE0FFF07FE0
7FE07FE07FE0
7FE07FE03FE0
7FE07FC03FE0
00007FC03FE0
00007FC03FE0
00007FC03FE0
00007FC03FE0
00007FC03FE0
001FFFFFFFE0
00FFFFFFFFE0
07FFFFFFFFE0
0FFFFFFFFFE0
1FFFFFFFFFE0
3FFFFFFFFFE0
7FFFFFFFFFE0
7FFC7FC00000
FFF07FC00000
FFE07FC00000
FFE07FC00000
FFE07FC00000
FFC07FE00000
FFC07FE00000
FFC07FF00000
FFE07FF80380
FFF0FFFFFF80
FFFFFFFFFF80
7FFFFFFFFF80
7FFFFFFFFFC0
3FFFFFFFFFC0
1FFFF3FFFFC0
0FFFE1FFFFC0
07FF80FFFF00
00FE001FF000
ENDCHAR
STARTCHAR ccedilla
ENCODING 231
SWIDTH 600 0
DWIDTH 47 0
BBX 37 59 4 -17
BITMAP
0001FF0000
000FFFF000
003FFFFC00
00FFFFFE00
01FFFFFF80
03FFFFFF80
07FFFFFFC0
0FFFFFFFE0
0FFFFFFFF0
1FFF00FFF0
1FFC007FF0
3FF8003FF8
3FF8003FF8
7FF0001FF8
7FF0001FF8
7FF0001FF8
7FE0000000
7FE0000000
7FE0000000
FFE0000000
FFE0000000
FFE0000000
FFE0000000
FFE0000000
7FE0000000
7FE0000000
7FE0000000
7FF0000000
7FF0001FF8
7FF0001FF8
3FF8001FF8
3FF8003FF8
1FFC007FF8
1FFF00FFF0
0FFFFFFFF0
0FFFFFFFE0
07FFFFFFC0
03FFFFFF80
01FFFFFF00
00FFFFFE00
003FFFFC00
000FFFE000
0001FF0000
0001FE0000
0001FF8000
0001FFE000
0001FFF000
00003FF000
00000FF800
00000FF800
00000FF800
00000FF800
00003FF800
0000FFF000
0000FFF000
0000FFE000
0000FFC000
0000FF0000
0000F80000
ENDCHAR
STARTCHAR egrave
ENCODING 232
SWIDTH 600 0
DWIDTH 47 0
BBX 39 59 4 -1
BITMAP
07FF800000
03FF800000
01FFC00000
00FFE00000
007FE00000
003FF00000
001FF00000
000FF80000
0007FC0000
0007FC0000
0003FE0000
0000000000
0000000000
0000000000
0000000000
0000000000
0000FF8000
000FFFF000
003FFFFC00
007FFFFF00
01FFFFFF80
03FFFFFFC0
07FFFFFFE0
07FFFFFFE0
0FFFFFFFF0
1FFF00FFF8
1FFE003FF8
3FFC001FF8
3FF8001FFC
7FF8000FFC
7FF0000FFC
7FF0000FFE
7FF00007FE
7FE00007FE
FFFFFFFFFE
FFFFFFFFFE
FFFFFFFFFE
FFFFFFFFFE
FFFFFFFFFE
FFFFFFFFFE
FFFFFFFFFE
FFE0000000
7FE0000000
7FF0000000
7FF0000000
7FF8000000
3FF80000C0
3FFC0001C0
1FFE0003E0
1FFF801FF0
0FFFFFFFF8
07FFFFFFFC
07FFFFFFF8
03FFFFFFF0
00FFFFFFE0
007FFFFFC0
001FFFFF00
0007FFFC00
0000FFC000
ENDCHAR
STARTCHAR eacute
ENCODING 233
SWIDTH 600 0
DWIDTH 47 0
BBX 39 59 4 -1
BITMAP
000007FF80
000007FF00
00000FFE00
00001FFC00
00001FF800
00003FF000
00007FE000
00007FC000
0000FF8000
0001FF0000
0003FE0000
0000000000
0000000000
0000000000
0000000000
0000000000
0000FF8000
000FFFF000
003FFFFC00
007FFFFF00
01FFFFFF80
03FFFFFFC0
07FFFFFFE0
07FFFFFFE0
0FFFFFFFF0
1FFF00FFF8
1FFE003FF8
3FFC001FF8
3FF8001FFC
7FF8000FFC
7FF0000FFC
7FF0000FFE
7FF00007FE
7FE00007FE
FFFFFFFFFE
FFFFFFFFFE
FFFFFFFFFE
FFFFFFFFFE
FFFFFFFFFE
FFFFFFFFFE
FFFFFFFFFE
FFE0000000
7FE0000000
7FF0000000
7FF0000000
7FF8000000
3FF80000C0
3FFC0001C0
1FFE0003E0
1FFF801FF0
0FFFFFFFF8
07FFFFFFFC
07FFFFFFF8
03FFFFFFF0
00FFFFFFE0
007FFFFFC0
001FFFFF00
0007FFFC00
0000FFC000
ENDCHAR
STARTCHAR ecircumflex
ENCODING 234
SWIDTH 600 0
DWIDTH 47 0
BBX 39 60 4 -1
BITMAP
0001FE0000
0003FF0000
0007FF8000
000FFFC000
001FFFE000
007FFFF800
00FFCFFC00
01FF87FE00
03FE03FF00
07FC00FF80
0000000000
0000000000
0000000000
0000000000
0000000000
0000000000
0000000000
0000FF8000
000FFFF000
003FFFFC00
007FFFFF00
01FFFFFF80
03FFFFFFC0
07FFFFFFE0
07FFFFFFE0
0FFFFFFFF0
1FFF00FFF8
1FFE003FF8
3FFC001FF8
3FF8001FFC
7FF8000FFC
7FF0000FFC
7FF0000FFE
7FF00007FE
7FE00007FE
FFFFFFFFFE
FFFFFFFFFE
FFFFFFFFFE
FFFFFFFFFE
FFFFFFFFFE
FFFFFFFFFE
FFFFFFFFFE
FFE0000000
7FE0000000
7FF0000000
7FF0000000
7FF8000000
3FF80000C0
3FFC0001C0
1FFE0003E0
1FFF801FF0
0FFFFFFFF8
07FFFFFFFC
07FFFFFFF8
03FFFFFFF0
00FFFFFFE0
007FFFFFC0
001FFFFF00
0007FFFC00
0000FFC000
ENDCHAR
STARTCHAR edieresis
ENCODING 235
SWIDTH 600 0
DWIDTH 47 0
BBX 39 58 4 -1
BITMAP
01F0007C00
03F800FF00
07FC01FF80
0FFE01FF80
0FFE01FF80
0FFE01FF80
07FC01FF80
03FC00FF00
01F0007C00
0000000000
0000000000
0000000000
0000000000
0000000000
0000000000
0000FF8000
000FFFF000
003FFFFC00
007FFFFF00
01FFFFFF80
03FFFFFFC0
07FFFFFFE0
07FFFFFFE0
0FFFFFFFF0
1FFF00FFF8
1FFE003FF8
3FFC001FF8
3FF8001FFC
7FF8000FFC
7FF0000FFC
7FF0000FFE
7FF00007FE
7FE00007FE
FFFFFFFFFE
FFFFFFFFFE
FFFFFFFFFE
FFFFFFFFFE
FFFFFFFFFE
FFFFFFFFFE
FFFFFFFFFE
FFE0000000
7FE0000000
7FF0000000
7FF0000000
7FF8000000
3FF80000C0
3FFC0001C0
1FFE0003E0
1FFF801FF0
0FFFFFFFF8
07FFFFFFFC
07FFFFFFF8
03FFFFFFF0
00FFFFFFE0
007FFFFFC0
001FFFFF00
0007FFFC00
0000FFC000
ENDCHAR
STARTCHAR igrave
ENCODING 236
SWIDTH 600 0
DWIDTH 47 0
BBX 34 57 8 0
BITMAP
1FFE000000
07FF000000
03FF800000
01FF800000
01FFC00000
00FFC00000
007FE00000
003FF00000
001FF00000
000FF80000
0007FC0000
0000000000
0000000000
0000000000
0000000000
0000000000
FFFFFE0000
FFFFFE0000
FFFFFE0000
FFFFFE0000
FFFFFE0000
FFFFFE0000
FFFFFE0000
FFFFFE0000
FFFFFE0000
000FFE0000
000FFE0000
000FFE0000
000FFE0000
000FFE0000
000FFE0000
000FFE0000
000FFE0000
000FFE0000
000FFE0000
000FFE0000
000FFE0000
000FFE0000
000FFE0000
000FFE0000
000FFE0000
000FFE0000
000FFE0000
000FFE0000
000FFE0000
000FFE0000
000FFE0000
000FFE0000
FFFFFFFFC0
FFFFFFFFC0
FFFFFFFFC0
FFFFFFFFC0
FFFFFFFFC0
FFFFFFFFC0
FFFFFFFFC0
FFFFFFFFC0
FFFFFFFFC0
ENDCHAR
STARTCHAR iacute
ENCODING 237
SWIDTH 600 0
DWIDTH 47 0
BBX 34 57 8 0
BITMAP
00000FFF00
00001FFC00
00003FF800
00003FF000
00007FE000
00007FC000
0000FFC000
0001FF8000
0001FF0000
0003FE0000
0007FC0000
0000000000
0000000000
0000000000
0000000000
0000000000
FFFFFE0000
FFFFFE0000
FFFFFE0000
FFFFFE0000
FFFFFE0000
FFFFFE0000
FFFFFE0000
FFFFFE0000
FFFFFE0000
000FFE0000
000FFE0000
000FFE0000
000FFE0000
000FFE0000
000FFE0000
000FFE0000
000FFE0000
000FFE0000
000FFE0000
000FFE0000
000FFE0000
000FFE0000
000FFE0000
000FFE0000
000FFE0000
000FFE0000
000FFE0000
000FFE0000
000FFE0000
000FFE0000
000FFE0000
000FFE0000
FFFFFFFFC0
FFFFFFFFC0
FFFFFFFFC0
FFFFFFFFC0
FFFFFFFFC0
FFFFFFFFC0
FFFFFFFFC0
FFFFFFFFC0
FFFFFFFFC0
ENDCHAR
STARTCHAR icircumflex
ENCODING 238
SWIDTH 600 0
DWIDTH 47 0
BBX 34 58 8 0
BITMAP
0003F80000
0007FC0000
001FFE0000
003FFF8000
007FFFC000
00FFFFE000
01FF1FF000
07FE0FF800
0FFC07FE00
1FF803FF00
0000000000
0000000000
0000000000
0000000000
0000000000
0000000000
0000000000
FFFFFE0000
FFFFFE0000
FFFFFE0000
FFFFFE0000
FFFFFE0000
FFFFFE0000
FFFFFE0000
FFFFFE0000
FFFFFE0000
000FFE0000
000FFE0000
000FFE0000
000FFE0000
000FFE0000
000FFE0000
000FFE0000
000FFE0000
000FFE0000
000FFE0000
000FFE0000
000FFE0000
000FFE0000
000FFE0000
000FFE0000
000FFE0000
000FFE0000
000FFE0000
000FFE0000
000FFE0000
000FFE0000
000FFE0000
000FFE0000
FFFFFFFFC0
FFFFFFFFC0
FFFFFFFFC0
FFFFFFFFC0
FFFFFFFFC0
FFFFFFFFC0
FFFFFFFFC0
FFFFFFFFC0
FFFFFFFFC0
ENDCHAR
STARTCHAR idieresis
ENCODING 239
SWIDTH 600 0
DWIDTH 47 0
BBX 34 56 8 0
BITMAP
03C000F800
0FF003FC00
1FF803FE00
1FF807FE00
1FF807FF00
1FF807FE00
1FF803FE00
0FF003FC00
03C000F800
0000000000
0000000000
0000000000
0000000000
0000000000
0000000000
FFFFFE0000
FFFFFE0000
FFFFFE0000
FFFFFE0000
FFFFFE0000
FFFFFE0000
FFFFFE0000
FFFFFE0000
FFFFFE0000
000FFE0000
000FFE0000
000FFE0000
000FFE0000
000FFE0000
000FFE0000
000FFE0000
000FFE0000
000FFE0000
000FFE0000
000FFE0000
000FFE0000
000FFE0000
000FFE0000
000FFE0000
000FFE0000
000FFE0000
000FFE0000
000FFE0000
000FFE0000
000FFE0000
000FFE0000
000FFE0000
FFFFFFFFC0
FFFFFFFFC0
FFFFFFFFC0
FFFFFFFFC0
FFFFFFFFC0
FFFFFFFFC0
FFFFFFFFC0
FFFFFFFFC0
FFFFFFFFC0
ENDCHAR
STARTCHAR eth
ENCODING 240
SWIDTH 600 0
DWIDTH 47 0
BBX 41 59 1 -1
BITMAP
000030000000
00003C000000
00007F001C00
00007FC03C00
0000FFF0FE00
0000FFFBFF00
0000FFFFFE00
0001FFFFF800
0001FFFFE000
00007FFFC000
00001FFFC000
00001FFFE000
00007FFFE000
0000FFFFF000
0003FFFFF000
000FFE7FF800
0007F83FF800
0007E03FFC00
0003801FFC00
0001001FFE00
0000000FFE00
0003FE0FFE00
001FFFC7FF00
007FFFF7FF00
00FFFFFFFF00
03FFFFFFFF00
07FFFFFFFF00
0FFFFFFFFF80
0FFFFFFFFF80
1FFFFFFFFF80
1FFF003FFF80
3FFE000FFF80
3FFC0003FF80
7FF80003FF80
7FF00003FF80
7FF00003FF80
7FF00003FF80
7FE00003FF80
FFE00003FF80
FFE00003FF80
FFE00003FF80
FFE00003FF00
7FE00003FF00
7FE00007FF00
7FF00007FF00
7FF0000FFE00
7FF8000FFE00
3FFC001FFC00
3FFE003FFC00
1FFF00FFF800
1FFFFFFFF800
0FFFFFFFF000
07FFFFFFE000
03FFFFFFC000
01FFFFFF8000
00FFFFFF0000
003FFFFC0000
000FFFF00000
0001FF800000
ENDCHAR
STARTCHAR ntilde
ENCODING 241
SWIDTH 600 0
DWIDTH 47 0
BBX 37 59 5 0
BITMAP
003E001E00
00FFC03F00
01FFF07F00
03FFFFFF00
07FFFFFE00
07FFFFFE00
07FFFFFC00
0FE0FFF800
0FC03FF000
07C00FC000
0000000000
0000000000
0000000000
0000000000
0000000000
0000000000
0000000000
00001FE000
FFC0FFFC00
FFC1FFFF00
FFC7FFFF80
FFCFFFFFC0
FFDFFFFFC0
FFFFFFFFE0
FFFFFFFFF0
FFFFFFFFF0
FFFC01FFF0
FFF8007FF8
FFF0007FF8
FFE0003FF8
FFE0003FF8
FFE0003FF8
FFE0001FF8
FFE0001FF8
FFE0001FF8
FFE0001FF8
FFE0001FF8
FFE0001FF8
FFE0001FF8
FFE0001FF8
FFE0001FF8
FFE0001FF8
FFE0001FF8
FFE0001FF8
FFE0001FF8
FFE0001FF8
FFE0001FF8
FFE0001FF8
FFE0001FF8
FFE0001FF8
FFE0001FF8
FFE0001FF8
FFE0001FF8
FFE0001FF8
FFE0001FF8
FFE0001FF8
FFE0001FF8
FFE0001FF8
FFE0001FF8
ENDCHAR
STARTCHAR ograve
ENCODING 242
SWIDTH 600 0
DWIDTH 47 0
BBX 39 59 4 -1
BITMAP
03FFC00000
01FFC00000
00FFE00000
007FE00000
003FF00000
001FF80000
001FF80000
000FFC0000
0007FC0000
0003FE0000
0001FF0000
0000000000
0000000000
0000000000
0000000000
0000000000
0001FF0000
001FFFE000
007FFFF800
00FFFFFE00
01FFFFFF00
03FFFFFF80
07FFFFFFC0
0FFFFFFFE0
1FFFFFFFF0
1FFE01FFF0
3FFC007FF8
3FF8003FF8
7FF0003FF8
7FF0001FFC
7FE0001FFC
FFE0001FFC
FFE0000FFC
FFE0000FFE
FFE0000FFE
FFE0000FFE
FFE0000FFE
FFE0000FFE
FFE0000FFE
FFE0000FFE
FFE0000FFE
FFE0000FFE
FFE0000FFC
FFE0001FFC
7FE0001FFC
7FF0001FFC
7FF0003FF8
3FF8003FF8
3FFC007FF8
1FFE01FFF0
1FFFFFFFF0
0FFFFFFFE0
07FFFFFFC0
07FFFFFF80
03FFFFFF00
00FFFFFE00
007FFFF800
001FFFE000
0001FF0000
ENDCHAR
STARTCHAR oacute
ENCODING 243
SWIDTH 600 0
DWIDTH 47 0
BBX 39 59 4 -1
BITMAP
000003FFC0
000007FF80
000007FF00
00000FFE00
00001FFC00
00001FF800
00003FF000
00007FE000
00007FC000
0000FF8000
0001FF0000
0000000000
0000000000
0000000000
0000000000
0000000000
0001FF0000
001FFFE000
007FFFF800
00FFFFFE00
01FFFFFF00
03FFFFFF80
07FFFFFFC0
0FFFFFFFE0
1FFFFFFFF0
1FFE01FFF0
3FFC007FF8
3FF8003FF8
7FF0003FF8
7FF0001FFC
7FE0001FFC
FFE0001FFC
FFE0000FFC
FFE0000FFE
FFE0000FFE
FFE0000FFE
FFE0000FFE
FFE0000FFE
FFE0000FFE
FFE0000FFE
FFE0000FFE
FFE0000FFE
FFE0000FFC
FFE0001FFC
7FE0001FFC
7FF0001FFC
7FF0003FF8
3FF8003FF8
3FFC007FF8
1FFE01FFF0
1FFFFFFFF0
0FFFFFFFE0
07FFFFFFC0
07FFFFFF80
03FFFFFF00
00FFFFFE00
007FFFF800
001FFFE000
0001FF0000
ENDCHAR
STARTCHAR ocircumflex
ENCODING 244
SWIDTH 600 0
DWIDTH 47 0
BBX 39 60 4 -1
BITMAP
0000FE0000
0001FF0000
0003FFC000
000FFFE000
001FFFF000
003FFFF800
007FE7FC00
00FF83FF00
03FF01FF80
03FE00FFC0
0000000000
0000000000
0000000000
0000000000
0000000000
0000000000
0000000000
0001FF0000
001FFFE000
007FFFF800
00FFFFFE00
01FFFFFF00
03FFFFFF80
07FFFFFFC0
0FFFFFFFE0
1FFFFFFFF0
1FFE01FFF0
3FFC007FF8
3FF8003FF8
7FF0003FF8
7FF0001FFC
7FE0001FFC
FFE0001FFC
FFE0000FFC
FFE0000FFE
FFE0000FFE
FFE0000FFE
FFE0000FFE
FFE0000FFE
FFE0000FFE
FFE0000FFE
FFE0000FFE
FFE0000FFE
FFE0000FFC
FFE0001FFC
7FE0001FFC
7FF0001FFC
7FF0003FF8
3FF8003FF8
3FFC007FF8
1FFE01FFF0
1FFFFFFFF0
0FFFFFFFE0
07FFFFFFC0
07FFFFFF80
03FFFFFF00
00FFFFFE00
007FFFF800
001FFFE000
0001FF0000
ENDCHAR
STARTCHAR otilde
ENCODING 245
SWIDTH 600 0
DWIDTH 47 0
BBX 39 60 4 -1
BITMAP
001F800F00
003FE00F80
00FFFC1F80
00FFFFFF80
01FFFFFF80
01FFFFFF00
03FFFFFF00
03F87FFE00
03F00FFC00
01E003F000
0000000000
0000000000
0000000000
0000000000
0000000000
0000000000
0000000000
0001FF0000
001FFFE000
007FFFF800
00FFFFFE00
01FFFFFF00
03FFFFFF80
07FFFFFFC0
0FFFFFFFE0
1FFFFFFFF0
1FFE01FFF0
3FFC007FF8
3FF8003FF8
7FF0003FF8
7FF0001FFC
7FE0001FFC
FFE0001FFC
FFE0000FFC
FFE0000FFE
FFE0000FFE
FFE0000FFE
FFE0000FFE
FFE0000FFE
FFE0000FFE
FFE0000FFE
FFE0000FFE
FFE0000FFE
FFE0000FFC
FFE0001FFC
7FE0001FFC
7FF0001FFC
7FF0003FF8
3FF8003FF8
3FFC007FF8
1FFE01FFF0
1FFFFFFFF0
0FFFFFFFE0
07FFFFFFC0
07FFFFFF80
03FFFFFF00
00FFFFFE00
007FFFF800
001FFFE000
0001FF0000
ENDCHAR
STARTCHAR odieresis
ENCODING 246
SWIDTH 600 0
DWIDTH 47 0
BBX 39 58 4 -1
BITMAP
00F8003E00
03FC007F80
03FE00FF80
07FE01FFC0
07FE01FFC0
07FE00FFC0
03FE00FF80
03FC007F80
00F8003E00
0000000000
0000000000
0000000000
0000000000
0000000000
0000000000
0001FF0000
001FFFE000
007FFFF800
00FFFFFE00
01FFFFFF00
03FFFFFF80
07FFFFFFC0
0FFFFFFFE0
1FFFFFFFF0
1FFE01FFF0
3FFC007FF8
3FF8003FF8
7FF0003FF8
7FF0001FFC
7FE0001FFC
FFE0001FFC
FFE0000FFC
FFE0000FFE
FFE0000FFE
FFE0000FFE
FFE0000FFE
FFE0000FFE
FFE0000FFE
FFE0000FFE
FFE0000FFE
FFE0000FFE
FFE0000FFC
FFE0001FFC
7FE0001FFC
7FF0001FFC
7FF0003FF8
3FF8003FF8
3FFC007FF8
1FFE01FFF0
1FFFFFFFF0
0FFFFFFFE0
07FFFFFFC0
07FFFFFF80
03FFFFFF00
00FFFFFE00
007FFFF800
001FFFE000
0001FF0000
ENDCHAR
STARTCHAR divide
ENCODING 247
SWIDTH 600 0
DWIDTH 47 0
BBX 39 42 4 5
BITMAP
00007C0000
0001FF0000
0001FF8000
0003FF8000
0003FF8000
0003FF8000
0003FF8000
0003FF8000
0001FF8000
0001FF0000
00007C0000
0000000000
0000000000
0000000000
0000000000
0000000000
0000000000
FFFFFFFFFE
FFFFFFFFFE
FFFFFFFFFE
FFFFFFFFFE
FFFFFFFFFE
FFFFFFFFFE
FFFFFFFFFE
FFFFFFFFFE
FFFFFFFFFE
0000000000
0000000000
0000000000
0000000000
0000000000
00007C0000
0001FF0000
0003FF0000
0003FF8000
0003FF8000
0003FF8000
0003FF8000
0003FF8000
0003FF0000
0001FF0000
00007C0000
ENDCHAR
STARTCHAR oslash
ENCODING 248
SWIDTH 600 0
DWIDTH 47 0
BBX 39 51 4 -5
BITMAP
00000007E0
00000007E0
0000000FC0
0000000FC0
0001FF1F80
001FFFFF80
007FFFFF00
00FFFFFF00
01FFFFFF00
03FFFFFF80
07FFFFFFC0
0FFFFFFFE0
1FFFFFFFF0
1FFE01FFF0
3FFC03FFF8
3FF803FFF8
7FF007FFF8
7FF007FFFC
7FE00FDFFC
FFE00FDFFC
FFE01F8FFC
FFE01F8FFE
FFE03F0FFE
FFE03F0FFE
FFE07E0FFE
FFE07E0FFE
FFE0FC0FFE
FFE0FC0FFE
FFE1F80FFE
FFE1F80FFE
FFE3F00FFC
FFE3F00FFC
7FE7E01FFC
7FF7E01FFC
7FFFC03FF8
3FFFC03FF8
3FFF807FF8
1FFF81FFF0
1FFFFFFFF0
0FFFFFFFE0
07FFFFFFC0
07FFFFFF80
03FFFFFF00
00FFFFFE00
00FFFFF800
01FFFFE000
01F9FF0000
03F0000000
03F0000000
07E0000000
0FE0000000
ENDCHAR
STARTCHAR ugrave
ENCODING 249
SWIDTH 600 0
DWIDTH 47 0
BBX 36 58 6 -1
BITMAP
0FFF000000
07FF000000
03FF800000
01FF800000
00FFC00000
007FE00000
003FE00000
003FF00000
001FF00000
000FF80000
0007FC0000
0000000000
0000000000
0000000000
0000000000
0000000000
FFC0007FF0
FFC0007FF0
FFC0007FF0
FFC0007FF0
FFC0007FF0
FFC0007FF0
FFC0007FF0
FFC0007FF0
FFC0007FF0
FFC0007FF0
FFC0007FF0
FFC0007FF0
FFC0007FF0
FFC0007FF0
FFC0007FF0
FFC0007FF0
FFC0007FF0
FFC0007FF0
FFC0007FF0
FFC0007FF0
FFC0007FF0
FFC0007FF0
FFC0007FF0
FFC0007FF0
FFC0007FF0
FFC0007FF0
FFC0007FF0
FFC0007FF0
FFE0007FF0
FFE0007FF0
FFE000FFF0
7FF001FFF0
7FF803FFF0
7FFFFFFFF0
3FFFFFFFF0
3FFFFFBFF0
1FFFFFBFF0
1FFFFF3FF0
0FFFFE3FF0
07FFFC3FF0
01FFF03FF0
003FC00000
ENDCHAR
STARTCHAR uacute
ENCODING 250
SWIDTH 600 0
DWIDTH 47 0
BBX 36 58 6 -1
BITMAP
00000FFF00
00001FFE00
00001FFC00
00003FF800
00007FF000
00007FE000
0000FFC000
0001FF8000
0001FF0000
0003FE0000
0007FC0000
0000000000
0000000000
0000000000
0000000000
0000000000
FFC0007FF0
FFC0007FF0
FFC0007FF0
FFC0007FF0
FFC0007FF0
FFC0007FF0
FFC0007FF0
FFC0007FF0
FFC0007FF0
FFC0007FF0
FFC0007FF0
FFC0007FF0
FFC0007FF0
FFC0007FF0
FFC0007FF0
FFC0007FF0
FFC0007FF0
FFC0007FF0
FFC0007FF0
FFC0007FF0
FFC0007FF0
FFC0007FF0
FFC0007FF0
FFC0007FF0
FFC0007FF0
FFC0007FF0
FFC0007FF0
FFC0007FF0
FFE0007FF0
FFE0007FF0
FFE000FFF0
7FF001FFF0
7FF803FFF0
7FFFFFFFF0
3FFFFFFFF0
3FFFFFBFF0
1FFFFFBFF0
1FFFFF3FF0
0FFFFE3FF0
07FFFC3FF0
01FFF03FF0
003FC00000
ENDCHAR
STARTCHAR ucircumflex
ENCODING 251
SWIDTH 600 0
DWIDTH 47 0
BBX 36 59 6 -1
BITMAP
0003F80000
0007FE0000
000FFF0000
003FFF8000
007FFFC000
00FFFFE000
01FF9FF800
03FE0FFC00
07FC07FE00
0FF803FF00
0000000000
0000000000
0000000000
0000000000
0000000000
0000000000
0000000000
FFC0007FF0
FFC0007FF0
FFC0007FF0
FFC0007FF0
FFC0007FF0
FFC0007FF0
FFC0007FF0
FFC0007FF0
FFC0007FF0
FFC0007FF0
FFC0007FF0
FFC0007FF0
FFC0007FF0
FFC0007FF0
FFC0007FF0
FFC0007FF0
FFC0007FF0
FFC0007FF0
FFC0007FF0
FFC0007FF0
FFC0007FF0
FFC0007FF0
FFC0007FF0
FFC0007FF0
FFC0007FF0
FFC0007FF0
FFC0007FF0
FFC0007FF0
FFE0007FF0
FFE0007FF0
FFE000FFF0
7FF001FFF0
7FF803FFF0
7FFFFFFFF0
3FFFFFFFF0
3FFFFFBFF0
1FFFFFBFF0
1FFFFF3FF0
0FFFFE3FF0
07FFFC3FF0
01FFF03FF0
003FC00000
ENDCHAR
STARTCHAR udieresis
ENCODING 252
SWIDTH 600 0
DWIDTH 47 0
BBX 36 57 6 -1
BITMAP
03E000F800
0FF001FE00
0FF803FE00
1FF803FF00
1FFC07FF00
1FF803FF00
0FF803FE00
0FF001FE00
03E000F800
0000000000
0000000000
0000000000
0000000000
0000000000
0000000000
FFC0007FF0
FFC0007FF0
FFC0007FF0
FFC0007FF0
FFC0007FF0
FFC0007FF0
FFC0007FF0
FFC0007FF0
FFC0007FF0
FFC0007FF0
FFC0007FF0
FFC0007FF0
FFC0007FF0
FFC0007FF0
FFC0007FF0
FFC0007FF0
FFC0007FF0
FFC0007FF0
FFC0007FF0
FFC0007FF0
FFC0007FF0
FFC0007FF0
FFC0007FF0
FFC0007FF0
FFC0007FF0
FFC0007FF0
FFC0007FF0
FFC0007FF0
FFE0007FF0
FFE0007FF0
FFE000FFF0
7FF001FFF0
7FF803FFF0
7FFFFFFFF0
3FFFFFFFF0
3FFFFFBFF0
1FFFFFBFF0
1FFFFF3FF0
0FFFFE3FF0
07FFFC3FF0
01FFF03FF0
003FC00000
ENDCHAR
STARTCHAR yacute
ENCODING 253
SWIDTH 600 0
DWIDTH 47 0
BBX 45 74 2 -17
BITMAP
0000007FF800
000000FFE000
000000FFE000
000001FFC000
000003FF8000
000003FF0000
000007FE0000
00000FFC0000
00000FF80000
00001FF00000
00003FE00000
000000000000
000000000000
000000000000
000000000000
000000000000
FFF000007FF8
7FF000007FF0
7FF80000FFF0
3FF80000FFE0
3FF80001FFE0
3FFC0001FFC0
1FFC0001FFC0
1FFC0003FFC0
0FFE0003FF80
0FFE0007FF80
07FF0007FF00
07FF0007FF00
07FF000FFE00
03FF800FFE00
03FF800FFC00
01FFC01FFC00
01FFC01FFC00
00FFC03FF800
00FFE03FF800
007FE03FF000
007FE07FF000
007FF07FE000
003FF07FE000
003FF8FFC000
001FF8FFC000
001FF9FFC000
000FFDFF8000
000FFDFF8000
000FFFFF0000
0007FFFF0000
0007FFFE0000
0003FFFE0000
0003FFFE0000
0001FFFC0000
0001FFFC0000
0000FFF80000
0000FFF80000
0000FFF00000
00007FF00000
00007FE00000
00007FE00000
00007FE00000
0000FFC00000
0001FFC00000
0001FF800000
0003FF800000
0003FF000000
0007FF000000
000FFE000000
03FFFE000000
03FFFC000000
03FFFC000000
03FFF8000000
07FFF0000000
07FFE0000000
07FFC0000000
07FF00000000
03FC00000000
ENDCHAR
STARTCHAR thorn
ENCODING 254
SWIDTH 600 0
DWIDTH 47 0
BBX 36 75 6 -16
BITMAP
FFC0000000
FFC0000000
FFC0000000
FFC0000000
FFC0000000
FFC0000000
FFC0000000
FFC0000000
FFC0000000
FFC0000000
FFC0000000
FFC0000000
FFC0000000
FFC0000000
FFC0000000
FFC0000000
FFC0000000
FFC0FF0000
FFC3FFE000
FFCFFFF800
FFDFFFFC00
FFFFFFFE00
FFFFFFFF00
FFFFFFFF80
FFFFFFFF80
FFFFFFFFC0
FFF807FFC0
FFF001FFE0
FFE001FFE0
FFC000FFE0
FFC000FFF0
FFC0007FF0
FFC0007FF0
FFC0007FF0
FFC0003FF0
FFC0003FF0
FFC0003FF0
FFC0003FF0
FFC0003FF0
FFC0003FF0
FFC0003FF0
FFC0003FF0
FFC0003FF0
FFC0007FF0
FFC0007FF0
FFC0007FF0
FFC0007FF0
FFC000FFE0
FFE001FFE0
FFF001FFE0
FFF807FFC0
FFFFFFFFC0
FFFFFFFF80
FFFFFFFF80
FFFFFFFF00
FFFFFFFE00
FFDFFFFC00
FFCFFFF800
FFC3FFE000
FFC0FF0000
FFC0000000
FFC0000000
FFC0000000
FFC0000000
FFC0000000
FFC0000000
FFC0000000
FFC0000000
FFC0000000
FFC0000000
FFC0000000
FFC0000000
FFC0000000
FFC0000000
FFC0000000
ENDCHAR
STARTCHAR ydieresis
ENCODING 255
SWIDTH 600 0
DWIDTH 47 0
BBX 45 73 2 -17
BITMAP
001F0007C000
007F800FF000
007FC01FF000
00FFC03FF800
00FFC03FF800
00FFC03FF800
007FC01FF000
007F800FE000
001F0007C000
000000000000
000000000000
000000000000
000000000000
000000000000
000000000000
FFF000007FF8
7FF000007FF0
7FF80000FFF0
3FF80000FFE0
3FF80001FFE0
3FFC0001FFC0
1FFC0001FFC0
1FFC0003FFC0
0FFE0003FF80
0FFE0007FF80
07FF0007FF00
07FF0007FF00
07FF000FFE00
03FF800FFE00
03FF800FFC00
01FFC01FFC00
01FFC01FFC00
00FFC03FF800
00FFE03FF800
007FE03FF000
007FE07FF000
007FF07FE000
003FF07FE000
003FF8FFC000
001FF8FFC000
001FF9FFC000
000FFDFF8000
000FFDFF8000
000FFFFF0000
0007FFFF0000
0007FFFE0000
0003FFFE0000
0003FFFE0000
0001FFFC0000
0001FFFC0000
0000FFF80000
0000FFF80000
0000FFF00000
00007FF00000
00007FE00000
00007FE00000
00007FE00000
0000FFC00000
0001FFC00000
0001FF800000
0003FF800000
0003FF000000
0007FF000000
000FFE000000
03FFFE000000
03FFFC000000
03FFFC000000
03FFF8000000
07FFF0000000
07FFE0000000
07FFC0000000
07FF00000000
03FC00000000
ENDCHAR
STARTCHAR Amacron
ENCODING 256
SWIDTH 600 0
DWIDTH 47 0
BBX 46 67 1 0
BITMAP
007FFFFFF800
007FFFFFF800
007FFFFFF800
007FFFFFF800
007FFFFFF800
007FFFFFF800
000000000000
000000000000
000000000000
000000000000
000000000000
000000000000
00003FF00000
00003FF00000
00007FF80000
00007FF80000
00007FF80000
0000FFFC0000
0000FFFC0000
0000FFFC0000
0001FFFE0000
0001FFFE0000
0001FFFE0000
0003FFFF0000
0003FFFF0000
0003FFFF0000
0007FFFF8000
0007FFFF8000
0007FCFF8000
000FFCFFC000
000FFCFFC000
000FFC7FC000
001FF87FE000
001FF87FE000
001FF87FE000
003FF03FF000
003FF03FF000
003FF03FF000
007FF01FF800
007FE01FF800
007FE01FF800
00FFE01FFC00
00FFC00FFC00
00FFC00FFC00
01FFC00FFC00
01FFC00FFE00
01FFFFFFFE00
03FFFFFFFE00
03FFFFFFFF00
03FFFFFFFF00
03FFFFFFFF00
07FFFFFFFF80
07FFFFFFFF80
07FFFFFFFF80
0FFFFFFFFFC0
0FFC0001FFC0
0FFC0000FFC0
1FFC0000FFE0
1FFC0000FFE0
1FF80000FFE0
3FF800007FF0
3FF800007FF0
3FF800007FF0
7FF000003FF8
7FF000003FF8
7FF000003FF8
FFE000003FFC
ENDCHAR
STARTCHAR amacron
ENCODING 257
SWIDTH 600 0
DWIDTH 47 0
BBX 38 56 4 -1
BITMAP
07FFFFFF80
07FFFFFF80
07FFFFFF80
07FFFFFF80
07FFFFFF80
07FFFFFF80
0000000000
0000000000
0000000000
0000000000
0000000000
0000000000
0000000000
0003FF0000
003FFFE000
00FFFFF800
03FFFFFE00
07FFFFFF00
0FFFFFFF80
1FFFFFFFC0
1FFFFFFFC0
3FFFFFFFE0
3FFC01FFE0
3FF800FFF0
7FF0007FF0
7FF0007FF0
0000003FF0
0000003FF0
0000003FF0
0000003FF0
0007FFFFF0
007FFFFFF0
01FFFFFFF0
07FFFFFFF0
0FFFFFFFF0
1FFFFFFFF0
3FFF003FF0
3FFC003FF0
7FF0003FF0
7FF0003FF0
7FE0003FF0
FFE0003FF0
FFE0003FF0
FFE0007FF0
FFE0007FF0
FFF001FFF0
7FF803FFF0
7FFFFFFFF0
7FFFFFFFF0
3FFFFFFFF0
1FFFFFFFF8
1FFFFFFFF8
0FFFFFBFF8
03FFFE1FF8
01FFFC1FFC
003FE00000
ENDCHAR
STARTCHAR Abreve
ENCODING 258
SWIDTH 600 0
DWIDTH 47 0
BBX 46 71 1 0
BITMAP
003FC00FF000
003FC00FF000
003FC00FF000
001FE01FF000
001FF03FE000
000FFFFFE000
000FFFFFC000
0007FFFF8000
0003FFFF0000
0000FFFC0000
00001FE00000
000000000000
000000000000
000000000000
000000000000
000000000000
00003FF00000
00003FF00000
00007FF80000
00007FF80000
00007FF80000
0000FFFC0000
0000FFFC0000
0000FFFC0000
0001FFFE0000
0001FFFE0000
0001FFFE0000
0003FFFF0000
0003FFFF0000
0003FFFF0000
0007FFFF8000
0007FFFF8000
0007FCFF8000
000FFCFFC000
000FFCFFC000
000FFC7FC000
001FF87FE000
001FF87FE000
001FF87FE000
003FF03FF000
003FF03FF000
003FF03FF000
007FF01FF800
007FE01FF800
007FE01FF800
00FFE01FFC00
00FFC00FFC00
00FFC00FFC00
01FFC00FFC00
01FFC00FFE00
01FFFFFFFE00
03FFFFFFFE00
03FFFFFFFF00
03FFFFFFFF00
03FFFFFFFF00
07FFFFFFFF80
07FFFFFFFF80
07FFFFFFFF80
0FFFFFFFFFC0
0FFC0001FFC0
0FFC0000FFC0
1FFC0000FFE0
1FFC0000FFE0
1FF80000FFE0
3FF800007FF0
3FF800007FF0
3FF800007FF0
7FF000003FF8
7FF000003FF8
7FF000003FF8
FFE000003FFC
ENDCHAR
STARTCHAR abreve
ENCODING 259
SWIDTH 600 0
DWIDTH 47 0
BBX 38 60 4 -1
BITMAP
03F800FF00
03FC00FF00
03FC00FE00
03FE01FE00
01FF07FE00
01FFFFFC00
00FFFFFC00
007FFFF800
003FFFF000
000FFFC000
0003FE0000
0000000000
0000000000
0000000000
0000000000
0000000000
0000000000
0003FF0000
003FFFE000
00FFFFF800
03FFFFFE00
07FFFFFF00
0FFFFFFF80
1FFFFFFFC0
1FFFFFFFC0
3FFFFFFFE0
3FFC01FFE0
3FF800FFF0
7FF0007FF0
7FF0007FF0
0000003FF0
0000003FF0
0000003FF0
0000003FF0
0007FFFFF0
007FFFFFF0
01FFFFFFF0
07FFFFFFF0
0FFFFFFFF0
1FFFFFFFF0
3FFF003FF0
3FFC003FF0
7FF0003FF0
7FF0003FF0
7FE0003FF0
FFE0003FF0
FFE0003FF0
FFE0007FF0
FFE0007FF0
FFF001FFF0
7FF803FFF0
7FFFFFFFF0
7FFFFFFFF0
3FFFFFFFF0
1FFFFFFFF8
1FFFFFFFF8
0FFFFFBFF8
03FFFE1FF8
01FFFC1FFC
003FE00000
ENDCHAR
STARTCHAR Aogonek
ENCODING 260
SWIDTH 600 0
DWIDTH 47 0
BBX 46 71 1 -16
BITMAP
00003FF00000
00003FF00000
00007FF80000
00007FF80000
00007FF80000
0000FFFC0000
0000FFFC0000
0000FFFC0000
0001FFFE0000
0001FFFE0000
0001FFFE0000
0003FFFF0000
0003FFFF0000
0003FFFF0000
0007FFFF8000
0007FFFF8000
0007FCFF8000
000FFCFFC000
000FFCFFC000
000FFC7FC000
001FF87FE000
001FF87FE000
001FF87FE000
003FF03FF000
003FF03FF000
003FF03FF000
007FF01FF800
007FE01FF800
007FE01FF800
00FFE01FFC00
00FFC00FFC00
00FFC00FFC00
01FFC00FFC00
01FFC00FFE00
01FFFFFFFE00
03FFFFFFFE00
03FFFFFFFF00
03FFFFFFFF00
03FFFFFFFF00
07FFFFFFFF80
07FFFFFFFF80
07FFFFFFFF80
0FFFFFFFFFC0
0FFC0001FFC0
0FFC0000FFC0
1FFC0000FFE0
1FFC0000FFE0
1FF80000FFE0
3FF800007FF0
3FF800007FF0
3FF800007FF0
7FF000003FF8
7FF000003FF8
7FF000003FF8
FFE000003FFC
000000007FC0
00000000FF00
00000001FE00
00000003FC00
00000003FC00
00000003F800
00000007F800
00000007F800
00000007FC20
00000007FFE0
00000007FFF0
00000003FFF0
00000003FFF0
00000001FFF8
00000000FFF0
000000003FC0
ENDCHAR
STARTCHAR aogonek
ENCODING 261
SWIDTH 600 0
DWIDTH 47 0
BBX 38 58 4 -16
BITMAP
0003FF0000
003FFFE000
00FFFFF800
03FFFFFE00
07FFFFFF00
0FFFFFFF80
1FFFFFFFC0
1FFFFFFFE0
3FFFFFFFE0
3FFC01FFE0
3FF800FFF0
7FF0007FF0
7FF0007FF0
0000003FF0
0000003FF0
0000003FF0
0000003FF0
0007FFFFF0
007FFFFFF0
01FFFFFFF0
07FFFFFFF0
0FFFFFFFF0
1FFFFFFFF0
3FFF003FF0
3FFC003FF0
7FF0003FF0
7FF0003FF0
7FE0003FF0
FFE0003FF0
FFE0003FF0
FFE0007FF0
FFE0007FF0
FFF001FFF0
7FF803FFF0
7FFFFFFFF0
7FFFFFFFF0
3FFFFFFFF0
1FFFFFFFF8
1FFFFFFFF8
0FFFFFBFF8
03FFFE1FF8
01FFFC1FFC
003FE03FE0
0000007F80
000000FF00
000001FE00
000001FC00
000003FC00
000003FC00
000003FC00
000003FE10
000003FFF0
000003FFF0
000001FFF8
000001FFF8
000000FFF8
0000007FF8
0000001FC0
ENDCHAR
STARTCHAR Cacute
ENCODING 262
SWIDTH 600 0
DWIDTH 47 0
BBX 41 71 3 -1
BITMAP
0000007FF800
0000007FF000
000000FFE000
000001FFC000
000001FF8000
000003FF0000
000007FE0000
000007FC0000
00000FF80000
00000FF00000
00001FE00000
000000000000
000000000000
000000000000
0000FFC00000
0007FFF80000
001FFFFE0000
007FFFFF8000
00FFFFFFC000
01FFFFFFE000
03FFFFFFF000
07FFFFFFF800
0FFFFFFFFC00
0FFF007FFC00
1FFE001FFE00
1FFC000FFE00
3FF8000FFE00
3FF80007FF00
3FF00007FF00
7FF00007FF00
7FF00003FF00
7FE00003FF00
7FE00003FF80
FFE000000000
FFE000000000
FFE000000000
FFE000000000
FFE000000000
FFE000000000
FFE000000000
FFE000000000
FFE000000000
FFE000000000
FFE000000000
FFE000000000
FFE000000000
FFE000000000
FFE000000000
FFE000000000
FFE000000000
FFE000000000
FFE000000000
FFE000000080
7FE00003FF00
7FF00003FF00
7FF00007FF00
7FF00007FF00
3FF80007FF00
3FF8000FFE00
1FFC000FFE00
1FFE001FFE00
0FFF007FFC00
0FFFFFFFFC00
07FFFFFFF800
03FFFFFFF000
01FFFFFFE000
00FFFFFFC000
007FFFFF8000
003FFFFE0000
000FFFF80000
0000FF800000
ENDCHAR
STARTCHAR cacute
ENCODING 263
SWIDTH 600 0
DWIDTH 47 0
BBX 37 59 4 -1
BITMAP
000003FFC0
000003FF80
000007FF00
00000FFE00
00000FFC00
00001FF800
00003FF000
00003FE000
00007FC000
0000FF8000
0001FF0000
0000000000
0000000000
0000000000
0000000000
0000000000
0001FF0000
000FFFF000
003FFFFC00
00FFFFFE00
01FFFFFF80
03FFFFFF80
07FFFFFFC0
0FFFFFFFE0
0FFFFFFFF0
1FFF00FFF0
1FFC007FF0
3FF8003FF8
3FF8003FF8
7FF0001FF8
7FF0001FF8
7FF0001FF8
7FE0000000
7FE0000000
7FE0000000
FFE0000000
FFE0000000
FFE0000000
FFE0000000
FFE0000000
7FE0000000
7FE0000000
7FE0000000
7FF0000000
7FF0001FF8
7FF0001FF8
3FF8001FF8
3FF8003FF8
1FFC007FF8
1FFF00FFF0
0FFFFFFFF0
0FFFFFFFE0
07FFFFFFC0
03FFFFFF80
01FFFFFF00
00FFFFFE00
003FFFFC00
000FFFE000
0001FF0000
ENDCHAR
STARTCHAR Ccircumflex
ENCODING 264
SWIDTH 600 0
DWIDTH 47 0
BBX 41 72 3 -1
BITMAP
00001FE00000
00003FF00000
00007FF80000
0000FFFC0000
0001FFFE0000
0007FFFF8000
000FFCFFC000
001FF87FE000
003FF01FF000
007FC00FF800
000000000000
000000000000
000000000000
000000000000
000000000000
0000FFC00000
0007FFF80000
001FFFFE0000
007FFFFF8000
00FFFFFFC000
01FFFFFFE000
03FFFFFFF000
07FFFFFFF800
0FFFFFFFFC00
0FFF007FFC00
1FFE001FFE00
1FFC000FFE00
3FF8000FFE00
3FF80007FF00
3FF00007FF00
7FF00007FF00
7FF00003FF00
7FE00003FF00
7FE00003FF80
FFE000000000
FFE000000000
FFE000000000
FFE000000000
FFE000000000
FFE000000000
FFE000000000
FFE000000000
FFE000000000
FFE000000000
FFE000000000
FFE000000000
FFE000000000
FFE000000000
FFE000000000
FFE000000000
FFE000000000
FFE000000000
FFE000000000
FFE000000080
7FE00003FF00
7FF00003FF00
7FF00007FF00
7FF00007FF00
3FF80007FF00
3FF8000FFE00
1FFC000FFE00
1FFE001FFE00
0FFF007FFC00
0FFFFFFFFC00
07FFFFFFF800
03FFFFFFF000
01FFFFFFE000
00FFFFFFC000
007FFFFF8000
003FFFFE0000
000FFFF80000
0000FF800000
ENDCHAR
STARTCHAR ccircumflex
ENCODING 265
SWIDTH 600 0
DWIDTH 47 0
BBX 37 60 4 -1
BITMAP
0000FF0000
0001FF8000
0003FFC000
0007FFE000
000FFFF000
003FFFFC00
007FE7FE00
00FFC3FF00
01FF01FF80
03FE007FC0
0000000000
0000000000
0000000000
0000000000
0000000000
0000000000
0000000000
0001FF0000
000FFFF000
003FFFFC00
00FFFFFE00
01FFFFFF80
03FFFFFF80
07FFFFFFC0
0FFFFFFFE0
0FFFFFFFF0
1FFF00FFF0
1FFC007FF0
3FF8003FF8
3FF8003FF8
7FF0001FF8
7FF0001FF8
7FF0001FF8
7FE0000000
7FE0000000
7FE0000000
FFE0000000
FFE0000000
FFE0000000
FFE0000000
FFE0000000
7FE0000000
7FE0000000
7FE0000000
7FF0000000
7FF0001FF8
7FF0001FF8
3FF8001FF8
3FF8003FF8
1FFC007FF8
1FFF00FFF0
0FFFFFFFF0
0FFFFFFFE0
07FFFFFFC0
03FFFFFF80
01FFFFFF00
00FFFFFE00
003FFFFC00
000FFFE000
0001FF0000
ENDCHAR
STARTCHAR uni010A
ENCODING 266
SWIDTH 600 0
DWIDTH 47 0
BBX 41 73 3 -1
BITMAP
00000FC00000
00001FE00000
00003FF00000
00003FF00000
00007FF80000
00007FF80000
00007FF80000
00003FF00000
00003FF00000
00001FE00000
00000FC00000
000000000000
000000000000
000000000000
000000000000
000000000000
0000FFC00000
0007FFF80000
001FFFFE0000
007FFFFF8000
00FFFFFFC000
01FFFFFFE000
03FFFFFFF000
07FFFFFFF800
0FFFFFFFFC00
0FFF007FFC00
1FFE001FFE00
1FFC000FFE00
3FF8000FFE00
3FF80007FF00
3FF00007FF00
7FF00007FF00
7FF00003FF00
7FE00003FF00
7FE00003FF80
FFE000000000
FFE000000000
FFE000000000
FFE000000000
FFE000000000
FFE000000000
FFE000000000
FFE000000000
FFE000000000
FFE000000000
FFE000000000
FFE000000000
FFE000000000
FFE000000000
FFE000000000
FFE000000000
FFE000000000
FFE000000000
FFE000000000
FFE000000080
7FE00003FF00
7FF00003FF00
7FF00007FF00
7FF00007FF00
3FF80007FF00
3FF8000FFE00
1FFC000FFE00
1FFE001FFE00
0FFF007FFC00
0FFFFFFFFC00
07FFFFFFF800
03FFFFFFF000
01FFFFFFE000
00FFFFFFC000
007FFFFF8000
003FFFFE0000
000FFFF80000
0000FF800000
ENDCHAR
STARTCHAR uni010B
ENCODING 267
SWIDTH 600 0
DWIDTH 47 0
BBX 37 61 4 -1
BITMAP
00007C0000
0000FF0000
0001FF8000
0003FF8000
0003FF8000
0003FFC000
0003FF8000
0003FF8000
0001FF8000
0000FF0000
00007C0000
0000000000
0000000000
0000000000
0000000000
0000000000
0000000000
0000000000
0001FF0000
000FFFF000
003FFFFC00
00FFFFFE00
01FFFFFF80
03FFFFFF80
07FFFFFFC0
0FFFFFFFE0
0FFFFFFFF0
1FFF00FFF0
1FFC007FF0
3FF8003FF8
3FF8003FF8
7FF0001FF8
7FF0001FF8
7FF0001FF8
7FE0000000
7FE0000000
7FE0000000
FFE0000000
FFE0000000
FFE0000000
FFE0000000
FFE0000000
7FE0000000
7FE0000000
7FE0000000
7FF0000000
7FF0001FF8
7FF0001FF8
3FF8001FF8
3FF8003FF8
1FFC007FF8
1FFF00FFF0
0FFFFFFFF0
0FFFFFFFE0
07FFFFFFC0
03FFFFFF80
01FFFFFF00
00FFFFFE00
003FFFFC00
000FFFE000
0001FF0000
ENDCHAR
STARTCHAR Ccaron
ENCODING 268
SWIDTH 600 0
DWIDTH 47 0
BBX 41 72 3 -1
BITMAP
00FFC00FFC00
007FE01FF800
003FF03FF000
001FF8FFC000
0007FFFF8000
0003FFFF0000
0001FFFE0000
0000FFFC0000
00007FF80000
00003FE00000
000000000000
000000000000
000000000000
000000000000
000000000000
0000FFC00000
0007FFF80000
001FFFFE0000
007FFFFF8000
00FFFFFFC000
01FFFFFFE000
03FFFFFFF000
07FFFFFFF800
0FFFFFFFFC00
0FFF007FFC00
1FFE001FFE00
1FFC000FFE00
3FF8000FFE00
3FF80007FF00
3FF00007FF00
7FF00007FF00
7FF00003FF00
7FE00003FF00
7FE00003FF80
FFE000000000
FFE000000000
FFE000000000
FFE000000000
FFE000000000
FFE000000000
FFE000000000
FFE000000000
FFE000000000
FFE000000000
FFE000000000
FFE000000000
FFE000000000
FFE000000000
FFE000000000
FFE000000000
FFE000000000
FFE000000000
FFE000000000
FFE000000080
7FE00003FF00
7FF00003FF00
7FF00007FF00
7FF00007FF00
3FF80007FF00
3FF8000FFE00
1FFC000FFE00
1FFE001FFE00
0FFF007FFC00
0FFFFFFFFC00
07FFFFFFF800
03FFFFFFF000
01FFFFFFE000
00FFFFFFC000
007FFFFF8000
003FFFFE0000
000FFFF80000
0000FF800000
ENDCHAR
STARTCHAR ccaron
ENCODING 269
SWIDTH 600 0
DWIDTH 47 0
BBX 37 60 4 -1
BITMAP
07FE007FE0
03FF00FFC0
01FF81FF80
00FFC7FE00
003FFFFC00
001FFFF800
000FFFF000
0007FFE000
0003FFC000
0001FF0000
0000000000
0000000000
0000000000
0000000000
0000000000
0000000000
0000000000
0001FF0000
000FFFF000
003FFFFC00
00FFFFFE00
01FFFFFF80
03FFFFFF80
07FFFFFFC0
0FFFFFFFE0
0FFFFFFFF0
1FFF00FFF0
1FFC007FF0
3FF8003FF8
3FF8003FF8
7FF0001FF8
7FF0001FF8
7FF0001FF8
7FE0000000
7FE0000000
7FE0000000
FFE0000000
FFE0000000
FFE0000000
FFE0000000
FFE0000000
7FE0000000
7FE0000000
7FE0000000
7FF0000000
7FF0001FF8
7FF0001FF8
3FF8001FF8
3FF8003FF8
1FFC007FF8
1FFF00FFF0
0FFFFFFFF0
0FFFFFFFE0
07FFFFFFC0
03FFFFFF80
01FFFFFF00
00FFFFFE00
003FFFFC00
000FFFE000
0001FF0000
ENDCHAR
STARTCHAR Dcaron
ENCODING 270
SWIDTH 600 0
DWIDTH 47 0
BBX 38 71 5 0
BITMAP
7FE00FFC00
3FF01FF800
1FF83FF000
0FFC7FE000
07FEFFC000
03FFFF8000
01FFFE0000
007FFC0000
003FF80000
001FF00000
0000000000
0000000000
0000000000
0000000000
0000000000
0000000000
FFFFF00000
FFFFFE0000
FFFFFFC000
FFFFFFE000
FFFFFFF800
FFFFFFFC00
FFFFFFFE00
FFFFFFFF00
FFFFFFFF80
FFE01FFFC0
FFE007FFC0
FFE001FFE0
FFE000FFF0
FFE000FFF0
FFE0007FF0
FFE0003FF8
FFE0003FF8
FFE0003FF8
FFE0001FFC
FFE0001FFC
FFE0001FFC
FFE0001FFC
FFE0001FFC
FFE0001FFC
FFE0001FFC
FFE0001FFC
FFE0001FFC
FFE0001FFC
FFE0001FFC
FFE0001FFC
FFE0001FFC
FFE0001FFC
FFE0001FFC
FFE0001FFC
FFE0001FFC
FFE0001FFC
FFE0001FFC
FFE0003FF8
FFE0003FF8
FFE0003FF8
FFE0007FF0
FFE000FFF0
FFE000FFF0
FFE001FFE0
FFE007FFC0
FFE00FFFC0
FFFFFFFF80
FFFFFFFF00
FFFFFFFE00
FFFFFFFC00
FFFFFFF800
FFFFFFE000
FFFFFFC000
FFFFFE0000
FFFFF00000
ENDCHAR
STARTCHAR dcaron
ENCODING 271
SWIDTH 673 0
DWIDTH 53 0
BBX 56 60 4 -1
BITMAP
000000000001FF
0000003FF801FF
0000003FF801FF
0000003FF801FF
0000003FF801FF
0000003FF801FF
0000003FF801FF
0000003FF801FF
0000003FF801FF
0000003FF801FE
0000003FF801FE
0000003FF801FE
0000003FF803FE
0000003FF803FC
0000003FF803FC
0000003FF807F8
0000003FF807F8
000FF03FF80FF0
003FFE3FF80FE0
00FFFF3FF803E0
01FFFFFFF801C0
03FFFFFFF80080
07FFFFFFF80000
0FFFFFFFF80000
1FFFFFFFF80000
1FFFFFFFF80000
3FFE01FFF80000
3FFC007FF80000
3FF8003FF80000
7FF8003FF80000
7FF0003FF80000
7FF0003FF80000
7FE0003FF80000
7FE0003FF80000
FFE0003FF80000
FFE0003FF80000
FFE0003FF80000
FFE0003FF80000
FFE0003FF80000
FFE0003FF80000
FFE0003FF80000
FFE0003FF80000
FFE0003FF80000
7FE0003FF80000
7FE0003FF80000
7FF0003FF80000
7FF0003FF80000
7FF8003FF80000
3FF8003FF80000
3FFC007FF80000
3FFE01FFF80000
1FFFFFFFF80000
0FFFFFFFF80000
0FFFFFFFF80000
07FFFFFFF80000
03FFFFFFF80000
01FFFFDFF80000
00FFFF1FF80000
003FFE0FF80000
000FF000000000
ENDCHAR
STARTCHAR Dcroat
ENCODING 272
SWIDTH 614 0
DWIDTH 48 0
BBX 46 55 -1 0
BITMAP
01FFFFE00000
01FFFFFC0000
01FFFFFF8000
01FFFFFFC000
01FFFFFFF000
01FFFFFFF800
01FFFFFFFC00
01FFFFFFFE00
01FFFFFFFF00
01FFC03FFF80
01FFC00FFFC0
01FFC003FFC0
01FFC001FFE0
01FFC001FFE0
01FFC000FFF0
01FFC0007FF0
01FFC0007FF0
01FFC0007FF8
01FFC0003FF8
01FFC0003FF8
01FFC0003FF8
01FFC0003FF8
01FFC0001FF8
01FFC0001FF8
FFFFFFC01FFC
FFFFFFC01FFC
FFFFFFC01FFC
FFFFFFC01FFC
FFFFFFC01FFC
FFFFFFC01FFC
FFFFFFC01FFC
01FFC0001FFC
01FFC0003FF8
01FFC0003FF8
01FFC0003FF8
01FFC0003FF8
01FFC0003FF8
01FFC0003FF8
01FFC0007FF0
01FFC0007FF0
01FFC000FFF0
01FFC000FFE0
01FFC001FFE0
01FFC003FFC0
01FFC007FFC0
01FFC01FFF80
01FFFFFFFF00
01FFFFFFFE00
01FFFFFFFC00
01FFFFFFF800
01FFFFFFF000
01FFFFFFE000
01FFFFFF8000
01FFFFFE0000
01FFFFE00000
ENDCHAR
STARTCHAR dcroat
ENCODING 273
SWIDTH 614 0
DWIDTH 48 0
BBX 44 59 4 -1
BITMAP
0000003FF800
0000003FF800
0000003FF800
0000003FF800
0000003FF800
00007FFFFFF0
00007FFFFFF0
00007FFFFFF0
00007FFFFFF0
00007FFFFFF0
00007FFFFFF0
00007FFFFFF0
0000003FF800
0000003FF800
0000003FF800
0000003FF800
000FF03FF800
003FFE3FF800
00FFFF3FF800
01FFFFFFF800
03FFFFFFF800
07FFFFFFF800
0FFFFFFFF800
1FFFFFFFF800
1FFFFFFFF800
3FFE01FFF800
3FFC007FF800
3FF8003FF800
7FF8003FF800
7FF0003FF800
7FF0003FF800
7FE0003FF800
7FE0003FF800
FFE0003FF800
FFE0003FF800
FFE0003FF800
FFE0003FF800
FFE0003FF800
FFE0003FF800
FFE0003FF800
FFE0003FF800
FFE0003FF800
7FE0003FF800
7FE0003FF800
7FF0003FF800
7FF0003FF800
7FF8003FF800
3FF8003FF800
3FFC007FF800
3FFE01FFF800
1FFFFFFFF800
0FFFFFFFF800
0FFFFFFFF800
07FFFFFFF800
03FFFFFFF800
01FFFFDFF800
00FFFF1FF800
003FFE0FF800
000FF0000000
ENDCHAR
STARTCHAR Emacron
ENCODING 274
SWIDTH 600 0
DWIDTH 47 0
BBX 37 67 6 0
BITMAP
07FFFFFF00
07FFFFFF00
07FFFFFF00
07FFFFFF00
07FFFFFF00
07FFFFFF00
0000000000
0000000000
0000000000
0000000000
0000000000
0000000000
FFFFFFFFF8
FFFFFFFFF8
FFFFFFFFF8
FFFFFFFFF8
FFFFFFFFF8
FFFFFFFFF8
FFFFFFFFF8
FFFFFFFFF8
FFFFFFFFF8
FFC0000000
FFC0000000
FFC0000000
FFC0000000
FFC0000000
FFC0000000
FFC0000000
FFC0000000
FFC0000000
FFC0000000
FFC0000000
FFC0000000
FFC0000000
FFFFFFFF80
FFFFFFFF80
FFFFFFFF80
FFFFFFFF80
FFFFFFFF80
FFFFFFFF80
FFFFFFFF80
FFFFFFFF80
FFFFFFFF80
FFC0000000
FFC0000000
FFC0000000
FFC0000000
FFC0000000
FFC0000000
FFC0000000
FFC0000000
FFC0000000
FFC0000000
FFC0000000
FFC0000000
FFC0000000
FFC0000000
FFC0000000
FFFFFFFFF8
FFFFFFFFF8
FFFFFFFFF8
FFFFFFFFF8
FFFFFFFFF8
FFFFFFFFF8
FFFFFFFFF8
FFFFFFFFF8
FFFFFFFFF8
ENDCHAR
STARTCHAR emacron
ENCODING 275
SWIDTH 600 0
DWIDTH 47 0
BBX 39 56 4 -1
BITMAP
07FFFFFF80
07FFFFFF80
07FFFFFF80
07FFFFFF80
07FFFFFF80
07FFFFFF80
0000000000
0000000000
0000000000
0000000000
0000000000
0000000000
0000000000
0000FF8000
000FFFF000
003FFFFC00
007FFFFF00
01FFFFFF80
03FFFFFFC0
07FFFFFFE0
07FFFFFFE0
0FFFFFFFF0
1FFF00FFF8
1FFE003FF8
3FFC001FF8
3FF8001FFC
7FF8000FFC
7FF0000FFC
7FF0000FFE
7FF00007FE
7FE00007FE
FFFFFFFFFE
FFFFFFFFFE
FFFFFFFFFE
FFFFFFFFFE
FFFFFFFFFE
FFFFFFFFFE
FFFFFFFFFE
FFE0000000
7FE0000000
7FF0000000
7FF0000000
7FF8000000
3FF80000C0
3FFC0001C0
1FFE0003E0
1FFF801FF0
0FFFFFFFF8
07FFFFFFFC
07FFFFFFF8
03FFFFFFF0
00FFFFFFE0
007FFFFFC0
001FFFFF00
0007FFFC00
0000FFC000
ENDCHAR
STARTCHAR Ebreve
ENCODING 276
SWIDTH 600 0
DWIDTH 47 0
BBX 37 70 6 0
BITMAP
07F800FE00
03F800FE00
03FC01FE00
03FC01FE00
03FF07FE00
01FFFFFC00
00FFFFF800
00FFFFF000
003FFFE000
001FFFC000
0003FE0000
0000000000
0000000000
0000000000
0000000000
FFFFFFFFF8
FFFFFFFFF8
FFFFFFFFF8
FFFFFFFFF8
FFFFFFFFF8
FFFFFFFFF8
FFFFFFFFF8
FFFFFFFFF8
FFFFFFFFF8
FFC0000000
FFC0000000
FFC0000000
FFC0000000
FFC0000000
FFC0000000
FFC0000000
FFC0000000
FFC0000000
FFC0000000
FFC0000000
FFC0000000
FFC0000000
FFFFFFFF80
FFFFFFFF80
FFFFFFFF80
FFFFFFFF80
FFFFFFFF80
FFFFFFFF80
FFFFFFFF80
FFFFFFFF80
FFFFFFFF80
FFC0000000
FFC0000000
FFC0000000
FFC0000000
FFC0000000
FFC0000000
FFC0000000
FFC0000000
FFC0000000
FFC0000000
FFC0000000
FFC0000000
FFC0000000
FFC0000000
FFC0000000
FFFFFFFFF8
FFFFFFFFF8
FFFFFFFFF8
FFFFFFFFF8
FFFFFFFFF8
FFFFFFFFF8
FFFFFFFFF8
FFFFFFFFF8
FFFFFFFFF8
ENDCHAR
STARTCHAR ebreve
ENCODING 277
SWIDTH 600 0
DWIDTH 47 0
BBX 39 60 4 -1
BITMAP
03FC00FF00
03FC00FF00
03FC00FF00
03FE01FE00
01FF03FE00
01FFFFFC00
00FFFFFC00
007FFFF800
003FFFF000
000FFFC000
0001FE0000
0000000000
0000000000
0000000000
0000000000
0000000000
0000000000
0000FF8000
000FFFF000
003FFFFC00
007FFFFF00
01FFFFFF80
03FFFFFFC0
07FFFFFFE0
07FFFFFFE0
0FFFFFFFF0
1FFF00FFF8
1FFE003FF8
3FFC001FF8
3FF8001FFC
7FF8000FFC
7FF0000FFC
7FF0000FFE
7FF00007FE
7FE00007FE
FFFFFFFFFE
FFFFFFFFFE
FFFFFFFFFE
FFFFFFFFFE
FFFFFFFFFE
FFFFFFFFFE
FFFFFFFFFE
FFE0000000
7FE0000000
7FF0000000
7FF0000000
7FF8000000
3FF80000C0
3FFC0001C0
1FFE0003E0
1FFF801FF0
0FFFFFFFF8
07FFFFFFFC
07FFFFFFF8
03FFFFFFF0
00FFFFFFE0
007FFFFFC0
001FFFFF00
0007FFFC00
0000FFC000
ENDCHAR
STARTCHAR Edotaccent
ENCODING 278
SWIDTH 600 0
DWIDTH 47 0
BBX 37 72 6 0
BITMAP
0000F80000
0003FC0000
0007FE0000
0007FF0000
0007FF0000
0007FF0000
0007FF0000
0007FF0000
0007FE0000
0003FE0000
0000F80000
0000000000
0000000000
0000000000
0000000000
0000000000
0000000000
FFFFFFFFF8
FFFFFFFFF8
FFFFFFFFF8
FFFFFFFFF8
FFFFFFFFF8
FFFFFFFFF8
FFFFFFFFF8
FFFFFFFFF8
FFFFFFFFF8
FFC0000000
FFC0000000
FFC0000000
FFC0000000
FFC0000000
FFC0000000
FFC0000000
FFC0000000
FFC0000000
FFC0000000
FFC0000000
FFC0000000
FFC0000000
FFFFFFFF80
FFFFFFFF80
FFFFFFFF80
FFFFFFFF80
FFFFFFFF80
FFFFFFFF80
FFFFFFFF80
FFFFFFFF80
FFFFFFFF80
FFC0000000
FFC0000000
FFC0000000
FFC0000000
FFC0000000
FFC0000000
FFC0000000
FFC0000000
FFC0000000
FFC0000000
FFC0000000
FFC0000000
FFC0000000
FFC0000000
FFC0000000
FFFFFFFFF8
FFFFFFFFF8
FFFFFFFFF8
FFFFFFFFF8
FFFFFFFFF8
FFFFFFFFF8
FFFFFFFFF8
FFFFFFFFF8
FFFFFFFFF8
ENDCHAR
STARTCHAR edotaccent
ENCODING 279
SWIDTH 600 0
DWIDTH 47 0
BBX 39 61 4 -1
BITMAP
0000F80000
0001FE0000
0003FF0000
0007FF0000
0007FF0000
0007FF8000
0007FF0000
0007FF0000
0003FF0000
0001FE0000
0000F80000
0000000000
0000000000
0000000000
0000000000
0000000000
0000000000
0000000000
0000FF8000
000FFFF000
003FFFFC00
007FFFFF00
01FFFFFF80
03FFFFFFC0
07FFFFFFE0
07FFFFFFE0
0FFFFFFFF0
1FFF00FFF8
1FFE003FF8
3FFC001FF8
3FF8001FFC
7FF8000FFC
7FF0000FFC
7FF0000FFE
7FF00007FE
7FE00007FE
FFFFFFFFFE
FFFFFFFFFE
FFFFFFFFFE
FFFFFFFFFE
FFFFFFFFFE
FFFFFFFFFE
FFFFFFFFFE
FFE0000000
7FE0000000
7FF0000000
7FF0000000
7FF8000000
3FF80000C0
3FFC0001C0
1FFE0003E0
1FFF801FF0
0FFFFFFFF8
07FFFFFFFC
07FFFFFFF8
03FFFFFFF0
00FFFFFFE0
007FFFFFC0
001FFFFF00
0007FFFC00
0000FFC000
ENDCHAR
STARTCHAR Eogonek
ENCODING 280
SWIDTH 600 0
DWIDTH 47 0
BBX 37 71 6 -16
BITMAP
FFFFFFFFF8
FFFFFFFFF8
FFFFFFFFF8
FFFFFFFFF8
FFFFFFFFF8
FFFFFFFFF8
FFFFFFFFF8
FFFFFFFFF8
FFFFFFFFF8
FFC0000000
FFC0000000
FFC0000000
FFC0000000
FFC0000000
FFC0000000
FFC0000000
FFC0000000
FFC0000000
FFC0000000
FFC0000000
FFC0000000
FFC0000000
FFFFFFFF80
FFFFFFFF80
FFFFFFFF80
FFFFFFFF80
FFFFFFFF80
FFFFFFFF80
FFFFFFFF80
FFFFFFFF80
FFFFFFFF80
FFC0000000
FFC0000000
FFC0000000
FFC0000000
FFC0000000
FFC0000000
FFC0000000
FFC0000000
FFC0000000
FFC0000000
FFC0000000
FFC0000000
FFC0000000
FFC0000000
FFC0000000
FFFFFFFFF8
FFFFFFFFF8
FFFFFFFFF8
FFFFFFFFF8
FFFFFFFFF8
FFFFFFFFF8
FFFFFFFFF8
FFFFFFFFF8
FFFFFFFFF8
000003FE00
000007F800
00000FF000
00000FE000
00001FE000
00001FC000
00003FC000
00003FC000
00003FE100
00003FFF00
00003FFF80
00001FFF80
00001FFF80
00000FFFC0
000007FF80
000001FE00
ENDCHAR
STARTCHAR eogonek
ENCODING 281
SWIDTH 600 0
DWIDTH 47 0
BBX 39 58 4 -16
BITMAP
0000FF8000
000FFFF000
003FFFFC00
007FFFFF00
01FFFFFF80
03FFFFFFC0
07FFFFFFE0
07FFFFFFE0
0FFFFFFFF0
1FFF00FFF8
1FFE003FF8
3FFC001FF8
3FF8001FFC
7FF8000FFC
7FF0000FFC
7FF0000FFE
7FF00007FE
7FE00007FE
FFFFFFFFFE
FFFFFFFFFE
FFFFFFFFFE
FFFFFFFFFE
FFFFFFFFFE
FFFFFFFFFE
FFFFFFFFFE
FFE0000000
7FE0000000
7FF0000000
7FF0000000
7FF8000000
3FF80000C0
3FFC0001C0
1FFE0003E0
1FFF801FF0
0FFFFFFFF8
07FFFFFFFC
07FFFFFFF8
03FFFFFFF0
00FFFFFFE0
007FFFFFC0
001FFFFF00
0007FFFC00
0000FFF000
00001FE000
00003FC000
00007F8000
00007F8000
00007F0000
0000FF0000
0000FF0000
0000FF8400
0000FFFC00
00007FFE00
00007FFE00
00007FFE00
00003FFF00
00001FFE00
000007F800
ENDCHAR
STARTCHAR Ecaron
ENCODING 282
SWIDTH 600 0
DWIDTH 47 0
BBX 37 71 6 0
BITMAP
0FF801FF80
07FE03FF00
03FF07FE00
01FF8FFC00
00FFDFF800
007FFFF000
003FFFC000
000FFF8000
0007FF0000
0003FE0000
0000000000
0000000000
0000000000
0000000000
0000000000
0000000000
FFFFFFFFF8
FFFFFFFFF8
FFFFFFFFF8
FFFFFFFFF8
FFFFFFFFF8
FFFFFFFFF8
FFFFFFFFF8
FFFFFFFFF8
FFFFFFFFF8
FFC0000000
FFC0000000
FFC0000000
FFC0000000
FFC0000000
FFC0000000
FFC0000000
FFC0000000
FFC0000000
FFC0000000
FFC0000000
FFC0000000
FFC0000000
FFFFFFFF80
FFFFFFFF80
FFFFFFFF80
FFFFFFFF80
FFFFFFFF80
FFFFFFFF80
FFFFFFFF80
FFFFFFFF80
FFFFFFFF80
FFC0000000
FFC0000000
FFC0000000
FFC0000000
FFC0000000
FFC0000000
FFC0000000
FFC0000000
FFC0000000
FFC0000000
FFC0000000
FFC0000000
FFC0000000
FFC0000000
FFC0000000
FFFFFFFFF8
FFFFFFFFF8
FFFFFFFFF8
FFFFFFFFF8
FFFFFFFFF8
FFFFFFFFF8
FFFFFFFFF8
FFFFFFFFF8
FFFFFFFFF8
ENDCHAR
STARTCHAR ecaron
ENCODING 283
SWIDTH 600 0
DWIDTH 47 0
BBX 39 60 4 -1
BITMAP
0FFC00FFC0
07FE01FF80
03FF03FE00
01FF8FFC00
007FFFF800
003FFFF000
001FFFE000
000FFFC000
0007FF8000
0003FE0000
0000000000
0000000000
0000000000
0000000000
0000000000
0000000000
0000000000
0000FF8000
000FFFF000
003FFFFC00
007FFFFF00
01FFFFFF80
03FFFFFFC0
07FFFFFFE0
07FFFFFFE0
0FFFFFFFF0
1FFF00FFF8
1FFE003FF8
3FFC001FF8
3FF8001FFC
7FF8000FFC
7FF0000FFC
7FF0000FFE
7FF00007FE
7FE00007FE
FFFFFFFFFE
FFFFFFFFFE
FFFFFFFFFE
FFFFFFFFFE
FFFFFFFFFE
FFFFFFFFFE
FFFFFFFFFE
FFE0000000
7FE0000000
7FF0000000
7FF0000000
7FF8000000
3FF80000C0
3FFC0001C0
1FFE0003E0
1FFF801FF0
0FFFFFFFF8
07FFFFFFFC
07FFFFFFF8
03FFFFFFF0
00FFFFFFE0
007FFFFFC0
001FFFFF00
0007FFFC00
0000FFC000
ENDCHAR
STARTCHAR Gcircumflex
ENCODING 284
SWIDTH 600 0
DWIDTH 47 0
BBX 40 72 3 -1
BITMAP
00003FC000
00007FE000
0000FFF000
0001FFF800
0003FFFC00
000FFFFF00
001FF9FF80
003FF0FFC0
007FC07FE0
00FF801FF0
0000000000
0000000000
0000000000
0000000000
0000000000
0000FFC000
0007FFFC00
001FFFFF00
007FFFFF80
00FFFFFFE0
01FFFFFFF0
03FFFFFFF0
07FFFFFFF8
07FFFFFFFC
0FFF807FFC
1FFF001FFE
1FFE000FFE
1FFC000FFE
3FF80007FE
3FF80007FF
7FF80007FF
7FF00003FF
7FF0000000
7FF0000000
7FE0000000
7FE0000000
FFE0000000
FFE0000000
FFE0000000
FFE0000000
FFE0000000
FFE0000000
FFE00FFFFF
FFE00FFFFF
FFE00FFFFF
FFE00FFFFF
FFE00FFFFF
FFE00FFFFF
FFE00FFFFF
FFE00FFFFF
FFE00FFFFF
FFE00007FF
7FE00007FF
7FF00007FF
7FF00007FF
7FF00007FF
7FF00007FF
3FF80007FF
3FF80007FF
3FFC0007FF
1FFE0007FF
1FFF0007FF
0FFF801FFF
0FFFFFFFFF
07FFFFFFFF
03FFFFFFFF
01FFFFFFFC
00FFFFFFF8
007FFFFFF0
001FFFFFC0
0007FFFE00
0000FFE000
ENDCHAR
STARTCHAR gcircumflex
ENCODING 285
SWIDTH 600 0
DWIDTH 47 0
BBX 38 75 4 -16
BITMAP
0001FE0000
0003FF0000
0007FF8000
000FFFC000
003FFFE000
007FFFF000
00FFCFFC00
01FF87FE00
03FE03FF00
07FC00FF80
0000000000
0000000000
0000000000
0000000000
0000000000
0000000000
0000000000
0007F80000
003FFF0FFC
00FFFF8FFC
01FFFFCFFC
03FFFFEFFC
07FFFFFFFC
0FFFFFFFFC
0FFFFFFFFC
1FFFFFFFFC
1FFF00FFFC
3FFC007FFC
3FFC003FFC
7FF8001FFC
7FF0001FFC
7FF0001FFC
7FF0001FFC
7FE0001FFC
FFE0001FFC
FFE0001FFC
FFE0001FFC
FFE0001FFC
FFE0001FFC
FFE0001FFC
FFE0001FFC
FFE0001FFC
FFE0001FFC
7FE0001FFC
7FF0001FFC
7FF0001FFC
7FF0001FFC
7FF8001FFC
3FF8003FFC
3FFC007FFC
1FFF00FFFC
1FFFFFFFFC
0FFFFFFFFC
0FFFFFFFFC
07FFFFFFFC
03FFFFFFFC
01FFFFDFFC
00FFFF9FFC
003FFE1FFC
0007F81FFC
0000001FFC
0000003FF8
0100003FF8
0180007FF8
03C000FFF0
07F001FFF0
0FFFFFFFF0
1FFFFFFFE0
1FFFFFFFC0
0FFFFFFF80
07FFFFFF00
03FFFFFE00
00FFFFF800
003FFFE000
0003FE0000
ENDCHAR
STARTCHAR Gbreve
ENCODING 286
SWIDTH 600 0
DWIDTH 47 0
BBX 40 72 3 -1
BITMAP
007F801FE0
007F801FE0
007F801FE0
007FC03FC0
003FE07FC0
003FFFFF80
001FFFFF80
000FFFFF00
0007FFFE00
0001FFF800
00003FC000
0000000000
0000000000
0000000000
0000000000
0000FFC000
0007FFFC00
001FFFFF00
007FFFFF80
00FFFFFFE0
01FFFFFFF0
03FFFFFFF0
07FFFFFFF8
07FFFFFFFC
0FFF807FFC
1FFF001FFE
1FFE000FFE
1FFC000FFE
3FF80007FE
3FF80007FF
7FF80007FF
7FF00003FF
7FF0000000
7FF0000000
7FE0000000
7FE0000000
FFE0000000
FFE0000000
FFE0000000
FFE0000000
FFE0000000
FFE0000000
FFE00FFFFF
FFE00FFFFF
FFE00FFFFF
FFE00FFFFF
FFE00FFFFF
FFE00FFFFF
FFE00FFFFF
FFE00FFFFF
FFE00FFFFF
FFE00007FF
7FE00007FF
7FF00007FF
7FF00007FF
7FF00007FF
7FF00007FF
3FF80007FF
3FF80007FF
3FFC0007FF
1FFE0007FF
1FFF0007FF
0FFF801FFF
0FFFFFFFFF
07FFFFFFFF
03FFFFFFFF
01FFFFFFFC
00FFFFFFF8
007FFFFFF0
001FFFFFC0
0007FFFE00
0000FFE000
ENDCHAR
STARTCHAR gbreve
ENCODING 287
SWIDTH 600 0
DWIDTH 47 0
BBX 38 75 4 -16
BITMAP
03FC00FF00
03FC00FF00
03FC00FF00
03FE01FE00
01FF03FE00
01FFFFFC00
00FFFFFC00
007FFFF800
003FFFF000
000FFFC000
0001FE0000
0000000000
0000000000
0000000000
0000000000
0000000000
0000000000
0007F80000
003FFF0FFC
00FFFF8FFC
01FFFFCFFC
03FFFFEFFC
07FFFFFFFC
0FFFFFFFFC
0FFFFFFFFC
1FFFFFFFFC
1FFF00FFFC
3FFC007FFC
3FFC003FFC
7FF8001FFC
7FF0001FFC
7FF0001FFC
7FF0001FFC
7FE0001FFC
FFE0001FFC
FFE0001FFC
FFE0001FFC
FFE0001FFC
FFE0001FFC
FFE0001FFC
FFE0001FFC
FFE0001FFC
FFE0001FFC
7FE0001FFC
7FF0001FFC
7FF0001FFC
7FF0001FFC
7FF8001FFC
3FF8003FFC
3FFC007FFC
1FFF00FFFC
1FFFFFFFFC
0FFFFFFFFC
0FFFFFFFFC
07FFFFFFFC
03FFFFFFFC
01FFFFDFFC
00FFFF9FFC
003FFE1FFC
0007F81FFC
0000001FFC
0000003FF8
0100003FF8
0180007FF8
03C000FFF0
07F001FFF0
0FFFFFFFF0
1FFFFFFFE0
1FFFFFFFC0
0FFFFFFF80
07FFFFFF00
03FFFFFE00
00FFFFF800
003FFFE000
0003FE0000
ENDCHAR
STARTCHAR uni0120
ENCODING 288
SWIDTH 600 0
DWIDTH 47 0
BBX 40 73 3 -1
BITMAP
00001F0000
00003FC000
00007FE000
0000FFE000
0000FFE000
0000FFF000
0000FFE000
0000FFE000
00007FE000
00003FC000
00001F0000
0000000000
0000000000
0000000000
0000000000
0000000000
0000FFC000
0007FFFC00
001FFFFF00
007FFFFF80
00FFFFFFE0
01FFFFFFF0
03FFFFFFF0
07FFFFFFF8
07FFFFFFFC
0FFF807FFC
1FFF001FFE
1FFE000FFE
1FFC000FFE
3FF80007FE
3FF80007FF
7FF80007FF
7FF00003FF
7FF0000000
7FF0000000
7FE0000000
7FE0000000
FFE0000000
FFE0000000
FFE0000000
FFE0000000
FFE0000000
FFE0000000
FFE00FFFFF
FFE00FFFFF
FFE00FFFFF
FFE00FFFFF
FFE00FFFFF
FFE00FFFFF
FFE00FFFFF
FFE00FFFFF
FFE00FFFFF
FFE00007FF
7FE00007FF
7FF00007FF
7FF00007FF
7FF00007FF
7FF00007FF
3FF80007FF
3FF80007FF
3FFC0007FF
1FFE0007FF
1FFF0007FF
0FFF801FFF
0FFFFFFFFF
07FFFFFFFF
03FFFFFFFF
01FFFFFFFC
00FFFFFFF8
007FFFFFF0
001FFFFFC0
0007FFFE00
0000FFE000
ENDCHAR
STARTCHAR uni0121
ENCODING 289
SWIDTH 600 0
DWIDTH 47 0
BBX 38 76 4 -16
BITMAP
0000F80000
0001FE0000
0003FF0000
0007FF0000
0007FF0000
0007FF0000
0007FF0000
0007FF0000
0003FF0000
0001FE0000
0000F80000
0000000000
0000000000
0000000000
0000000000
0000000000
0000000000
0000000000
0007F80000
003FFF0FFC
00FFFF8FFC
01FFFFCFFC
03FFFFEFFC
07FFFFFFFC
0FFFFFFFFC
0FFFFFFFFC
1FFFFFFFFC
1FFF00FFFC
3FFC007FFC
3FFC003FFC
7FF8001FFC
7FF0001FFC
7FF0001FFC
7FF0001FFC
7FE0001FFC
FFE0001FFC
FFE0001FFC
FFE0001FFC
FFE0001FFC
FFE0001FFC
FFE0001FFC
FFE0001FFC
FFE0001FFC
FFE0001FFC
7FE0001FFC
7FF0001FFC
7FF0001FFC
7FF0001FFC
7FF8001FFC
3FF8003FFC
3FFC007FFC
1FFF00FFFC
1FFFFFFFFC
0FFFFFFFFC
0FFFFFFFFC
07FFFFFFFC
03FFFFFFFC
01FFFFDFFC
00FFFF9FFC
003FFE1FFC
0007F81FFC
0000001FFC
0000003FF8
0100003FF8
0180007FF8
03C000FFF0
07F001FFF0
0FFFFFFFF0
1FFFFFFFE0
1FFFFFFFC0
0FFFFFFF80
07FFFFFF00
03FFFFFE00
00FFFFF800
003FFFE000
0003FE0000
ENDCHAR
STARTCHAR Gcommaaccent
ENCODING 290
SWIDTH 600 0
DWIDTH 47 0
BBX 40 74 3 -18
BITMAP
0000FFC000
0007FFFC00
001FFFFF00
007FFFFF80
00FFFFFFE0
01FFFFFFF0
03FFFFFFF0
07FFFFFFF8
07FFFFFFFC
0FFF807FFC
1FFF001FFE
1FFE000FFE
1FFC000FFE
3FF80007FE
3FF80007FF
7FF80007FF
7FF00003FF
7FF0000000
7FF0000000
7FE0000000
7FE0000000
FFE0000000
FFE0000000
FFE0000000
FFE0000000
FFE0000000
FFE0000000
FFE00FFFFF
FFE00FFFFF
FFE00FFFFF
FFE00FFFFF
FFE00FFFFF
FFE00FFFFF
FFE00FFFFF
FFE00FFFFF
FFE00FFFFF
FFE00007FF
7FE00007FF
7FF00007FF
7FF00007FF
7FF00007FF
7FF00007FF
3FF80007FF
3FF80007FF
3FFC0007FF
1FFE0007FF
1FFF0007FF
0FFF801FFF
0FFFFFFFFF
07FFFFFFFF
03FFFFFFFF
01FFFFFFFC
00FFFFFFF8
007FFFFFF0
001FFFFFC0
0007FFFE00
0000FFE000
0000000000
00001FC000
00001FC000
00001FC000
00001FC000
00001FC000
00001FC000
00001FC000
00003FC000
00003F8000
00003F8000
00003F8000
00007F0000
00007F0000
0000FE0000
00003C0000
0000180000
ENDCHAR
STARTCHAR gcommaaccent
ENCODING 291
SWIDTH 600 0
DWIDTH 47 0
BBX 38 82 4 -16
BITMAP
0000100000
00001C0000
00003F0000
00007F8000
0000FF8000
0000FF0000
0000FF0000
0001FF0000
0001FE0000
0001FE0000
0001FE0000
0003FE0000
0003FE0000
0003FE0000
0003FE0000
0003FE0000
0003FE0000
0003FE0000
0000000000
0000000000
0000000000
0000000000
0000000000
0000000000
0007F80000
003FFF0FFC
00FFFF8FFC
01FFFFCFFC
03FFFFEFFC
07FFFFFFFC
0FFFFFFFFC
0FFFFFFFFC
1FFFFFFFFC
1FFF00FFFC
3FFC007FFC
3FFC003FFC
7FF8001FFC
7FF0001FFC
7FF0001FFC
7FF0001FFC
7FE0001FFC
FFE0001FFC
FFE0001FFC
FFE0001FFC
FFE0001FFC
FFE0001FFC
FFE0001FFC
FFE0001FFC
FFE0001FFC
FFE0001FFC
7FE0001FFC
7FF0001FFC
7FF0001FFC
7FF0001FFC
7FF8001FFC
3FF8003FFC
3FFC007FFC
1FFF00FFFC
1FFFFFFFFC
0FFFFFFFFC
0FFFFFFFFC
07FFFFFFFC
03FFFFFFFC
01FFFFDFFC
00FFFF9FFC
003FFE1FFC
0007F81FFC
0000001FFC
0000003FF8
0100003FF8
0180007FF8
03C000FFF0
07F001FFF0
0FFFFFFFF0
1FFFFFFFE0
1FFFFFFFC0
0FFFFFFF80
07FFFFFF00
03FFFFFE00
00FFFFF800
003FFFE000
0003FE0000
ENDCHAR
STARTCHAR Hcircumflex
ENCODING 292
SWIDTH 600 0
DWIDTH 47 0
BBX 37 71 5 0
BITMAP
0003FC0000
0007FE0000
000FFF0000
001FFF8000
003FFFE000
007FFFF000
01FF9FF800
03FF0FFC00
07FE03FE00
0FF801FF00
0000000000
0000000000
0000000000
0000000000
0000000000
0000000000
FFC0003FF8
FFC0003FF8
FFC0003FF8
FFC0003FF8
FFC0003FF8
FFC0003FF8
FFC0003FF8
FFC0003FF8
FFC0003FF8
FFC0003FF8
FFC0003FF8
FFC0003FF8
FFC0003FF8
FFC0003FF8
FFC0003FF8
FFC0003FF8
FFC0003FF8
FFC0003FF8
FFC0003FF8
FFC0003FF8
FFC0003FF8
FFC0003FF8
FFFFFFFFF8
FFFFFFFFF8
FFFFFFFFF8
FFFFFFFFF8
FFFFFFFFF8
FFFFFFFFF8
FFFFFFFFF8
FFFFFFFFF8
FFFFFFFFF8
FFC0003FF8
FFC0003FF8
FFC0003FF8
FFC0003FF8
FFC0003FF8
FFC0003FF8
FFC0003FF8
FFC0003FF8
FFC0003FF8
FFC0003FF8
FFC0003FF8
FFC0003FF8
FFC0003FF8
FFC0003FF8
FFC0003FF8
FFC0003FF8
FFC0003FF8
FFC0003FF8
FFC0003FF8
FFC0003FF8
FFC0003FF8
FFC0003FF8
FFC0003FF8
FFC0003FF8
ENDCHAR
STARTCHAR hcircumflex
ENCODING 293
SWIDTH 600 0
DWIDTH 47 0
BBX 37 75 5 0
BITMAP
0007F80000
000FFC0000
001FFE0000
003FFF0000
00FFFF8000
01FFFFC000
03FF3FF000
07FE1FF800
0FF80FFC00
1FF003FE00
0000000000
0000000000
0000000000
0000000000
0000000000
0000000000
0000000000
FFE0000000
FFE0000000
FFE0000000
FFE0000000
FFE0000000
FFE0000000
FFE0000000
FFE0000000
FFE0000000
FFE0000000
FFE0000000
FFE0000000
FFE0000000
FFE0000000
FFE0000000
FFE0000000
FFE01FE000
FFE0FFFC00
FFE1FFFE00
FFE7FFFF80
FFEFFFFFC0
FFEFFFFFC0
FFFFFFFFE0
FFFFFFFFE0
FFFFFFFFF0
FFFC01FFF0
FFF8007FF8
FFF0007FF8
FFE0003FF8
FFE0003FF8
FFE0003FF8
FFE0001FF8
FFE0001FF8
FFE0001FF8
FFE0001FF8
FFE0001FF8
FFE0001FF8
FFE0001FF8
FFE0001FF8
FFE0001FF8
FFE0001FF8
FFE0001FF8
FFE0001FF8
FFE0001FF8
FFE0001FF8
FFE0001FF8
FFE0001FF8
FFE0001FF8
FFE0001FF8
FFE0001FF8
FFE0001FF8
FFE0001FF8
FFE0001FF8
FFE0001FF8
FFE0001FF8
FFE0001FF8
FFE0001FF8
FFE0001FF8
ENDCHAR
STARTCHAR Hbar
ENCODING 294
SWIDTH 600 0
DWIDTH 47 0
BBX 46 55 1 0
BITMAP
3FF0000FFE00
3FF0000FFE00
3FF0000FFE00
3FF0000FFE00
3FF0000FFE00
3FF0000FFE00
3FF0000FFE00
3FF0000FFE00
FFFFFFFFFFFC
FFFFFFFFFFFC
FFFFFFFFFFFC
FFFFFFFFFFFC
FFFFFFFFFFFC
FFFFFFFFFFFC
FFFFFFFFFFFC
3FF0000FFE00
3FF0000FFE00
3FF0000FFE00
3FF0000FFE00
3FF0000FFE00
3FF0000FFE00
3FF0000FFE00
3FFFFFFFFE00
3FFFFFFFFE00
3FFFFFFFFE00
3FFFFFFFFE00
3FFFFFFFFE00
3FFFFFFFFE00
3FFFFFFFFE00
3FFFFFFFFE00
3FFFFFFFFE00
3FF0000FFE00
3FF0000FFE00
3FF0000FFE00
3FF0000FFE00
3FF0000FFE00
3FF0000FFE00
3FF0000FFE00
3FF0000FFE00
3FF0000FFE00
3FF0000FFE00
3FF0000FFE00
3FF0000FFE00
3FF0000FFE00
3FF0000FFE00
3FF0000FFE00
3FF0000FFE00
3FF0000FFE00
3FF0000FFE00
3FF0000FFE00
3FF0000FFE00
3FF0000FFE00
3FF0000FFE00
3FF0000FFE00
3FF0000FFE00
ENDCHAR
STARTCHAR hbar
ENCODING 295
SWIDTH 614 0
DWIDTH 48 0
BBX 43 58 0 0
BITMAP
01FF80000000
01FF80000000
01FF80000000
01FF80000000
01FF80000000
FFFFFFE00000
FFFFFFE00000
FFFFFFE00000
FFFFFFE00000
FFFFFFE00000
FFFFFFE00000
FFFFFFE00000
01FF80000000
01FF80000000
01FF80000000
01FF80000000
01FF807F8000
01FF83FFF000
01FF87FFFC00
01FF8FFFFE00
01FF9FFFFF00
01FFBFFFFF00
01FFFFFFFF80
01FFFFFFFFC0
01FFFFFFFFC0
01FFF007FFC0
01FFE001FFE0
01FFC000FFE0
01FF8000FFE0
01FF8000FFE0
01FF80007FE0
01FF80007FE0
01FF80007FE0
01FF80007FE0
01FF80007FE0
01FF80007FE0
01FF80007FE0
01FF80007FE0
01FF80007FE0
01FF80007FE0
01FF80007FE0
01FF80007FE0
01FF80007FE0
01FF80007FE0
01FF80007FE0
01FF80007FE0
01FF80007FE0
01FF80007FE0
01FF80007FE0
01FF80007FE0
01FF80007FE0
01FF80007FE0
01FF80007FE0
01FF80007FE0
01FF80007FE0
01FF80007FE0
01FF80007FE0
01FF80007FE0
ENDCHAR
STARTCHAR Itilde
ENCODING 296
SWIDTH 600 0
DWIDTH 47 0
BBX 32 71 7 0
BITMAP
00F800F0
03FF00FC
07FFC1FC
0FFFFFF8
1FFFFFF8
1FFFFFF8
3FFFFFF0
3F87FFE0
3F00FFC0
1E003F00
00000000
00000000
00000000
00000000
00000000
00000000
FFFFFFFF
FFFFFFFF
FFFFFFFF
FFFFFFFF
FFFFFFFF
FFFFFFFF
FFFFFFFF
FFFFFFFF
FFFFFFFF
001FFC00
001FFC00
001FFC00
001FFC00
001FFC00
001FFC00
001FFC00
001FFC00
001FFC00
001FFC00
001FFC00
001FFC00
001FFC00
001FFC00
001FFC00
001FFC00
001FFC00
001FFC00
001FFC00
001FFC00
001FFC00
001FFC00
001FFC00
001FFC00
001FFC00
001FFC00
001FFC00
001FFC00
001FFC00
001FFC00
001FFC00
001FFC00
001FFC00
001FFC00
001FFC00
001FFC00
001FFC00
FFFFFFFF
FFFFFFFF
FFFFFFFF
FFFFFFFF
FFFFFFFF
FFFFFFFF
FFFFFFFF
FFFFFFFF
FFFFFFFF
ENDCHAR
STARTCHAR itilde
ENCODING 297
SWIDTH 600 0
DWIDTH 47 0
BBX 34 58 8 0
BITMAP
007E003C00
01FF807E00
03FFF0FE00
07FFFFFE00
07FFFFFE00
0FFFFFFC00
0FFFFFF800
0FC1FFF800
0F807FF000
0F800FC000
0000000000
0000000000
0000000000
0000000000
0000000000
0000000000
0000000000
FFFFFE0000
FFFFFE0000
FFFFFE0000
FFFFFE0000
FFFFFE0000
FFFFFE0000
FFFFFE0000
FFFFFE0000
FFFFFE0000
000FFE0000
000FFE0000
000FFE0000
000FFE0000
000FFE0000
000FFE0000
000FFE0000
000FFE0000
000FFE0000
000FFE0000
000FFE0000
000FFE0000
000FFE0000
000FFE0000
000FFE0000
000FFE0000
000FFE0000
000FFE0000
000FFE0000
000FFE0000
000FFE0000
000FFE0000
000FFE0000
FFFFFFFFC0
FFFFFFFFC0
FFFFFFFFC0
FFFFFFFFC0
FFFFFFFFC0
FFFFFFFFC0
FFFFFFFFC0
FFFFFFFFC0
FFFFFFFFC0
ENDCHAR
STARTCHAR Imacron
ENCODING 298
SWIDTH 600 0
DWIDTH 47 0
BBX 32 67 7 0
BITMAP
3FFFFFFC
3FFFFFFC
3FFFFFFC
3FFFFFFC
3FFFFFFC
3FFFFFFC
00000000
00000000
00000000
00000000
00000000
00000000
FFFFFFFF
FFFFFFFF
FFFFFFFF
FFFFFFFF
FFFFFFFF
FFFFFFFF
FFFFFFFF
FFFFFFFF
FFFFFFFF
001FFC00
001FFC00
001FFC00
001FFC00
001FFC00
001FFC00
001FFC00
001FFC00
001FFC00
001FFC00
001FFC00
001FFC00
001FFC00
001FFC00
001FFC00
001FFC00
001FFC00
001FFC00
001FFC00
001FFC00
001FFC00
001FFC00
001FFC00
001FFC00
001FFC00
001FFC00
001FFC00
001FFC00
001FFC00
001FFC00
001FFC00
001FFC00
001FFC00
001FFC00
001FFC00
001FFC00
001FFC00
FFFFFFFF
FFFFFFFF
FFFFFFFF
FFFFFFFF
FFFFFFFF
FFFFFFFF
FFFFFFFF
FFFFFFFF
FFFFFFFF
ENDCHAR
STARTCHAR imacron
ENCODING 299
SWIDTH 600 0
DWIDTH 47 0
BBX 34 54 8 0
BITMAP
0FFFFFFE00
0FFFFFFE00
0FFFFFFE00
0FFFFFFE00
0FFFFFFE00
0FFFFFFE00
0000000000
0000000000
0000000000
0000000000
0000000000
0000000000
0000000000
FFFFFE0000
FFFFFE0000
FFFFFE0000
FFFFFE0000
FFFFFE0000
FFFFFE0000
FFFFFE0000
FFFFFE0000
FFFFFE0000
000FFE0000
000FFE0000
000FFE0000
000FFE0000
000FFE0000
000FFE0000
000FFE0000
000FFE0000
000FFE0000
000FFE0000
000FFE0000
000FFE0000
000FFE0000
000FFE0000
000FFE0000
000FFE0000
000FFE0000
000FFE0000
000FFE0000
000FFE0000
000FFE0000
000FFE0000
000FFE0000
FFFFFFFFC0
FFFFFFFFC0
FFFFFFFFC0
FFFFFFFFC0
FFFFFFFFC0
FFFFFFFFC0
FFFFFFFFC0
FFFFFFFFC0
FFFFFFFFC0
ENDCHAR
STARTCHAR Ibreve
ENCODING 300
SWIDTH 600 0
DWIDTH 47 0
BBX 32 71 7 0
BITMAP
1FE007F8
1FE007F8
1FE007F8
1FF00FF0
0FF81FF0
0FFFFFE0
07FFFFE0
03FFFFC0
01FFFF80
007FFE00
000FF000
00000000
00000000
00000000
00000000
00000000
FFFFFFFF
FFFFFFFF
FFFFFFFF
FFFFFFFF
FFFFFFFF
FFFFFFFF
FFFFFFFF
FFFFFFFF
FFFFFFFF
001FFC00
001FFC00
001FFC00
001FFC00
001FFC00
001FFC00
001FFC00
001FFC00
001FFC00
001FFC00
001FFC00
001FFC00
001FFC00
001FFC00
001FFC00
001FFC00
001FFC00
001FFC00
001FFC00
001FFC00
001FFC00
001FFC00
001FFC00
001FFC00
001FFC00
001FFC00
001FFC00
001FFC00
001FFC00
001FFC00
001FFC00
001FFC00
001FFC00
001FFC00
001FFC00
001FFC00
001FFC00
FFFFFFFF
FFFFFFFF
FFFFFFFF
FFFFFFFF
FFFFFFFF
FFFFFFFF
FFFFFFFF
FFFFFFFF
FFFFFFFF
ENDCHAR
STARTCHAR ibreve
ENCODING 301
SWIDTH 600 0
DWIDTH 47 0
BBX 34 58 8 0
BITMAP
0FF001FC00
07F001FC00
07F803FC00
07F807FC00
07FE0FF800
03FFFFF800
01FFFFF000
01FFFFE000
007FFFC000
003FFF8000
0007FC0000
0000000000
0000000000
0000000000
0000000000
0000000000
0000000000
FFFFFE0000
FFFFFE0000
FFFFFE0000
FFFFFE0000
FFFFFE0000
FFFFFE0000
FFFFFE0000
FFFFFE0000
FFFFFE0000
000FFE0000
000FFE0000
000FFE0000
000FFE0000
000FFE0000
000FFE0000
000FFE0000
000FFE0000
000FFE0000
000FFE0000
000FFE0000
000FFE0000
000FFE0000
000FFE0000
000FFE0000
000FFE0000
000FFE0000
000FFE0000
000FFE0000
000FFE0000
000FFE0000
000FFE0000
000FFE0000
FFFFFFFFC0
FFFFFFFFC0
FFFFFFFFC0
FFFFFFFFC0
FFFFFFFFC0
FFFFFFFFC0
FFFFFFFFC0
FFFFFFFFC0
FFFFFFFFC0
ENDCHAR
STARTCHAR Iogonek
ENCODING 302
SWIDTH 600 0
DWIDTH 47 0
BBX 32 71 7 -16
BITMAP
FFFFFFFF
FFFFFFFF
FFFFFFFF
FFFFFFFF
FFFFFFFF
FFFFFFFF
FFFFFFFF
FFFFFFFF
FFFFFFFF
001FFC00
001FFC00
001FFC00
001FFC00
001FFC00
001FFC00
001FFC00
001FFC00
001FFC00
001FFC00
001FFC00
001FFC00
001FFC00
001FFC00
001FFC00
001FFC00
001FFC00
001FFC00
001FFC00
001FFC00
001FFC00
001FFC00
001FFC00
001FFC00
001FFC00
001FFC00
001FFC00
001FFC00
001FFC00
001FFC00
001FFC00
001FFC00
001FFC00
001FFC00
001FFC00
001FFC00
001FFC00
FFFFFFFF
FFFFFFFF
FFFFFFFF
FFFFFFFF
FFFFFFFF
FFFFFFFF
FFFFFFFF
FFFFFFFF
FFFFFFFF
000FF800
001FF000
001FC000
003F8000
007F8000
007F8000
007F8000
007F8000
007F8200
007FFE00
007FFE00
007FFE00
003FFF00
001FFF00
000FFF00
0003F800
ENDCHAR
STARTCHAR iogonek
ENCODING 303
SWIDTH 600 0
DWIDTH 47 0
BBX 34 74 8 -16
BITMAP
0001F00000
0007FC0000
000FFE0000
001FFE0000
001FFE0000
001FFE0000
001FFE0000
001FFE0000
000FFE0000
0007FC0000
0001F00000
0000000000
0000000000
0000000000
0000000000
0000000000
0000000000
FFFFFE0000
FFFFFE0000
FFFFFE0000
FFFFFE0000
FFFFFE0000
FFFFFE0000
FFFFFE0000
FFFFFE0000
FFFFFE0000
000FFE0000
000FFE0000
000FFE0000
000FFE0000
000FFE0000
000FFE0000
000FFE0000
000FFE0000
000FFE0000
000FFE0000
000FFE0000
000FFE0000
000FFE0000
000FFE0000
000FFE0000
000FFE0000
000FFE0000
000FFE0000
000FFE0000
000FFE0000
000FFE0000
000FFE0000
000FFE0000
FFFFFFFFC0
FFFFFFFFC0
FFFFFFFFC0
FFFFFFFFC0
FFFFFFFFC0
FFFFFFFFC0
FFFFFFFFC0
FFFFFFFFC0
FFFFFFFFC0
001FF00000
003FC00000
007F800000
00FF000000
00FF000000
00FE000000
01FE000000
01FE000000
01FF080000
01FFF80000
01FFFC0000
00FFFC0000
00FFFC0000
007FFC0000
003FFE0000
000FF00000
ENDCHAR
STARTCHAR Idotaccent
ENCODING 304
SWIDTH 600 0
DWIDTH 47 0
BBX 32 72 7 0
BITMAP
0007C000
000FF000
001FF800
003FF800
003FF800
003FFC00
003FF800
003FF800
001FF800
000FF000
0007C000
00000000
00000000
00000000
00000000
00000000
00000000
FFFFFFFF
FFFFFFFF
FFFFFFFF
FFFFFFFF
FFFFFFFF
FFFFFFFF
FFFFFFFF
FFFFFFFF
FFFFFFFF
001FFC00
001FFC00
001FFC00
001FFC00
001FFC00
001FFC00
001FFC00
001FFC00
001FFC00
001FFC00
001FFC00
001FFC00
001FFC00
001FFC00
001FFC00
001FFC00
001FFC00
001FFC00
001FFC00
001FFC00
001FFC00
001FFC00
001FFC00
001FFC00
001FFC00
001FFC00
001FFC00
001FFC00
001FFC00
001FFC00
001FFC00
001FFC00
001FFC00
001FFC00
001FFC00
001FFC00
001FFC00
FFFFFFFF
FFFFFFFF
FFFFFFFF
FFFFFFFF
FFFFFFFF
FFFFFFFF
FFFFFFFF
FFFFFFFF
FFFFFFFF
ENDCHAR
STARTCHAR dotlessi
ENCODING 305
SWIDTH 600 0
DWIDTH 47 0
BBX 34 41 8 0
BITMAP
FFFFFE0000
FFFFFE0000
FFFFFE0000
FFFFFE0000
FFFFFE0000
FFFFFE0000
FFFFFE0000
FFFFFE0000
FFFFFE0000
000FFE0000
000FFE0000
000FFE0000
000FFE0000
000FFE0000
000FFE0000
000FFE0000
000FFE0000
000FFE0000
000FFE0000
000FFE0000
000FFE0000
000FFE0000
000FFE0000
000FFE0000
000FFE0000
000FFE0000
000FFE0000
000FFE0000
000FFE0000
000FFE0000
000FFE0000
000FFE0000
FFFFFFFFC0
FFFFFFFFC0
FFFFFFFFC0
FFFFFFFFC0
FFFFFFFFC0
FFFFFFFFC0
FFFFFFFFC0
FFFFFFFFC0
FFFFFFFFC0
ENDCHAR
STARTCHAR IJ
ENCODING 306
SWIDTH 600 0
DWIDTH 47 0
BBX 37 56 5 -1
BITMAP
FE000007F8
FE000007F8
FE000007F8
FE000007F8
FE000007F8
FE000007F8
FE000007F8
FE000007F8
FE000007F8
FE000007F8
FE000007F8
FE000007F8
FE000007F8
FE000007F8
FE000007F8
FE000007F8
FE000007F8
FE000007F8
FE000007F8
FE000007F8
FE000007F8
FE000007F8
FE000007F8
FE000007F8
FE000007F8
FE000007F8
FE000007F8
FE000007F8
FE000007F8
FE000007F8
FE000007F8
FE000007F8
FE000007F8
FE000007F8
FE000007F8
FE000007F8
FE000007F8
FE000007F8
FE000007F8
FE000007F8
FE000007F8
FE000007F8
FE000007F8
FE1FE007F8
FE1FE007F8
FE1FE007F8
FE0FE007F8
FE0FF007F0
FE0FF00FF0
FE0FFC1FF0
FE07FFFFE0
FE03FFFFE0
FE03FFFFC0
FE00FFFF80
FE007FFE00
00000FF000
ENDCHAR
STARTCHAR ij
ENCODING 307
SWIDTH 600 0
DWIDTH 47 0
BBX 39 73 3 -17
BITMAP
003E000078
007F0001FC
007F8001FE
00FF8001FE
00FF8001FE
00FF8001FE
007F8001FE
003F0000FC
0008000020
0000000000
0000000000
0000000000
0000000000
0000000000
0000000000
FFFF01FFFE
FFFF01FFFE
FFFF01FFFE
FFFF01FFFE
FFFF01FFFE
FFFF01FFFE
007F0001FE
007F0001FE
007F0001FE
007F0001FE
007F0001FE
007F0001FE
007F0001FE
007F0001FE
007F0001FE
007F0001FE
007F0001FE
007F0001FE
007F0001FE
007F0001FE
007F0001FE
007F0001FE
007F0001FE
007F0001FE
007F0001FE
007F0001FE
007F0001FE
007F0001FE
007F0001FE
007F0001FE
007F0001FE
007F0001FE
007F0001FE
007F0001FE
007F0001FE
FFFFFF81FE
FFFFFF81FE
FFFFFF81FE
FFFFFF81FE
FFFFFF81FE
FFFFFF81FE
00000001FE
00000001FE
00000001FE
00000001FE
00000001FE
00000003FE
00000003FC
00000007FC
0000000FFC
0000003FF8
0001FFFFF8
0001FFFFF0
0001FFFFE0
0001FFFFC0
0001FFFF80
0001FFFE00
0001FFF000
ENDCHAR
STARTCHAR Jcircumflex
ENCODING 308
SWIDTH 600 0
DWIDTH 47 0
BBX 47 72 4 -1
BITMAP
00000007F800
0000000FFC00
0000001FFE00
0000003FFF00
0000007FFF80
000001FFFFE0
000003FF3FF0
000007FE1FF8
00000FF80FFC
00001FF003FE
000000000000
000000000000
000000000000
000000000000
000000000000
000000000000
0000001FFC00
0000001FFC00
0000001FFC00
0000001FFC00
0000001FFC00
0000001FFC00
0000001FFC00
0000001FFC00
0000001FFC00
0000001FFC00
0000001FFC00
0000001FFC00
0000001FFC00
0000001FFC00
0000001FFC00
0000001FFC00
0000001FFC00
0000001FFC00
0000001FFC00
0000001FFC00
0000001FFC00
0000001FFC00
0000001FFC00
0000001FFC00
0000001FFC00
0000001FFC00
0000001FFC00
0000001FFC00
0000001FFC00
0000001FFC00
0000001FFC00
0000001FFC00
0000001FFC00
0000001FFC00
0000001FFC00
0000001FFC00
0000001FFC00
0000001FFC00
0000001FFC00
FFE0001FFC00
FFE0001FFC00
FFE0001FFC00
FFE0003FF800
7FF0003FF800
7FF0007FF800
7FF800FFF000
3FFC01FFF000
3FFFFFFFE000
1FFFFFFFE000
1FFFFFFFC000
0FFFFFFF8000
07FFFFFF0000
03FFFFFE0000
00FFFFF80000
003FFFE00000
0003FF000000
ENDCHAR
STARTCHAR jcircumflex
ENCODING 309
SWIDTH 600 0
DWIDTH 47 0
BBX 33 75 9 -17
BITMAP
0001FE0000
0003FF0000
0007FF8000
000FFFC000
001FFFE000
007FFFF800
00FFCFFC00
01FF87FE00
03FE03FF00
07FC00FF80
0000000000
0000000000
0000000000
0000000000
0000000000
0000000000
0000000000
1FFFFF0000
1FFFFF0000
1FFFFF0000
1FFFFF0000
1FFFFF0000
1FFFFF0000
1FFFFF0000
1FFFFF0000
1FFFFF0000
0007FF0000
0007FF0000
0007FF0000
0007FF0000
0007FF0000
0007FF0000
0007FF0000
0007FF0000
0007FF0000
0007FF0000
0007FF0000
0007FF0000
0007FF0000
0007FF0000
0007FF0000
0007FF0000
0007FF0000
0007FF0000
0007FF0000
0007FF0000
0007FF0000
0007FF0000
0007FF0000
0007FF0000
0007FF0000
0007FF0000
0007FF0000
0007FF0000
0007FF0000
0007FF0000
0007FF0000
0007FF0000
0007FF0000
0007FF0000
0007FF0000
0007FF0000
0007FF0000
000FFF0000
000FFE0000
003FFE0000
FFFFFE0000
FFFFFC0000
FFFFFC0000
FFFFF80000
FFFFF00000
FFFFE00000
FFFFC00000
FFFF000000
FFF0000000
ENDCHAR
STARTCHAR Kcommaaccent
ENCODING 310
SWIDTH 600 0
DWIDTH 47 0
BBX 43 74 5 -19
BITMAP
FFE00007FFC0
FFE0000FFF80
FFE0001FFF00
FFE0001FFF00
FFE0003FFE00
FFE0007FFC00
FFE000FFF800
FFE000FFF800
FFE001FFF000
FFE003FFE000
FFE003FFC000
FFE007FFC000
FFE00FFF8000
FFE01FFF0000
FFE01FFE0000
FFE03FFE0000
FFE07FFC0000
FFE0FFF80000
FFE0FFF00000
FFE1FFE00000
FFE3FFE00000
FFE3FFC00000
FFE7FF800000
FFEFFF000000
FFFFFF000000
FFFFFF000000
FFFFFF800000
FFFFFF800000
FFFFFFC00000
FFFFFFE00000
FFFFFFE00000
FFFFFFF00000
FFFF7FF80000
FFFF7FF80000
FFFE3FFC0000
FFFC3FFE0000
FFF81FFE0000
FFF00FFF0000
FFE00FFF0000
FFE007FF8000
FFE007FFC000
FFE003FFC000
FFE001FFE000
FFE001FFF000
FFE000FFF000
FFE000FFF800
FFE0007FFC00
FFE0003FFC00
FFE0003FFE00
FFE0001FFE00
FFE0000FFF00
FFE0000FFF80
FFE00007FF80
FFE00007FFC0
FFE00003FFE0
000000000000
000000000000
000000000000
0001FC000000
0001FC000000
0001FC000000
0001FC000000
0001FC000000
0001FC000000
0001FC000000
0003FC000000
0003F8000000
0003F8000000
0003F8000000
0007F0000000
0007F0000000
000FE0000000
0003C0000000
000180000000
ENDCHAR
STARTCHAR kcommaaccent
ENCODING 311
SWIDTH 600 0
DWIDTH 47 0
BBX 41 77 5 -19
BITMAP
FFE000000000
FFE000000000
FFE000000000
FFE000000000
FFE000000000
FFE000000000
FFE000000000
FFE000000000
FFE000000000
FFE000000000
FFE000000000
FFE000000000
FFE000000000
FFE000000000
FFE000000000
FFE000000000
FFE000000000
FFE0007FFC00
FFE000FFF800
FFE001FFF000
FFE003FFE000
FFE003FFC000
FFE007FF8000
FFE00FFF8000
FFE01FFF0000
FFE03FFE0000
FFE07FFC0000
FFE0FFF80000
FFE1FFF00000
FFE3FFE00000
FFE7FFC00000
FFE7FF800000
FFEFFF000000
FFFFFF000000
FFFFFE000000
FFFFFF000000
FFFFFF000000
FFFFFF800000
FFFFFFC00000
FFFFFFE00000
FFFFFFE00000
FFFFFFF00000
FFFC7FF80000
FFF87FFC0000
FFF03FFC0000
FFE01FFE0000
FFE00FFF0000
FFE00FFF8000
FFE007FF8000
FFE003FFC000
FFE003FFE000
FFE001FFF000
FFE000FFF000
FFE000FFF800
FFE0007FFC00
FFE0003FFE00
FFE0001FFE00
FFE0001FFF80
000000000000
000000000000
000000000000
0003F8000000
0003F8000000
0003F8000000
0003F8000000
0003F8000000
0003F8000000
0003F8000000
0003F8000000
0007F0000000
0007F0000000
0007F0000000
000FE0000000
000FE0000000
001FC0000000
000780000000
000300000000
ENDCHAR
STARTCHAR kgreenlandic
ENCODING 312
SWIDTH 600 0
DWIDTH 47 0
BBX 40 41 6 0
BITMAP
FFE0003FFE
FFE0007FFC
FFE000FFF8
FFE001FFF0
FFE003FFE0
FFE007FFE0
FFE00FFFC0
FFE00FFF80
FFE01FFF00
FFE03FFE00
FFE07FFC00
FFE0FFF800
FFE1FFF800
FFE1FFF000
FFE3FFE000
FFE7FFC000
FFEFFF8000
FFFFFF8000
FFFFFF8000
FFFFFFC000
FFFFFFE000
FFFFFFE000
FFFFFFF000
FFFFFFF800
FFFFFFF800
FFFF7FFC00
FFFE3FFE00
FFFC1FFE00
FFF81FFF00
FFF00FFF80
FFE00FFF80
FFE007FFC0
FFE007FFC0
FFE003FFE0
FFE001FFF0
FFE001FFF0
FFE000FFF8
FFE000FFFC
FFE0007FFC
FFE0003FFE
FFE0003FFF
ENDCHAR
STARTCHAR Lacute
ENCODING 313
SWIDTH 600 0
DWIDTH 47 0
BBX 36 69 6 0
BITMAP
00FFF00000
01FFC00000
03FF800000
03FF000000
07FE000000
0FFC000000
0FF8000000
1FF0000000
3FE0000000
3FC0000000
7FC0000000
0000000000
0000000000
0000000000
FFC0000000
FFC0000000
FFC0000000
FFC0000000
FFC0000000
FFC0000000
FFC0000000
FFC0000000
FFC0000000
FFC0000000
FFC0000000
FFC0000000
FFC0000000
FFC0000000
FFC0000000
FFC0000000
FFC0000000
FFC0000000
FFC0000000
FFC0000000
FFC0000000
FFC0000000
FFC0000000
FFC0000000
FFC0000000
FFC0000000
FFC0000000
FFC0000000
FFC0000000
FFC0000000
FFC0000000
FFC0000000
FFC0000000
FFC0000000
FFC0000000
FFC0000000
FFC0000000
FFC0000000
FFC0000000
FFC0000000
FFC0000000
FFC0000000
FFC0000000
FFC0000000
FFC0000000
FFC0000000
FFFFFFFFF0
FFFFFFFFF0
FFFFFFFFF0
FFFFFFFFF0
FFFFFFFFF0
FFFFFFFFF0
FFFFFFFFF0
FFFFFFFFF0
FFFFFFFFF0
ENDCHAR
STARTCHAR lacute
ENCODING 314
SWIDTH 600 0
DWIDTH 47 0
BBX 34 73 8 0
BITMAP
00000FFF00
00001FFC00
00003FF800
00003FF000
00007FE000
0000FFC000
0000FF8000
0001FF0000
0003FE0000
0003FC0000
0007FC0000
0000000000
0000000000
0000000000
0000000000
FFFFFE0000
FFFFFE0000
FFFFFE0000
FFFFFE0000
FFFFFE0000
FFFFFE0000
FFFFFE0000
FFFFFE0000
FFFFFE0000
000FFE0000
000FFE0000
000FFE0000
000FFE0000
000FFE0000
000FFE0000
000FFE0000
000FFE0000
000FFE0000
000FFE0000
000FFE0000
000FFE0000
000FFE0000
000FFE0000
000FFE0000
000FFE0000
000FFE0000
000FFE0000
000FFE0000
000FFE0000
000FFE0000
000FFE0000
000FFE0000
000FFE0000
000FFE0000
000FFE0000
000FFE0000
000FFE0000
000FFE0000
000FFE0000
000FFE0000
000FFE0000
000FFE0000
000FFE0000
000FFE0000
000FFE0000
000FFE0000
000FFE0000
000FFE0000
000FFE0000
FFFFFFFFC0
FFFFFFFFC0
FFFFFFFFC0
FFFFFFFFC0
FFFFFFFFC0
FFFFFFFFC0
FFFFFFFFC0
FFFFFFFFC0
FFFFFFFFC0
ENDCHAR
STARTCHAR Lcommaaccent
ENCODING 315
SWIDTH 600 0
DWIDTH 47 0
BBX 36 73 6 -18
BITMAP
FFC0000000
FFC0000000
FFC0000000
FFC0000000
FFC0000000
FFC0000000
FFC0000000
FFC0000000
FFC0000000
FFC0000000
FFC0000000
FFC0000000
FFC0000000
FFC0000000
FFC0000000
FFC0000000
FFC0000000
FFC0000000
FFC0000000
FFC0000000
FFC0000000
FFC0000000
FFC0000000
FFC0000000
FFC0000000
FFC0000000
FFC0000000
FFC0000000
FFC0000000
FFC0000000
FFC0000000
FFC0000000
FFC0000000
FFC0000000
FFC0000000
FFC0000000
FFC0000000
FFC0000000
FFC0000000
FFC0000000
FFC0000000
FFC0000000
FFC0000000
FFC0000000
FFC0000000
FFC0000000
FFFFFFFFF0
FFFFFFFFF0
FFFFFFFFF0
FFFFFFFFF0
FFFFFFFFF0
FFFFFFFFF0
FFFFFFFFF0
FFFFFFFFF0
FFFFFFFFF0
0000000000
0000000000
0003F80000
0003F80000
0003F80000
0003F80000
0003F80000
0003F80000
0003F80000
0003F80000
0007F00000
0007F00000
0007F00000
000FE00000
000FE00000
001FC00000
0007800000
0003800000
ENDCHAR
STARTCHAR lcommaaccent
ENCODING 316
SWIDTH 600 0
DWIDTH 47 0
BBX 34 76 8 -18
BITMAP
FFFFFE0000
FFFFFE0000
FFFFFE0000
FFFFFE0000
FFFFFE0000
FFFFFE0000
FFFFFE0000
FFFFFE0000
FFFFFE0000
000FFE0000
000FFE0000
000FFE0000
000FFE0000
000FFE0000
000FFE0000
000FFE0000
000FFE0000
000FFE0000
000FFE0000
000FFE0000
000FFE0000
000FFE0000
000FFE0000
000FFE0000
000FFE0000
000FFE0000
000FFE0000
000FFE0000
000FFE0000
000FFE0000
000FFE0000
000FFE0000
000FFE0000
000FFE0000
000FFE0000
000FFE0000
000FFE0000
000FFE0000
000FFE0000
000FFE0000
000FFE0000
000FFE0000
000FFE0000
000FFE0000
000FFE0000
000FFE0000
000FFE0000
000FFE0000
000FFE0000
FFFFFFFFC0
FFFFFFFFC0
FFFFFFFFC0
FFFFFFFFC0
FFFFFFFFC0
FFFFFFFFC0
FFFFFFFFC0
FFFFFFFFC0
FFFFFFFFC0
0000000000
0000000000
0003F80000
0003F80000
0003F80000
0003F80000
0003F80000
0003F80000
0003F80000
0003F80000
0007F00000
0007F00000
0007F00000
000FE00000
000FE00000
001FC00000
0007800000
0003000000
ENDCHAR
STARTCHAR Lcaron
ENCODING 317
SWIDTH 600 0
DWIDTH 47 0
BBX 36 55 6 0
BITMAP
FFC0007F80
FFC0007F80
FFC0007F80
FFC0007F80
FFC0007F80
FFC0007F80
FFC0007F80
FFC0007F80
FFC0007F80
FFC0007F80
FFC000FF80
FFC000FF00
FFC000FF00
FFC000FF00
FFC001FE00
FFC001FE00
FFC003FC00
FFC003FC00
FFC007F800
FFC001F000
FFC0006000
FFC0002000
FFC0000000
FFC0000000
FFC0000000
FFC0000000
FFC0000000
FFC0000000
FFC0000000
FFC0000000
FFC0000000
FFC0000000
FFC0000000
FFC0000000
FFC0000000
FFC0000000
FFC0000000
FFC0000000
FFC0000000
FFC0000000
FFC0000000
FFC0000000
FFC0000000
FFC0000000
FFC0000000
FFC0000000
FFFFFFFFF0
FFFFFFFFF0
FFFFFFFFF0
FFFFFFFFF0
FFFFFFFFF0
FFFFFFFFF0
FFFFFFFFF0
FFFFFFFFF0
FFFFFFFFF0
ENDCHAR
STARTCHAR lcaron
ENCODING 318
SWIDTH 673 0
DWIDTH 53 0
BBX 41 58 8 0
BITMAP
FFFFFE00FF80
FFFFFE00FF80
FFFFFE00FF80
FFFFFE00FF80
FFFFFE00FF80
FFFFFE00FF80
FFFFFE00FF80
FFFFFE00FF80
FFFFFE00FF00
000FFE00FF00
000FFE00FF00
000FFE00FF00
000FFE01FE00
000FFE01FE00
000FFE01FE00
000FFE03FC00
000FFE03FC00
000FFE07F800
000FFE07F000
000FFE03E000
000FFE00E000
000FFE004000
000FFE000000
000FFE000000
000FFE000000
000FFE000000
000FFE000000
000FFE000000
000FFE000000
000FFE000000
000FFE000000
000FFE000000
000FFE000000
000FFE000000
000FFE000000
000FFE000000
000FFE000000
000FFE000000
000FFE000000
000FFE000000
000FFE000000
000FFE000000
000FFE000000
000FFE000000
000FFE000000
000FFE000000
000FFE000000
000FFE000000
000FFE000000
FFFFFFFFC000
FFFFFFFFC000
FFFFFFFFC000
FFFFFFFFC000
FFFFFFFFC000
FFFFFFFFC000
FFFFFFFFC000
FFFFFFFFC000
FFFFFFFFC000
ENDCHAR
STARTCHAR Ldot
ENCODING 319
SWIDTH 600 0
DWIDTH 47 0
BBX 36 55 6 0
BITMAP
FFC0000000
FFC0000000
FFC0000000
FFC0000000
FFC0000000
FFC0000000
FFC0000000
FFC0000000
FFC0000000
FFC0000000
FFC0000000
FFC0000000
FFC0000000
FFC0000000
FFC0000000
FFC0000000
FFC0000000
FFC0000000
FFC00FC000
FFC01FE000
FFC03FF000
FFC03FF000
FFC07FF800
FFC07FF800
FFC07FF800
FFC03FF000
FFC03FF000
FFC01FE000
FFC00FC000
FFC0000000
FFC0000000
FFC0000000
FFC0000000
FFC0000000
FFC0000000
FFC0000000
FFC0000000
FFC0000000
FFC0000000
FFC0000000
FFC0000000
FFC0000000
FFC0000000
FFC0000000
FFC0000000
FFC0000000
FFFFFFFFF0
FFFFFFFFF0
FFFFFFFFF0
FFFFFFFFF0
FFFFFFFFF0
FFFFFFFFF0
FFFFFFFFF0
FFFFFFFFF0
FFFFFFFFF0
ENDCHAR
STARTCHAR ldot
ENCODING 320
SWIDTH 707 0
DWIDTH 55 0
BBX 38 58 8 0
BITMAP
FFFFFE0000
FFFFFE0000
FFFFFE0000
FFFFFE0000
FFFFFE0000
FFFFFE0000
FFFFFE0000
FFFFFE0000
FFFFFE0000
000FFE0000
000FFE0000
000FFE0000
000FFE0000
000FFE0000
000FFE0000
000FFE0000
000FFE0000
000FFE0000
000FFE0000
000FFE0000
000FFE0000
000FFE07C0
000FFE0FF0
000FFE1FF8
000FFE3FF8
000FFE3FF8
000FFE3FFC
000FFE3FF8
000FFE3FF8
000FFE1FF8
000FFE0FF0
000FFE07C0
000FFE0000
000FFE0000
000FFE0000
000FFE0000
000FFE0000
000FFE0000
000FFE0000
000FFE0000
000FFE0000
000FFE0000
000FFE0000
000FFE0000
000FFE0000
000FFE0000
000FFE0000
000FFE0000
000FFE0000
FFFFFFFFC0
FFFFFFFFC0
FFFFFFFFC0
FFFFFFFFC0
FFFFFFFFC0
FFFFFFFFC0
FFFFFFFFC0
FFFFFFFFC0
FFFFFFFFC0
ENDCHAR
STARTCHAR Lslash
ENCODING 321
SWIDTH 600 0
DWIDTH 47 0
BBX 42 55 2 0
BITMAP
07FF00000000
07FF00000000
07FF00000000
07FF00000000
07FF00000000
07FF00000000
07FF00000000
07FF00000000
07FF00000000
07FF00000000
07FF00000000
07FF00000000
07FF00000000
07FF00000000
07FF00000000
07FF00000000
07FF00000000
07FF00000000
07FF00000000
07FF01000000
07FF0F000000
07FFFF000000
07FFFF000000
07FFFF000000
07FFFF000000
3FFFFF000000
FFFFFF000000
FFFFF8000000
FFFFC0000000
FFFF00000000
FFFF00000000
FFFF00000000
F7FF00000000
87FF00000000
07FF00000000
07FF00000000
07FF00000000
07FF00000000
07FF00000000
07FF00000000
07FF00000000
07FF00000000
07FF00000000
07FF00000000
07FF00000000
07FF00000000
07FFFFFFFFC0
07FFFFFFFFC0
07FFFFFFFFC0
07FFFFFFFFC0
07FFFFFFFFC0
07FFFFFFFFC0
07FFFFFFFFC0
07FFFFFFFFC0
07FFFFFFFFC0
ENDCHAR
STARTCHAR lslash
ENCODING 322
SWIDTH 600 0
DWIDTH 47 0
BBX 35 58 8 0
BITMAP
FFFFFE0000
FFFFFE0000
FFFFFE0000
FFFFFE0000
FFFFFE0000
FFFFFE0000
FFFFFE0000
FFFFFE0000
FFFFFE0000
000FFE0000
000FFE0000
000FFE0000
000FFE0000
000FFE0000
000FFE0000
000FFE0040
000FFE03C0
000FFE0FC0
000FFE3FC0
000FFEFFC0
000FFFFFC0
000FFFFFC0
000FFFFFC0
000FFFFE00
000FFFF800
003FFFE000
00FFFF0000
07FFFE0000
1FFFFE0000
7FFFFE0000
7FFFFE0000
7FFFFE0000
7FEFFE0000
7F0FFE0000
7C0FFE0000
700FFE0000
800FFE0000
000FFE0000
000FFE0000
000FFE0000
000FFE0000
000FFE0000
000FFE0000
000FFE0000
000FFE0000
000FFE0000
000FFE0000
000FFE0000
000FFE0000
FFFFFFFFE0
FFFFFFFFE0
FFFFFFFFE0
FFFFFFFFE0
FFFFFFFFE0
FFFFFFFFE0
FFFFFFFFE0
FFFFFFFFE0
FFFFFFFFE0
ENDCHAR
STARTCHAR Nacute
ENCODING 323
SWIDTH 600 0
DWIDTH 47 0
BBX 37 70 5 0
BITMAP
000007FF80
00000FFE00
00001FFC00
00001FF800
00003FF000
00007FE000
00007FC000
0000FF8000
0001FF8000
0001FF0000
0003FE0000
0000000000
0000000000
0000000000
0000000000
FFE0003FF8
FFE0003FF8
FFF0003FF8
FFF0003FF8
FFF0003FF8
FFF8003FF8
FFF8003FF8
FFFC003FF8
FFFC003FF8
FFFE003FF8
FFFE003FF8
FFFE003FF8
FFFF003FF8
FFFF003FF8
FFFF803FF8
FFFF803FF8
FFFFC03FF8
FFFFC03FF8
FFFFC03FF8
FFFFE03FF8
FFDFE03FF8
FFDFF03FF8
FFCFF03FF8
FFCFF83FF8
FFC7F83FF8
FFC7F83FF8
FFC7FC3FF8
FFC3FC3FF8
FFC3FE3FF8
FFC1FE3FF8
FFC1FF3FF8
FFC0FF3FF8
FFC0FFBFF8
FFC0FFBFF8
FFC07FBFF8
FFC07FFFF8
FFC03FFFF8
FFC03FFFF8
FFC01FFFF8
FFC01FFFF8
FFC00FFFF8
FFC00FFFF8
FFC00FFFF8
FFC007FFF8
FFC007FFF8
FFC003FFF8
FFC003FFF8
FFC001FFF8
FFC001FFF8
FFC001FFF8
FFC000FFF8
FFC000FFF8
FFC0007FF8
FFC0007FF8
FFC0003FF8
ENDCHAR
STARTCHAR nacute
ENCODING 324
SWIDTH 600 0
DWIDTH 47 0
BBX 37 58 5 0
BITMAP
00000FFF00
00000FFE00
00001FFC00
00001FF800
00003FF000
00007FE000
00007FC000
0000FF8000
0001FF0000
0001FE0000
0003FC0000
0000000000
0000000000
0000000000
0000000000
0000000000
00001FE000
FFC0FFFC00
FFC1FFFF00
FFC7FFFF80
FFCFFFFFC0
FFDFFFFFC0
FFFFFFFFE0
FFFFFFFFF0
FFFFFFFFF0
FFFC01FFF0
FFF8007FF8
FFF0007FF8
FFE0003FF8
FFE0003FF8
FFE0003FF8
FFE0001FF8
FFE0001FF8
FFE0001FF8
FFE0001FF8
FFE0001FF8
FFE0001FF8
FFE0001FF8
FFE0001FF8
FFE0001FF8
FFE0001FF8
FFE0001FF8
FFE0001FF8
FFE0001FF8
FFE0001FF8
FFE0001FF8
FFE0001FF8
FFE0001FF8
FFE0001FF8
FFE0001FF8
FFE0001FF8
FFE0001FF8
FFE0001FF8
FFE0001FF8
FFE0001FF8
FFE0001FF8
FFE0001FF8
FFE0001FF8
ENDCHAR
STARTCHAR Ncommaaccent
ENCODING 325
SWIDTH 600 0
DWIDTH 47 0
BBX 37 73 5 -18
BITMAP
FFE0003FF8
FFE0003FF8
FFF0003FF8
FFF0003FF8
FFF0003FF8
FFF8003FF8
FFF8003FF8
FFFC003FF8
FFFC003FF8
FFFE003FF8
FFFE003FF8
FFFE003FF8
FFFF003FF8
FFFF003FF8
FFFF803FF8
FFFF803FF8
FFFFC03FF8
FFFFC03FF8
FFFFC03FF8
FFFFE03FF8
FFDFE03FF8
FFDFF03FF8
FFCFF03FF8
FFCFF83FF8
FFC7F83FF8
FFC7F83FF8
FFC7FC3FF8
FFC3FC3FF8
FFC3FE3FF8
FFC1FE3FF8
FFC1FF3FF8
FFC0FF3FF8
FFC0FFBFF8
FFC0FFBFF8
FFC07FBFF8
FFC07FFFF8
FFC03FFFF8
FFC03FFFF8
FFC01FFFF8
FFC01FFFF8
FFC00FFFF8
FFC00FFFF8
FFC00FFFF8
FFC007FFF8
FFC007FFF8
FFC003FFF8
FFC003FFF8
FFC001FFF8
FFC001FFF8
FFC001FFF8
FFC000FFF8
FFC000FFF8
FFC0007FF8
FFC0007FF8
FFC0003FF8
0000000000
0000000000
0001FC0000
0001FC0000
0001FC0000
0001FC0000
0001FC0000
0001FC0000
0001FC0000
0001FC0000
0003F80000
0003F80000
0003F80000
0007F00000
0007F00000
000FE00000
0003C00000
0001C00000
ENDCHAR
STARTCHAR ncommaaccent
ENCODING 326
SWIDTH 600 0
DWIDTH 47 0
BBX 37 60 5 -18
BITMAP
00001FE000
FFC0FFFC00
FFC1FFFF00
FFC7FFFF80
FFCFFFFFC0
FFDFFFFFC0
FFFFFFFFE0
FFFFFFFFF0
FFFFFFFFF0
FFFC01FFF0
FFF8007FF8
FFF0007FF8
FFE0003FF8
FFE0003FF8
FFE0003FF8
FFE0001FF8
FFE0001FF8
FFE0001FF8
FFE0001FF8
FFE0001FF8
FFE0001FF8
FFE0001FF8
FFE0001FF8
FFE0001FF8
FFE0001FF8
FFE0001FF8
FFE0001FF8
FFE0001FF8
FFE0001FF8
FFE0001FF8
FFE0001FF8
FFE0001FF8
FFE0001FF8
FFE0001FF8
FFE0001FF8
FFE0001FF8
FFE0001FF8
FFE0001FF8
FFE0001FF8
FFE0001FF8
FFE0001FF8
FFE0001FF8
0000000000
0000000000
0001FC0000
0001FC0000
0001FC0000
0001FC0000
0001FC0000
0001FC0000
0001FC0000
0001FC0000
0003F80000
0003F80000
0003F80000
0007F00000
0007F00000
000FE00000
0003C00000
0001800000
ENDCHAR
STARTCHAR Ncaron
ENCODING 327
SWIDTH 600 0
DWIDTH 47 0
BBX 37 71 5 0
BITMAP
0FF801FF80
0FFE03FF00
03FF07FE00
01FF8FFC00
00FFDFF800
007FFFE000
003FFFC000
000FFF8000
0007FF0000
0003FE0000
0000000000
0000000000
0000000000
0000000000
0000000000
0000000000
FFE0003FF8
FFE0003FF8
FFF0003FF8
FFF0003FF8
FFF0003FF8
FFF8003FF8
FFF8003FF8
FFFC003FF8
FFFC003FF8
FFFE003FF8
FFFE003FF8
FFFE003FF8
FFFF003FF8
FFFF003FF8
FFFF803FF8
FFFF803FF8
FFFFC03FF8
FFFFC03FF8
FFFFC03FF8
FFFFE03FF8
FFDFE03FF8
FFDFF03FF8
FFCFF03FF8
FFCFF83FF8
FFC7F83FF8
FFC7F83FF8
FFC7FC3FF8
FFC3FC3FF8
FFC3FE3FF8
FFC1FE3FF8
FFC1FF3FF8
FFC0FF3FF8
FFC0FFBFF8
FFC0FFBFF8
FFC07FBFF8
FFC07FFFF8
FFC03FFFF8
FFC03FFFF8
FFC01FFFF8
FFC01FFFF8
FFC00FFFF8
FFC00FFFF8
FFC00FFFF8
FFC007FFF8
FFC007FFF8
FFC003FFF8
FFC003FFF8
FFC001FFF8
FFC001FFF8
FFC001FFF8
FFC000FFF8
FFC000FFF8
FFC0007FF8
FFC0007FF8
FFC0003FF8
ENDCHAR
STARTCHAR ncaron
ENCODING 328
SWIDTH 600 0
DWIDTH 47 0
BBX 37 59 5 0
BITMAP
0FF801FF80
0FFC03FF00
07FE07FE00
01FF8FFC00
00FFFFF000
007FFFE000
003FFFC000
001FFF8000
000FFF0000
0003FE0000
0000000000
0000000000
0000000000
0000000000
0000000000
0000000000
0000000000
00001FE000
FFC0FFFC00
FFC1FFFF00
FFC7FFFF80
FFCFFFFFC0
FFDFFFFFC0
FFFFFFFFE0
FFFFFFFFF0
FFFFFFFFF0
FFFC01FFF0
FFF8007FF8
FFF0007FF8
FFE0003FF8
FFE0003FF8
FFE0003FF8
FFE0001FF8
FFE0001FF8
FFE0001FF8
FFE0001FF8
FFE0001FF8
FFE0001FF8
FFE0001FF8
FFE0001FF8
FFE0001FF8
FFE0001FF8
FFE0001FF8
FFE0001FF8
FFE0001FF8
FFE0001FF8
FFE0001FF8
FFE0001FF8
FFE0001FF8
FFE0001FF8
FFE0001FF8
FFE0001FF8
FFE0001FF8
FFE0001FF8
FFE0001FF8
FFE0001FF8
FFE0001FF8
FFE0001FF8
FFE0001FF8
ENDCHAR
STARTCHAR napostrophe
ENCODING 329
SWIDTH 600 0
DWIDTH 47 0
BBX 48 59 -6 0
BITMAP
1FF000000000
1FF000000000
1FF000000000
1FF000000000
1FF000000000
1FF000000000
1FF000000000
1FF000000000
1FF000000000
1FF000000000
1FE000000000
1FE000000000
1FE000000000
3FC000000000
3FC000000000
3FC000000000
7F8000000000
7F000003FC00
FF1FF81FFF80
3E1FF83FFFE0
1C1FF8FFFFF0
081FF9FFFFF8
001FFBFFFFF8
001FFFFFFFFC
001FFFFFFFFE
001FFFFFFFFE
001FFF803FFE
001FFF000FFF
001FFE000FFF
001FFC0007FF
001FFC0007FF
001FFC0007FF
001FFC0003FF
001FFC0003FF
001FFC0003FF
001FFC0003FF
001FFC0003FF
001FFC0003FF
001FFC0003FF
001FFC0003FF
001FFC0003FF
001FFC0003FF
001FFC0003FF
001FFC0003FF
001FFC0003FF
001FFC0003FF
001FFC0003FF
001FFC0003FF
001FFC0003FF
001FFC0003FF
001FFC0003FF
001FFC0003FF
001FFC0003FF
001FFC0003FF
001FFC0003FF
001FFC0003FF
001FFC0003FF
001FFC0003FF
001FFC0003FF
ENDCHAR
STARTCHAR Eng
ENCODING 330
SWIDTH 600 0
DWIDTH 47 0
BBX 36 72 6 -17
BITMAP
FFE0007FF0
FFE0007FF0
FFE0007FF0
FFF0007FF0
FFF0007FF0
FFF8007FF0
FFF8007FF0
FFFC007FF0
FFFC007FF0
FFFE007FF0
FFFE007FF0
FFFE007FF0
FFFF007FF0
FFFF007FF0
FFFF807FF0
FFFF807FF0
FFFFC07FF0
FFFFC07FF0
FFFFC07FF0
FFFFE07FF0
FFFFE07FF0
FFFFF07FF0
FFDFF07FF0
FFDFF87FF0
FFDFF87FF0
FFCFFC7FF0
FFCFFC7FF0
FFC7FC7FF0
FFC7FE7FF0
FFC3FE7FF0
FFC3FF7FF0
FFC1FF7FF0
FFC1FFFFF0
FFC1FFFFF0
FFC0FFFFF0
FFC0FFFFF0
FFC07FFFF0
FFC07FFFF0
FFC03FFFF0
FFC03FFFF0
FFC01FFFF0
FFC01FFFF0
FFC01FFFF0
FFC00FFFF0
FFC00FFFF0
FFC007FFF0
FFC007FFF0
FFC003FFF0
FFC003FFF0
FFC001FFF0
FFC001FFF0
FFC001FFF0
FFC000FFF0
FFC000FFF0
FFC0007FF0
0000007FF0
0000007FF0
0000007FF0
0000007FF0
0000007FF0
000000FFE0
000000FFE0
000001FFE0
00007FFFE0
0000FFFFC0
0000FFFFC0
0000FFFF80
0000FFFF00
0000FFFE00
0000FFFC00
0000FFF800
00007FC000
ENDCHAR
STARTCHAR eng
ENCODING 331
SWIDTH 600 0
DWIDTH 47 0
BBX 35 59 6 -17
BITMAP
00003FC000
FFC1FFF800
FFC3FFFC00
FFC7FFFE00
FFCFFFFF00
FFDFFFFF80
FFFFFFFF80
FFFFFFFFC0
FFFFFFFFC0
FFF803FFC0
FFF001FFE0
FFE001FFE0
FFC000FFE0
FFC000FFE0
FFC000FFE0
FFC000FFE0
FFC000FFE0
FFC000FFE0
FFC000FFE0
FFC000FFE0
FFC000FFE0
FFC000FFE0
FFC000FFE0
FFC000FFE0
FFC000FFE0
FFC000FFE0
FFC000FFE0
FFC000FFE0
FFC000FFE0
FFC000FFE0
FFC000FFE0
FFC000FFE0
FFC000FFE0
FFC000FFE0
FFC000FFE0
FFC000FFE0
FFC000FFE0
FFC000FFE0
FFC000FFE0
FFC000FFE0
FFC000FFE0
FFC000FFE0
000000FFE0
000000FFE0
000000FFE0
000000FFE0
000000FFE0
000000FFE0
000001FFE0
000001FFC0
0000FFFFC0
0000FFFFC0
0000FFFF80
0000FFFF80
0000FFFF00
0000FFFE00
0000FFFC00
0000FFF000
0000FF8000
ENDCHAR
STARTCHAR Omacron
ENCODING 332
SWIDTH 600 0
DWIDTH 47 0
BBX 41 69 3 -1
BITMAP
01FFFFFFC000
01FFFFFFC000
01FFFFFFC000
01FFFFFFC000
01FFFFFFC000
01FFFFFFC000
000000000000
000000000000
000000000000
000000000000
000000000000
000000000000
0001FF800000
000FFFF00000
003FFFFC0000
007FFFFF0000
00FFFFFF8000
03FFFFFFC000
03FFFFFFE000
07FFFFFFF000
0FFFFFFFF000
0FFF00FFF800
1FFE003FFC00
1FFC001FFC00
3FF8001FFC00
3FF8000FFE00
7FF0000FFE00
7FF00007FE00
7FF00007FF00
7FE00007FF00
FFE00007FF00
FFE00003FF00
FFE00003FF00
FFE00003FF80
FFE00003FF80
FFE00003FF80
FFE00003FF80
FFE00003FF80
FFE00003FF80
FFE00003FF80
FFE00003FF80
FFE00003FF80
FFE00003FF80
FFE00003FF80
FFE00003FF80
FFE00003FF80
FFE00003FF80
FFE00003FF80
FFE00003FF00
FFE00007FF00
FFE00007FF00
7FE00007FF00
7FF00007FF00
7FF00007FF00
7FF0000FFE00
3FF8000FFE00
3FF8001FFE00
1FFC003FFC00
1FFE003FFC00
0FFF00FFF800
0FFFFFFFF000
07FFFFFFF000
03FFFFFFE000
03FFFFFFC000
01FFFFFF8000
007FFFFF0000
003FFFFC0000
000FFFF00000
0001FF800000
ENDCHAR
STARTCHAR omacron
ENCODING 333
SWIDTH 600 0
DWIDTH 47 0
BBX 39 56 4 -1
BITMAP
03FFFFFFC0
03FFFFFFC0
03FFFFFFC0
03FFFFFFC0
03FFFFFFC0
03FFFFFFC0
0000000000
0000000000
0000000000
0000000000
0000000000
0000000000
0000000000
0001FF0000
001FFFE000
007FFFF800
00FFFFFE00
01FFFFFF00
03FFFFFF80
07FFFFFFC0
0FFFFFFFE0
1FFFFFFFF0
1FFE01FFF0
3FFC007FF8
3FF8003FF8
7FF0003FF8
7FF0001FFC
7FE0001FFC
FFE0001FFC
FFE0000FFC
FFE0000FFE
FFE0000FFE
FFE0000FFE
FFE0000FFE
FFE0000FFE
FFE0000FFE
FFE0000FFE
FFE0000FFE
FFE0000FFE
FFE0000FFC
FFE0001FFC
7FE0001FFC
7FF0001FFC
7FF0003FF8
3FF8003FF8
3FFC007FF8
1FFE01FFF0
1FFFFFFFF0
0FFFFFFFE0
07FFFFFFC0
07FFFFFF80
03FFFFFF00
00FFFFFE00
007FFFF800
001FFFE000
0001FF0000
ENDCHAR
STARTCHAR Obreve
ENCODING 334
SWIDTH 600 0
DWIDTH 47 0
BBX 41 73 3 -1
BITMAP
00FE003F8000
00FE003F8000
00FF007F8000
00FF007F8000
00FFC1FF8000
007FFFFF0000
003FFFFE0000
003FFFFC0000
000FFFF80000
0007FFF00000
0000FF800000
000000000000
000000000000
000000000000
000000000000
000000000000
0001FF800000
000FFFF00000
003FFFFC0000
007FFFFF0000
00FFFFFF8000
03FFFFFFC000
03FFFFFFE000
07FFFFFFF000
0FFFFFFFF000
0FFF00FFF800
1FFE003FFC00
1FFC001FFC00
3FF8001FFC00
3FF8000FFE00
7FF0000FFE00
7FF00007FE00
7FF00007FF00
7FE00007FF00
FFE00007FF00
FFE00003FF00
FFE00003FF00
FFE00003FF80
FFE00003FF80
FFE00003FF80
FFE00003FF80
FFE00003FF80
FFE00003FF80
FFE00003FF80
FFE00003FF80
FFE00003FF80
FFE00003FF80
FFE00003FF80
FFE00003FF80
FFE00003FF80
FFE00003FF80
FFE00003FF80
FFE00003FF00
FFE00007FF00
FFE00007FF00
7FE00007FF00
7FF00007FF00
7FF00007FF00
7FF0000FFE00
3FF8000FFE00
3FF8001FFE00
1FFC003FFC00
1FFE003FFC00
0FFF00FFF800
0FFFFFFFF000
07FFFFFFF000
03FFFFFFE000
03FFFFFFC000
01FFFFFF8000
007FFFFF0000
003FFFFC0000
000FFFF00000
0001FF800000
ENDCHAR
STARTCHAR obreve
ENCODING 335
SWIDTH 600 0
DWIDTH 47 0
BBX 39 60 4 -1
BITMAP
01FC007F80
01FE007F80
01FE00FF00
01FF00FF00
00FF83FF00
00FFFFFE00
007FFFFE00
003FFFFC00
001FFFF000
0007FFE000
0001FF0000
0000000000
0000000000
0000000000
0000000000
0000000000
0000000000
0001FF0000
001FFFE000
007FFFF800
00FFFFFE00
01FFFFFF00
03FFFFFF80
07FFFFFFC0
0FFFFFFFE0
1FFFFFFFF0
1FFE01FFF0
3FFC007FF8
3FF8003FF8
7FF0003FF8
7FF0001FFC
7FE0001FFC
FFE0001FFC
FFE0000FFC
FFE0000FFE
FFE0000FFE
FFE0000FFE
FFE0000FFE
FFE0000FFE
FFE0000FFE
FFE0000FFE
FFE0000FFE
FFE0000FFE
FFE0000FFC
FFE0001FFC
7FE0001FFC
7FF0001FFC
7FF0003FF8
3FF8003FF8
3FFC007FF8
1FFE01FFF0
1FFFFFFFF0
0FFFFFFFE0
07FFFFFFC0
07FFFFFF80
03FFFFFF00
00FFFFFE00
007FFFF800
001FFFE000
0001FF0000
ENDCHAR
STARTCHAR Ohungarumlaut
ENCODING 336
SWIDTH 600 0
DWIDTH 47 0
BBX 42 73 3 -1
BITMAP
00007FE1FFC0
0000FFC3FF00
0000FF87FE00
0001FF0FFC00
0003FE1FF800
0007FC3FE000
000FF87FC000
000FF0FF8000
001FE1FF0000
003FC3FE0000
000000000000
000000000000
000000000000
000000000000
000000000000
000000000000
0001FF800000
000FFFF00000
003FFFFC0000
007FFFFF0000
00FFFFFF8000
03FFFFFFC000
03FFFFFFE000
07FFFFFFF000
0FFFFFFFF000
0FFF00FFF800
1FFE003FFC00
1FFC001FFC00
3FF8001FFC00
3FF8000FFE00
7FF0000FFE00
7FF00007FE00
7FF00007FF00
7FE00007FF00
FFE00007FF00
FFE00003FF00
FFE00003FF00
FFE00003FF80
FFE00003FF80
FFE00003FF80
FFE00003FF80
FFE00003FF80
FFE00003FF80
FFE00003FF80
FFE00003FF80
FFE00003FF80
FFE00003FF80
FFE00003FF80
FFE00003FF80
FFE00003FF80
FFE00003FF80
FFE00003FF80
FFE00003FF00
FFE00007FF00
FFE00007FF00
7FE00007FF00
7FF00007FF00
7FF00007FF00
7FF0000FFE00
3FF8000FFE00
3FF8001FFE00
1FFC003FFC00
1FFE003FFC00
0FFF00FFF800
0FFFFFFFF000
07FFFFFFF000
03FFFFFFE000
03FFFFFFC000
01FFFFFF8000
007FFFFF0000
003FFFFC0000
000FFFF00000
0001FF800000
ENDCHAR
STARTCHAR ohungarumlaut
ENCODING 337
SWIDTH 600 0
DWIDTH 47 0
BBX 41 60 4 -1
BITMAP
0000FFE3FF80
0001FF87FE00
0001FF0FFC00
0003FE1FF800
0007FC3FF000
000FF87FE000
000FF07F8000
001FE0FF0000
003FC1FE0000
007F87FC0000
000000000000
000000000000
000000000000
000000000000
000000000000
000000000000
000000000000
0001FF000000
001FFFE00000
007FFFF80000
00FFFFFE0000
01FFFFFF0000
03FFFFFF8000
07FFFFFFC000
0FFFFFFFE000
1FFFFFFFF000
1FFE01FFF000
3FFC007FF800
3FF8003FF800
7FF0003FF800
7FF0001FFC00
7FE0001FFC00
FFE0001FFC00
FFE0000FFC00
FFE0000FFE00
FFE0000FFE00
FFE0000FFE00
FFE0000FFE00
FFE0000FFE00
FFE0000FFE00
FFE0000FFE00
FFE0000FFE00
FFE0000FFE00
FFE0000FFC00
FFE0001FFC00
7FE0001FFC00
7FF0001FFC00
7FF0003FF800
3FF8003FF800
3FFC007FF800
1FFE01FFF000
1FFFFFFFF000
0FFFFFFFE000
07FFFFFFC000
07FFFFFF8000
03FFFFFF0000
00FFFFFE0000
007FFFF80000
001FFFE00000
0001FF000000
ENDCHAR
STARTCHAR OE
ENCODING 338
SWIDTH 600 0
DWIDTH 47 0
BBX 42 57 3 -1
BITMAP
000FFE000000
007FFFFFFFC0
01FFFFFFFFC0
03FFFFFFFFC0
07FFFFFFFFC0
0FFFFFFFFFC0
1FFFFFFFFFC0
3FFFFFFFFFC0
3FFFFFFFFFC0
7FF00FFFFFC0
7FE00FF80000
7FC00FF80000
FFC00FF80000
FFC00FF80000
FF800FF80000
FF800FF80000
FF800FF80000
FF800FF80000
FF800FF80000
FF800FF80000
FF800FF80000
FF800FF80000
FF800FF80000
FF800FFFFF00
FF800FFFFF00
FF800FFFFF00
FF800FFFFF00
FF800FFFFF00
FF800FFFFF00
FF800FFFFF00
FF800FFFFF00
FF800FFFFF00
FF800FF80000
FF800FF80000
FF800FF80000
FF800FF80000
FF800FF80000
FF800FF80000
FF800FF80000
FF800FF80000
FF800FF80000
FF800FF80000
FF800FF80000
FFC00FF80000
FFC00FF80000
7FC00FF80000
7FE00FF80000
7FF00FFFFFC0
3FFFFFFFFFC0
3FFFFFFFFFC0
1FFFFFFFFFC0
0FFFFFFFFFC0
07FFFFFFFFC0
03FFFFFFFFC0
01FFFFFFFFC0
007FFFFFFFC0
000FFE000000
ENDCHAR
STARTCHAR oe
ENCODING 339
SWIDTH 600 0
DWIDTH 47 0
BBX 44 43 1 -1
BITMAP
003FC00FE000
00FFF87FF800
03FFFCFFFE00
07FFFFFFFF00
0FFFFFFFFF80
1FFFFFFFFF80
1FFFFFFFFFC0
3FFFFFFFFFC0
3FFFFFFFFFE0
3FF07FF87FE0
7FE07FF83FE0
7FE03FF03FF0
7FE03FF03FF0
7FE03FF03FF0
7FE03FF03FF0
FFC03FF03FF0
FFC03FF03FF0
FFC03FF03FF0
FFC03FFFFFF0
FFC03FFFFFF0
FFC03FFFFFF0
FFC03FFFFFF0
FFC03FFFFFF0
FFC03FFFFFF0
FFC03FFFFFF0
FFC03FF00000
FFC03FF00000
7FC03FF00000
7FE03FF00000
7FE03FF00000
7FE03FF80000
7FE03FF80000
7FE07FFC0000
3FF07FFE0100
3FFFFFFFFF80
3FFFFFFFFF80
1FFFFFFFFF80
1FFFFFFFFFC0
0FFFFFFFFFC0
07FFFEFFFFC0
03FFFC7FFFC0
00FFF83FFF00
003FC007F800
ENDCHAR
STARTCHAR Racute
ENCODING 340
SWIDTH 600 0
DWIDTH 47 0
BBX 41 70 5 0
BITMAP
00000FFF0000
00001FFE0000
00001FFC0000
00003FF80000
00007FF00000
00007FE00000
0000FFC00000
0001FF800000
0001FF000000
0003FE000000
0007FC000000
000000000000
000000000000
000000000000
000000000000
FFFFFF000000
FFFFFFF00000
FFFFFFFE0000
FFFFFFFF0000
FFFFFFFFC000
FFFFFFFFE000
FFFFFFFFF000
FFFFFFFFF000
FFFFFFFFF800
FFE000FFF800
FFE0007FFC00
FFE0003FFC00
FFE0001FFC00
FFE0001FFE00
FFE0000FFE00
FFE0000FFE00
FFE0000FFE00
FFE0000FFE00
FFE0000FFE00
FFE0000FFE00
FFE0001FFC00
FFE0001FFC00
FFE0003FFC00
FFE0007FF800
FFE000FFF800
FFFFFFFFF000
FFFFFFFFF000
FFFFFFFFE000
FFFFFFFFC000
FFFFFFFF0000
FFFFFFFE0000
FFFFFFF80000
FFFFFFF80000
FFFFFFFC0000
FFE01FFC0000
FFE00FFE0000
FFE00FFE0000
FFE007FF0000
FFE007FF0000
FFE003FF8000
FFE003FF8000
FFE001FFC000
FFE001FFC000
FFE000FFE000
FFE000FFE000
FFE0007FF000
FFE0007FF000
FFE0003FF800
FFE0003FF800
FFE0003FFC00
FFE0001FFC00
FFE0001FFE00
FFE0000FFE00
FFE0000FFF00
FFE00007FF80
ENDCHAR
STARTCHAR racute
ENCODING 341
SWIDTH 600 0
DWIDTH 47 0
BBX 32 58 11 0
BITMAP
0007FF80
0007FF00
000FFE00
001FFC00
001FF800
003FF000
003FE000
007FC000
00FF8000
00FF0000
01FE0000
00000000
00000000
00000000
00000000
00000000
00000FF8
FFC07FFF
FFC0FFFF
FFC3FFFE
FFC7FFFE
FFCFFFFE
FFDFFFFE
FFDFFFFE
FFFFFFFE
FFFFFFFE
FFFFFFFC
FFFF801C
FFFE0000
FFF80000
FFF00000
FFF00000
FFE00000
FFE00000
FFE00000
FFE00000
FFE00000
FFE00000
FFE00000
FFE00000
FFE00000
FFE00000
FFE00000
FFE00000
FFE00000
FFE00000
FFE00000
FFE00000
FFE00000
FFE00000
FFE00000
FFE00000
FFE00000
FFE00000
FFE00000
FFE00000
FFE00000
FFE00000
ENDCHAR
ENDFONT
